%TF.GenerationSoftware,KiCad,Pcbnew,10.0.5*%
%TF.CreationDate,2026-08-11T14:03:18+02:00*%
%TF.ProjectId,STR500_v1.2,53545235-3030-45f7-9631-2e322e6b6963,rev?*%
%TF.SameCoordinates,Original*%
%TF.FileFunction,Legend,Bot*%
%TF.FilePolarity,Positive*%
%FSLAX46Y46*%
G04 Gerber Fmt 4.6, Leading zero omitted, Abs format (unit mm)*
G04 Created by KiCad (PCBNEW 10.0.5) date 2026-08-11 14:03:18*
%MOMM*%
%LPD*%
G01*
G04 APERTURE LIST*
G04 Aperture macros list*
%AMRoundRect*
0 Rectangle with rounded corners*
0 $1 Rounding radius*
0 $2 $3 $4 $5 $6 $7 $8 $9 X,Y pos of 4 corners*
0 Add a 4 corners polygon primitive as box body*
4,1,4,$2,$3,$4,$5,$6,$7,$8,$9,$2,$3,0*
0 Add four circle primitives for the rounded corners*
1,1,$1+$1,$2,$3*
1,1,$1+$1,$4,$5*
1,1,$1+$1,$6,$7*
1,1,$1+$1,$8,$9*
0 Add four rect primitives between the rounded corners*
20,1,$1+$1,$2,$3,$4,$5,0*
20,1,$1+$1,$4,$5,$6,$7,0*
20,1,$1+$1,$6,$7,$8,$9,0*
20,1,$1+$1,$8,$9,$2,$3,0*%
G04 Aperture macros list end*
%ADD10C,0.150000*%
%ADD11C,0.100000*%
%ADD12C,0.200000*%
%ADD13C,0.120000*%
%ADD14O,2.190000X1.740000*%
%ADD15RoundRect,0.250000X-0.845000X0.620000X-0.845000X-0.620000X0.845000X-0.620000X0.845000X0.620000X0*%
%ADD16R,1.800000X1.800000*%
%ADD17C,1.800000*%
%ADD18C,2.000000*%
%ADD19RoundRect,0.102000X0.817500X-0.817500X0.817500X0.817500X-0.817500X0.817500X-0.817500X-0.817500X0*%
%ADD20C,1.839000*%
%ADD21RoundRect,0.250000X-0.620000X-0.845000X0.620000X-0.845000X0.620000X0.845000X-0.620000X0.845000X0*%
%ADD22O,1.740000X2.190000*%
%ADD23C,1.600000*%
%ADD24RoundRect,0.250000X-0.600000X-0.600000X0.600000X-0.600000X0.600000X0.600000X-0.600000X0.600000X0*%
%ADD25C,1.700000*%
%ADD26R,1.700000X1.700000*%
%ADD27RoundRect,0.250000X-0.550000X0.550000X-0.550000X-0.550000X0.550000X-0.550000X0.550000X0.550000X0*%
%ADD28RoundRect,0.250000X0.650000X-0.350000X0.650000X0.350000X-0.650000X0.350000X-0.650000X-0.350000X0*%
%ADD29O,1.700000X1.700000*%
%ADD30O,1.800000X1.200000*%
G04 APERTURE END LIST*
D10*
X106952381Y-111828961D02*
X106952381Y-112628961D01*
X106952381Y-111867057D02*
X106876191Y-111828961D01*
X106876191Y-111828961D02*
X106723810Y-111828961D01*
X106723810Y-111828961D02*
X106647619Y-111867057D01*
X106647619Y-111867057D02*
X106609524Y-111905152D01*
X106609524Y-111905152D02*
X106571429Y-111981342D01*
X106571429Y-111981342D02*
X106571429Y-112209914D01*
X106571429Y-112209914D02*
X106609524Y-112286104D01*
X106609524Y-112286104D02*
X106647619Y-112324200D01*
X106647619Y-112324200D02*
X106723810Y-112362295D01*
X106723810Y-112362295D02*
X106876191Y-112362295D01*
X106876191Y-112362295D02*
X106952381Y-112324200D01*
X105885714Y-111828961D02*
X105885714Y-112362295D01*
X106228571Y-111828961D02*
X106228571Y-112248009D01*
X106228571Y-112248009D02*
X106190476Y-112324200D01*
X106190476Y-112324200D02*
X106114286Y-112362295D01*
X106114286Y-112362295D02*
X106000000Y-112362295D01*
X106000000Y-112362295D02*
X105923809Y-112324200D01*
X105923809Y-112324200D02*
X105885714Y-112286104D01*
X105390476Y-112362295D02*
X105466666Y-112324200D01*
X105466666Y-112324200D02*
X105504761Y-112248009D01*
X105504761Y-112248009D02*
X105504761Y-111562295D01*
X104971428Y-112362295D02*
X105047618Y-112324200D01*
X105047618Y-112324200D02*
X105085713Y-112248009D01*
X105085713Y-112248009D02*
X105085713Y-111562295D01*
X106033369Y-109797876D02*
X106033369Y-110274067D01*
X106366702Y-109274067D02*
X106033369Y-109797876D01*
X106033369Y-109797876D02*
X105700036Y-109274067D01*
X105607203Y-115423892D02*
X106273869Y-114423892D01*
X106273869Y-115423892D02*
X105607203Y-114423892D01*
X109293668Y-119169388D02*
X109388906Y-119121769D01*
X109388906Y-119121769D02*
X109531763Y-119121769D01*
X109531763Y-119121769D02*
X109674620Y-119169388D01*
X109674620Y-119169388D02*
X109769858Y-119264626D01*
X109769858Y-119264626D02*
X109817477Y-119359864D01*
X109817477Y-119359864D02*
X109865096Y-119550340D01*
X109865096Y-119550340D02*
X109865096Y-119693197D01*
X109865096Y-119693197D02*
X109817477Y-119883673D01*
X109817477Y-119883673D02*
X109769858Y-119978911D01*
X109769858Y-119978911D02*
X109674620Y-120074150D01*
X109674620Y-120074150D02*
X109531763Y-120121769D01*
X109531763Y-120121769D02*
X109436525Y-120121769D01*
X109436525Y-120121769D02*
X109293668Y-120074150D01*
X109293668Y-120074150D02*
X109246049Y-120026530D01*
X109246049Y-120026530D02*
X109246049Y-119693197D01*
X109246049Y-119693197D02*
X109436525Y-119693197D01*
X108817477Y-120121769D02*
X108817477Y-119121769D01*
X108817477Y-119121769D02*
X108246049Y-120121769D01*
X108246049Y-120121769D02*
X108246049Y-119121769D01*
X107769858Y-120121769D02*
X107769858Y-119121769D01*
X107769858Y-119121769D02*
X107531763Y-119121769D01*
X107531763Y-119121769D02*
X107388906Y-119169388D01*
X107388906Y-119169388D02*
X107293668Y-119264626D01*
X107293668Y-119264626D02*
X107246049Y-119359864D01*
X107246049Y-119359864D02*
X107198430Y-119550340D01*
X107198430Y-119550340D02*
X107198430Y-119693197D01*
X107198430Y-119693197D02*
X107246049Y-119883673D01*
X107246049Y-119883673D02*
X107293668Y-119978911D01*
X107293668Y-119978911D02*
X107388906Y-120074150D01*
X107388906Y-120074150D02*
X107531763Y-120121769D01*
X107531763Y-120121769D02*
X107769858Y-120121769D01*
X106809523Y-107073866D02*
X106047619Y-107073866D01*
X106428571Y-107454819D02*
X106428571Y-106692914D01*
X105714285Y-106454819D02*
X105380952Y-107454819D01*
X105380952Y-107454819D02*
X105047619Y-106454819D01*
D11*
X147356786Y-91003924D02*
X150484816Y-91003924D01*
X150484816Y-96080000D01*
X147356786Y-96080000D01*
X147356786Y-91003924D01*
G36*
X147356786Y-91003924D02*
G01*
X150484816Y-91003924D01*
X150484816Y-96080000D01*
X147356786Y-96080000D01*
X147356786Y-91003924D01*
G37*
D12*
X143000000Y-57000000D02*
X145000000Y-57000000D01*
X145000000Y-59000000D01*
X143000000Y-59000000D01*
X143000000Y-57000000D01*
G36*
X143000000Y-57000000D02*
G01*
X145000000Y-57000000D01*
X145000000Y-59000000D01*
X143000000Y-59000000D01*
X143000000Y-57000000D01*
G37*
D11*
X144000000Y-97000000D02*
X147331970Y-85892445D01*
X147331970Y-83331068D02*
X150460000Y-83331068D01*
X150460000Y-88350000D01*
X147331970Y-88350000D01*
X147331970Y-83331068D01*
G36*
X147331970Y-83331068D02*
G01*
X150460000Y-83331068D01*
X150460000Y-88350000D01*
X147331970Y-88350000D01*
X147331970Y-83331068D01*
G37*
X147356786Y-93622445D02*
X144000000Y-97000000D01*
D10*
X142912035Y-103231079D02*
X143812035Y-103231079D01*
X143469178Y-103231079D02*
X143512035Y-103145365D01*
X143512035Y-103145365D02*
X143512035Y-102973936D01*
X143512035Y-102973936D02*
X143469178Y-102888222D01*
X143469178Y-102888222D02*
X143426321Y-102845365D01*
X143426321Y-102845365D02*
X143340607Y-102802507D01*
X143340607Y-102802507D02*
X143083464Y-102802507D01*
X143083464Y-102802507D02*
X142997750Y-102845365D01*
X142997750Y-102845365D02*
X142954893Y-102888222D01*
X142954893Y-102888222D02*
X142912035Y-102973936D01*
X142912035Y-102973936D02*
X142912035Y-103145365D01*
X142912035Y-103145365D02*
X142954893Y-103231079D01*
X142912035Y-102416793D02*
X143512035Y-102416793D01*
X143340607Y-102416793D02*
X143426321Y-102373936D01*
X143426321Y-102373936D02*
X143469178Y-102331079D01*
X143469178Y-102331079D02*
X143512035Y-102245364D01*
X143512035Y-102245364D02*
X143512035Y-102159650D01*
X142912035Y-101859650D02*
X143512035Y-101859650D01*
X143812035Y-101859650D02*
X143769178Y-101902507D01*
X143769178Y-101902507D02*
X143726321Y-101859650D01*
X143726321Y-101859650D02*
X143769178Y-101816793D01*
X143769178Y-101816793D02*
X143812035Y-101859650D01*
X143812035Y-101859650D02*
X143726321Y-101859650D01*
X142912035Y-101045365D02*
X143812035Y-101045365D01*
X142954893Y-101045365D02*
X142912035Y-101131079D01*
X142912035Y-101131079D02*
X142912035Y-101302507D01*
X142912035Y-101302507D02*
X142954893Y-101388222D01*
X142954893Y-101388222D02*
X142997750Y-101431079D01*
X142997750Y-101431079D02*
X143083464Y-101473936D01*
X143083464Y-101473936D02*
X143340607Y-101473936D01*
X143340607Y-101473936D02*
X143426321Y-101431079D01*
X143426321Y-101431079D02*
X143469178Y-101388222D01*
X143469178Y-101388222D02*
X143512035Y-101302507D01*
X143512035Y-101302507D02*
X143512035Y-101131079D01*
X143512035Y-101131079D02*
X143469178Y-101045365D01*
X143512035Y-100231079D02*
X142783464Y-100231079D01*
X142783464Y-100231079D02*
X142697750Y-100273936D01*
X142697750Y-100273936D02*
X142654893Y-100316793D01*
X142654893Y-100316793D02*
X142612035Y-100402507D01*
X142612035Y-100402507D02*
X142612035Y-100531079D01*
X142612035Y-100531079D02*
X142654893Y-100616793D01*
X142954893Y-100231079D02*
X142912035Y-100316793D01*
X142912035Y-100316793D02*
X142912035Y-100488221D01*
X142912035Y-100488221D02*
X142954893Y-100573936D01*
X142954893Y-100573936D02*
X142997750Y-100616793D01*
X142997750Y-100616793D02*
X143083464Y-100659650D01*
X143083464Y-100659650D02*
X143340607Y-100659650D01*
X143340607Y-100659650D02*
X143426321Y-100616793D01*
X143426321Y-100616793D02*
X143469178Y-100573936D01*
X143469178Y-100573936D02*
X143512035Y-100488221D01*
X143512035Y-100488221D02*
X143512035Y-100316793D01*
X143512035Y-100316793D02*
X143469178Y-100231079D01*
X142954893Y-99459650D02*
X142912035Y-99545364D01*
X142912035Y-99545364D02*
X142912035Y-99716793D01*
X142912035Y-99716793D02*
X142954893Y-99802507D01*
X142954893Y-99802507D02*
X143040607Y-99845364D01*
X143040607Y-99845364D02*
X143383464Y-99845364D01*
X143383464Y-99845364D02*
X143469178Y-99802507D01*
X143469178Y-99802507D02*
X143512035Y-99716793D01*
X143512035Y-99716793D02*
X143512035Y-99545364D01*
X143512035Y-99545364D02*
X143469178Y-99459650D01*
X143469178Y-99459650D02*
X143383464Y-99416793D01*
X143383464Y-99416793D02*
X143297750Y-99416793D01*
X143297750Y-99416793D02*
X143212035Y-99845364D01*
X143512035Y-98473935D02*
X143512035Y-98131078D01*
X142912035Y-98345364D02*
X143683464Y-98345364D01*
X143683464Y-98345364D02*
X143769178Y-98302507D01*
X143769178Y-98302507D02*
X143812035Y-98216792D01*
X143812035Y-98216792D02*
X143812035Y-98131078D01*
X142912035Y-97702506D02*
X142954893Y-97788221D01*
X142954893Y-97788221D02*
X142997750Y-97831078D01*
X142997750Y-97831078D02*
X143083464Y-97873935D01*
X143083464Y-97873935D02*
X143340607Y-97873935D01*
X143340607Y-97873935D02*
X143426321Y-97831078D01*
X143426321Y-97831078D02*
X143469178Y-97788221D01*
X143469178Y-97788221D02*
X143512035Y-97702506D01*
X143512035Y-97702506D02*
X143512035Y-97573935D01*
X143512035Y-97573935D02*
X143469178Y-97488221D01*
X143469178Y-97488221D02*
X143426321Y-97445364D01*
X143426321Y-97445364D02*
X143340607Y-97402506D01*
X143340607Y-97402506D02*
X143083464Y-97402506D01*
X143083464Y-97402506D02*
X142997750Y-97445364D01*
X142997750Y-97445364D02*
X142954893Y-97488221D01*
X142954893Y-97488221D02*
X142912035Y-97573935D01*
X142912035Y-97573935D02*
X142912035Y-97702506D01*
X142912035Y-97016792D02*
X143512035Y-97016792D01*
X143340607Y-97016792D02*
X143426321Y-96973935D01*
X143426321Y-96973935D02*
X143469178Y-96931078D01*
X143469178Y-96931078D02*
X143512035Y-96845363D01*
X143512035Y-96845363D02*
X143512035Y-96759649D01*
X143512035Y-95388221D02*
X142912035Y-95388221D01*
X143512035Y-95773935D02*
X143040607Y-95773935D01*
X143040607Y-95773935D02*
X142954893Y-95731078D01*
X142954893Y-95731078D02*
X142912035Y-95645363D01*
X142912035Y-95645363D02*
X142912035Y-95516792D01*
X142912035Y-95516792D02*
X142954893Y-95431078D01*
X142954893Y-95431078D02*
X142997750Y-95388221D01*
X142954893Y-95002506D02*
X142912035Y-94916792D01*
X142912035Y-94916792D02*
X142912035Y-94745363D01*
X142912035Y-94745363D02*
X142954893Y-94659649D01*
X142954893Y-94659649D02*
X143040607Y-94616792D01*
X143040607Y-94616792D02*
X143083464Y-94616792D01*
X143083464Y-94616792D02*
X143169178Y-94659649D01*
X143169178Y-94659649D02*
X143212035Y-94745363D01*
X143212035Y-94745363D02*
X143212035Y-94873935D01*
X143212035Y-94873935D02*
X143254893Y-94959649D01*
X143254893Y-94959649D02*
X143340607Y-95002506D01*
X143340607Y-95002506D02*
X143383464Y-95002506D01*
X143383464Y-95002506D02*
X143469178Y-94959649D01*
X143469178Y-94959649D02*
X143512035Y-94873935D01*
X143512035Y-94873935D02*
X143512035Y-94745363D01*
X143512035Y-94745363D02*
X143469178Y-94659649D01*
X142954893Y-93888221D02*
X142912035Y-93973935D01*
X142912035Y-93973935D02*
X142912035Y-94145364D01*
X142912035Y-94145364D02*
X142954893Y-94231078D01*
X142954893Y-94231078D02*
X143040607Y-94273935D01*
X143040607Y-94273935D02*
X143383464Y-94273935D01*
X143383464Y-94273935D02*
X143469178Y-94231078D01*
X143469178Y-94231078D02*
X143512035Y-94145364D01*
X143512035Y-94145364D02*
X143512035Y-93973935D01*
X143512035Y-93973935D02*
X143469178Y-93888221D01*
X143469178Y-93888221D02*
X143383464Y-93845364D01*
X143383464Y-93845364D02*
X143297750Y-93845364D01*
X143297750Y-93845364D02*
X143212035Y-94273935D01*
X143512035Y-92859649D02*
X142912035Y-92688221D01*
X142912035Y-92688221D02*
X143340607Y-92516792D01*
X143340607Y-92516792D02*
X142912035Y-92345363D01*
X142912035Y-92345363D02*
X143512035Y-92173935D01*
X142912035Y-91831078D02*
X143512035Y-91831078D01*
X143812035Y-91831078D02*
X143769178Y-91873935D01*
X143769178Y-91873935D02*
X143726321Y-91831078D01*
X143726321Y-91831078D02*
X143769178Y-91788221D01*
X143769178Y-91788221D02*
X143812035Y-91831078D01*
X143812035Y-91831078D02*
X143726321Y-91831078D01*
X143512035Y-91531078D02*
X143512035Y-91188221D01*
X143812035Y-91402507D02*
X143040607Y-91402507D01*
X143040607Y-91402507D02*
X142954893Y-91359650D01*
X142954893Y-91359650D02*
X142912035Y-91273935D01*
X142912035Y-91273935D02*
X142912035Y-91188221D01*
X142912035Y-90888221D02*
X143812035Y-90888221D01*
X142912035Y-90502507D02*
X143383464Y-90502507D01*
X143383464Y-90502507D02*
X143469178Y-90545364D01*
X143469178Y-90545364D02*
X143512035Y-90631078D01*
X143512035Y-90631078D02*
X143512035Y-90759649D01*
X143512035Y-90759649D02*
X143469178Y-90845364D01*
X143469178Y-90845364D02*
X143426321Y-90888221D01*
X142912035Y-89945363D02*
X142954893Y-90031078D01*
X142954893Y-90031078D02*
X142997750Y-90073935D01*
X142997750Y-90073935D02*
X143083464Y-90116792D01*
X143083464Y-90116792D02*
X143340607Y-90116792D01*
X143340607Y-90116792D02*
X143426321Y-90073935D01*
X143426321Y-90073935D02*
X143469178Y-90031078D01*
X143469178Y-90031078D02*
X143512035Y-89945363D01*
X143512035Y-89945363D02*
X143512035Y-89816792D01*
X143512035Y-89816792D02*
X143469178Y-89731078D01*
X143469178Y-89731078D02*
X143426321Y-89688221D01*
X143426321Y-89688221D02*
X143340607Y-89645363D01*
X143340607Y-89645363D02*
X143083464Y-89645363D01*
X143083464Y-89645363D02*
X142997750Y-89688221D01*
X142997750Y-89688221D02*
X142954893Y-89731078D01*
X142954893Y-89731078D02*
X142912035Y-89816792D01*
X142912035Y-89816792D02*
X142912035Y-89945363D01*
X143512035Y-88873935D02*
X142912035Y-88873935D01*
X143512035Y-89259649D02*
X143040607Y-89259649D01*
X143040607Y-89259649D02*
X142954893Y-89216792D01*
X142954893Y-89216792D02*
X142912035Y-89131077D01*
X142912035Y-89131077D02*
X142912035Y-89002506D01*
X142912035Y-89002506D02*
X142954893Y-88916792D01*
X142954893Y-88916792D02*
X142997750Y-88873935D01*
X143512035Y-88573934D02*
X143512035Y-88231077D01*
X143812035Y-88445363D02*
X143040607Y-88445363D01*
X143040607Y-88445363D02*
X142954893Y-88402506D01*
X142954893Y-88402506D02*
X142912035Y-88316791D01*
X142912035Y-88316791D02*
X142912035Y-88231077D01*
X142063085Y-102009649D02*
X142063085Y-101666792D01*
X141463085Y-101881078D02*
X142234514Y-101881078D01*
X142234514Y-101881078D02*
X142320228Y-101838221D01*
X142320228Y-101838221D02*
X142363085Y-101752506D01*
X142363085Y-101752506D02*
X142363085Y-101666792D01*
X141463085Y-101238220D02*
X141505943Y-101323935D01*
X141505943Y-101323935D02*
X141548800Y-101366792D01*
X141548800Y-101366792D02*
X141634514Y-101409649D01*
X141634514Y-101409649D02*
X141891657Y-101409649D01*
X141891657Y-101409649D02*
X141977371Y-101366792D01*
X141977371Y-101366792D02*
X142020228Y-101323935D01*
X142020228Y-101323935D02*
X142063085Y-101238220D01*
X142063085Y-101238220D02*
X142063085Y-101109649D01*
X142063085Y-101109649D02*
X142020228Y-101023935D01*
X142020228Y-101023935D02*
X141977371Y-100981078D01*
X141977371Y-100981078D02*
X141891657Y-100938220D01*
X141891657Y-100938220D02*
X141634514Y-100938220D01*
X141634514Y-100938220D02*
X141548800Y-100981078D01*
X141548800Y-100981078D02*
X141505943Y-101023935D01*
X141505943Y-101023935D02*
X141463085Y-101109649D01*
X141463085Y-101109649D02*
X141463085Y-101238220D01*
X141463085Y-100423934D02*
X141505943Y-100509649D01*
X141505943Y-100509649D02*
X141548800Y-100552506D01*
X141548800Y-100552506D02*
X141634514Y-100595363D01*
X141634514Y-100595363D02*
X141891657Y-100595363D01*
X141891657Y-100595363D02*
X141977371Y-100552506D01*
X141977371Y-100552506D02*
X142020228Y-100509649D01*
X142020228Y-100509649D02*
X142063085Y-100423934D01*
X142063085Y-100423934D02*
X142063085Y-100295363D01*
X142063085Y-100295363D02*
X142020228Y-100209649D01*
X142020228Y-100209649D02*
X141977371Y-100166792D01*
X141977371Y-100166792D02*
X141891657Y-100123934D01*
X141891657Y-100123934D02*
X141634514Y-100123934D01*
X141634514Y-100123934D02*
X141548800Y-100166792D01*
X141548800Y-100166792D02*
X141505943Y-100209649D01*
X141505943Y-100209649D02*
X141463085Y-100295363D01*
X141463085Y-100295363D02*
X141463085Y-100423934D01*
X142063085Y-99866791D02*
X142063085Y-99523934D01*
X142363085Y-99738220D02*
X141591657Y-99738220D01*
X141591657Y-99738220D02*
X141505943Y-99695363D01*
X141505943Y-99695363D02*
X141463085Y-99609648D01*
X141463085Y-99609648D02*
X141463085Y-99523934D01*
X141505943Y-99266791D02*
X141463085Y-99181077D01*
X141463085Y-99181077D02*
X141463085Y-99009648D01*
X141463085Y-99009648D02*
X141505943Y-98923934D01*
X141505943Y-98923934D02*
X141591657Y-98881077D01*
X141591657Y-98881077D02*
X141634514Y-98881077D01*
X141634514Y-98881077D02*
X141720228Y-98923934D01*
X141720228Y-98923934D02*
X141763085Y-99009648D01*
X141763085Y-99009648D02*
X141763085Y-99138220D01*
X141763085Y-99138220D02*
X141805943Y-99223934D01*
X141805943Y-99223934D02*
X141891657Y-99266791D01*
X141891657Y-99266791D02*
X141934514Y-99266791D01*
X141934514Y-99266791D02*
X142020228Y-99223934D01*
X142020228Y-99223934D02*
X142063085Y-99138220D01*
X142063085Y-99138220D02*
X142063085Y-99009648D01*
X142063085Y-99009648D02*
X142020228Y-98923934D01*
X142063085Y-98581077D02*
X141463085Y-98409649D01*
X141463085Y-98409649D02*
X141891657Y-98238220D01*
X141891657Y-98238220D02*
X141463085Y-98066791D01*
X141463085Y-98066791D02*
X142063085Y-97895363D01*
X141463085Y-97552506D02*
X142063085Y-97552506D01*
X142363085Y-97552506D02*
X142320228Y-97595363D01*
X142320228Y-97595363D02*
X142277371Y-97552506D01*
X142277371Y-97552506D02*
X142320228Y-97509649D01*
X142320228Y-97509649D02*
X142363085Y-97552506D01*
X142363085Y-97552506D02*
X142277371Y-97552506D01*
X142063085Y-97252506D02*
X142063085Y-96909649D01*
X142363085Y-97123935D02*
X141591657Y-97123935D01*
X141591657Y-97123935D02*
X141505943Y-97081078D01*
X141505943Y-97081078D02*
X141463085Y-96995363D01*
X141463085Y-96995363D02*
X141463085Y-96909649D01*
X141505943Y-96223935D02*
X141463085Y-96309649D01*
X141463085Y-96309649D02*
X141463085Y-96481077D01*
X141463085Y-96481077D02*
X141505943Y-96566792D01*
X141505943Y-96566792D02*
X141548800Y-96609649D01*
X141548800Y-96609649D02*
X141634514Y-96652506D01*
X141634514Y-96652506D02*
X141891657Y-96652506D01*
X141891657Y-96652506D02*
X141977371Y-96609649D01*
X141977371Y-96609649D02*
X142020228Y-96566792D01*
X142020228Y-96566792D02*
X142063085Y-96481077D01*
X142063085Y-96481077D02*
X142063085Y-96309649D01*
X142063085Y-96309649D02*
X142020228Y-96223935D01*
X141463085Y-95838220D02*
X142363085Y-95838220D01*
X141463085Y-95452506D02*
X141934514Y-95452506D01*
X141934514Y-95452506D02*
X142020228Y-95495363D01*
X142020228Y-95495363D02*
X142063085Y-95581077D01*
X142063085Y-95581077D02*
X142063085Y-95709648D01*
X142063085Y-95709648D02*
X142020228Y-95795363D01*
X142020228Y-95795363D02*
X141977371Y-95838220D01*
X141505943Y-94381077D02*
X141463085Y-94295363D01*
X141463085Y-94295363D02*
X141463085Y-94123934D01*
X141463085Y-94123934D02*
X141505943Y-94038220D01*
X141505943Y-94038220D02*
X141591657Y-93995363D01*
X141591657Y-93995363D02*
X141634514Y-93995363D01*
X141634514Y-93995363D02*
X141720228Y-94038220D01*
X141720228Y-94038220D02*
X141763085Y-94123934D01*
X141763085Y-94123934D02*
X141763085Y-94252506D01*
X141763085Y-94252506D02*
X141805943Y-94338220D01*
X141805943Y-94338220D02*
X141891657Y-94381077D01*
X141891657Y-94381077D02*
X141934514Y-94381077D01*
X141934514Y-94381077D02*
X142020228Y-94338220D01*
X142020228Y-94338220D02*
X142063085Y-94252506D01*
X142063085Y-94252506D02*
X142063085Y-94123934D01*
X142063085Y-94123934D02*
X142020228Y-94038220D01*
X141463085Y-93481077D02*
X141505943Y-93566792D01*
X141505943Y-93566792D02*
X141548800Y-93609649D01*
X141548800Y-93609649D02*
X141634514Y-93652506D01*
X141634514Y-93652506D02*
X141891657Y-93652506D01*
X141891657Y-93652506D02*
X141977371Y-93609649D01*
X141977371Y-93609649D02*
X142020228Y-93566792D01*
X142020228Y-93566792D02*
X142063085Y-93481077D01*
X142063085Y-93481077D02*
X142063085Y-93352506D01*
X142063085Y-93352506D02*
X142020228Y-93266792D01*
X142020228Y-93266792D02*
X141977371Y-93223935D01*
X141977371Y-93223935D02*
X141891657Y-93181077D01*
X141891657Y-93181077D02*
X141634514Y-93181077D01*
X141634514Y-93181077D02*
X141548800Y-93223935D01*
X141548800Y-93223935D02*
X141505943Y-93266792D01*
X141505943Y-93266792D02*
X141463085Y-93352506D01*
X141463085Y-93352506D02*
X141463085Y-93481077D01*
X141505943Y-92409649D02*
X141463085Y-92495363D01*
X141463085Y-92495363D02*
X141463085Y-92666791D01*
X141463085Y-92666791D02*
X141505943Y-92752506D01*
X141505943Y-92752506D02*
X141548800Y-92795363D01*
X141548800Y-92795363D02*
X141634514Y-92838220D01*
X141634514Y-92838220D02*
X141891657Y-92838220D01*
X141891657Y-92838220D02*
X141977371Y-92795363D01*
X141977371Y-92795363D02*
X142020228Y-92752506D01*
X142020228Y-92752506D02*
X142063085Y-92666791D01*
X142063085Y-92666791D02*
X142063085Y-92495363D01*
X142063085Y-92495363D02*
X142020228Y-92409649D01*
X141463085Y-92023934D02*
X142363085Y-92023934D01*
X141805943Y-91938220D02*
X141463085Y-91681077D01*
X142063085Y-91681077D02*
X141720228Y-92023934D01*
X141505943Y-90952506D02*
X141463085Y-91038220D01*
X141463085Y-91038220D02*
X141463085Y-91209649D01*
X141463085Y-91209649D02*
X141505943Y-91295363D01*
X141505943Y-91295363D02*
X141591657Y-91338220D01*
X141591657Y-91338220D02*
X141934514Y-91338220D01*
X141934514Y-91338220D02*
X142020228Y-91295363D01*
X142020228Y-91295363D02*
X142063085Y-91209649D01*
X142063085Y-91209649D02*
X142063085Y-91038220D01*
X142063085Y-91038220D02*
X142020228Y-90952506D01*
X142020228Y-90952506D02*
X141934514Y-90909649D01*
X141934514Y-90909649D02*
X141848800Y-90909649D01*
X141848800Y-90909649D02*
X141763085Y-91338220D01*
X142063085Y-90652505D02*
X142063085Y-90309648D01*
X142363085Y-90523934D02*
X141591657Y-90523934D01*
X141591657Y-90523934D02*
X141505943Y-90481077D01*
X141505943Y-90481077D02*
X141463085Y-90395362D01*
X141463085Y-90395362D02*
X141463085Y-90309648D01*
X141505943Y-90052505D02*
X141463085Y-89966791D01*
X141463085Y-89966791D02*
X141463085Y-89795362D01*
X141463085Y-89795362D02*
X141505943Y-89709648D01*
X141505943Y-89709648D02*
X141591657Y-89666791D01*
X141591657Y-89666791D02*
X141634514Y-89666791D01*
X141634514Y-89666791D02*
X141720228Y-89709648D01*
X141720228Y-89709648D02*
X141763085Y-89795362D01*
X141763085Y-89795362D02*
X141763085Y-89923934D01*
X141763085Y-89923934D02*
X141805943Y-90009648D01*
X141805943Y-90009648D02*
X141891657Y-90052505D01*
X141891657Y-90052505D02*
X141934514Y-90052505D01*
X141934514Y-90052505D02*
X142020228Y-90009648D01*
X142020228Y-90009648D02*
X142063085Y-89923934D01*
X142063085Y-89923934D02*
X142063085Y-89795362D01*
X142063085Y-89795362D02*
X142020228Y-89709648D01*
X108809523Y-97073866D02*
X108047619Y-97073866D01*
X108428571Y-97454819D02*
X108428571Y-96692914D01*
X107714285Y-96454819D02*
X107380952Y-97454819D01*
X107380952Y-97454819D02*
X107047619Y-96454819D01*
X108380951Y-102031102D02*
X107619047Y-102031102D01*
X126380951Y-131073866D02*
X125619047Y-131073866D01*
X134380951Y-131073866D02*
X133619047Y-131073866D01*
X145380951Y-131073866D02*
X144619047Y-131073866D01*
X153380951Y-131073866D02*
X152619047Y-131073866D01*
X164839812Y-56880500D02*
X164077908Y-56880500D01*
X164458860Y-57261453D02*
X164458860Y-56499548D01*
X163744574Y-56261453D02*
X163411241Y-57261453D01*
X163411241Y-57261453D02*
X163077908Y-56261453D01*
X162744574Y-57261453D02*
X162744574Y-56594786D01*
X162744574Y-56261453D02*
X162792193Y-56309072D01*
X162792193Y-56309072D02*
X162744574Y-56356691D01*
X162744574Y-56356691D02*
X162696955Y-56309072D01*
X162696955Y-56309072D02*
X162744574Y-56261453D01*
X162744574Y-56261453D02*
X162744574Y-56356691D01*
X162268384Y-56594786D02*
X162268384Y-57261453D01*
X162268384Y-56690024D02*
X162220765Y-56642405D01*
X162220765Y-56642405D02*
X162125527Y-56594786D01*
X162125527Y-56594786D02*
X161982670Y-56594786D01*
X161982670Y-56594786D02*
X161887432Y-56642405D01*
X161887432Y-56642405D02*
X161839813Y-56737643D01*
X161839813Y-56737643D02*
X161839813Y-57261453D01*
X109880380Y-94227318D02*
X110880380Y-94893984D01*
X109880380Y-94893984D02*
X110880380Y-94227318D01*
X115347545Y-94598333D02*
X115823736Y-94598333D01*
X114823736Y-94265000D02*
X115347545Y-94598333D01*
X115347545Y-94598333D02*
X114823736Y-94931666D01*
X113465969Y-95198634D02*
X112465969Y-95198634D01*
X113418350Y-95198634D02*
X113465969Y-95103396D01*
X113465969Y-95103396D02*
X113465969Y-94912920D01*
X113465969Y-94912920D02*
X113418350Y-94817682D01*
X113418350Y-94817682D02*
X113370731Y-94770063D01*
X113370731Y-94770063D02*
X113275493Y-94722444D01*
X113275493Y-94722444D02*
X112989779Y-94722444D01*
X112989779Y-94722444D02*
X112894541Y-94770063D01*
X112894541Y-94770063D02*
X112846922Y-94817682D01*
X112846922Y-94817682D02*
X112799302Y-94912920D01*
X112799302Y-94912920D02*
X112799302Y-95103396D01*
X112799302Y-95103396D02*
X112846922Y-95198634D01*
X113465969Y-93865301D02*
X112799302Y-93865301D01*
X113465969Y-94293872D02*
X112942160Y-94293872D01*
X112942160Y-94293872D02*
X112846922Y-94246253D01*
X112846922Y-94246253D02*
X112799302Y-94151015D01*
X112799302Y-94151015D02*
X112799302Y-94008158D01*
X112799302Y-94008158D02*
X112846922Y-93912920D01*
X112846922Y-93912920D02*
X112894541Y-93865301D01*
X112799302Y-93246253D02*
X112846922Y-93341491D01*
X112846922Y-93341491D02*
X112942160Y-93389110D01*
X112942160Y-93389110D02*
X113799302Y-93389110D01*
X112799302Y-92722443D02*
X112846922Y-92817681D01*
X112846922Y-92817681D02*
X112942160Y-92865300D01*
X112942160Y-92865300D02*
X113799302Y-92865300D01*
G36*
X161300000Y-76673499D02*
G01*
X161206210Y-76673499D01*
X161194134Y-76569042D01*
X161170429Y-76479570D01*
X161144537Y-76427527D01*
X161116435Y-76401527D01*
X161085066Y-76393475D01*
X161024494Y-76400314D01*
X160928018Y-76424860D01*
X160795882Y-76467969D01*
X160627843Y-76530129D01*
X160627843Y-77209124D01*
X161065771Y-77370324D01*
X161097522Y-77378506D01*
X161127686Y-77381193D01*
X161152212Y-77367906D01*
X161178733Y-77310851D01*
X161195232Y-77235831D01*
X161206210Y-77134019D01*
X161300000Y-77134019D01*
X161300000Y-77941364D01*
X161206210Y-77941364D01*
X161191800Y-77856612D01*
X161159560Y-77774668D01*
X161126486Y-77731983D01*
X161095202Y-77702250D01*
X161058869Y-77678660D01*
X161008740Y-77655844D01*
X159330425Y-77009699D01*
X159330425Y-76900401D01*
X159418872Y-76866207D01*
X159751866Y-76866207D01*
X160502791Y-77159909D01*
X160502791Y-76577878D01*
X159751866Y-76866207D01*
X159418872Y-76866207D01*
X160143510Y-76586060D01*
X160966242Y-76263660D01*
X161032934Y-76232983D01*
X161077983Y-76204919D01*
X161116209Y-76170201D01*
X161155530Y-76120167D01*
X161174489Y-76083013D01*
X161190457Y-76032728D01*
X161206210Y-75943946D01*
X161300000Y-75943946D01*
X161300000Y-76673499D01*
G37*
G36*
X161276552Y-79420254D02*
G01*
X161307815Y-78981716D01*
X161288642Y-78961200D01*
X161117916Y-78961200D01*
X161117916Y-78953018D01*
X161190945Y-78879134D01*
X161261287Y-78784979D01*
X161318562Y-78666032D01*
X161333178Y-78602590D01*
X161339078Y-78503489D01*
X161325082Y-78389764D01*
X161285995Y-78300884D01*
X161222452Y-78230914D01*
X161139495Y-78181691D01*
X161029166Y-78149358D01*
X160883565Y-78137369D01*
X160239741Y-78137369D01*
X160193240Y-78132459D01*
X160157187Y-78118928D01*
X160126395Y-78096622D01*
X160099180Y-78064951D01*
X160075366Y-78003524D01*
X160065108Y-77925610D01*
X159971318Y-77925610D01*
X159940055Y-78375017D01*
X159959228Y-78395533D01*
X160896388Y-78395533D01*
X160991960Y-78403944D01*
X161063533Y-78426576D01*
X161116695Y-78461113D01*
X161158399Y-78508705D01*
X161182478Y-78560426D01*
X161190579Y-78618161D01*
X161184521Y-78690733D01*
X161167376Y-78752128D01*
X161141338Y-78807489D01*
X161112787Y-78850436D01*
X161052215Y-78915282D01*
X160992742Y-78958391D01*
X160230216Y-78958391D01*
X160187094Y-78953447D01*
X160150348Y-78939218D01*
X160118323Y-78916573D01*
X160090997Y-78885973D01*
X160078543Y-78857824D01*
X160071214Y-78812822D01*
X160065108Y-78704256D01*
X159971318Y-78704256D01*
X159940055Y-79193353D01*
X159959106Y-79213869D01*
X161022540Y-79213869D01*
X161066309Y-79218876D01*
X161101308Y-79232920D01*
X161131236Y-79255564D01*
X161156995Y-79286287D01*
X161176657Y-79345027D01*
X161182763Y-79420254D01*
X161276552Y-79420254D01*
G37*
G36*
X161638053Y-79554935D02*
G01*
X161707867Y-79582935D01*
X161767767Y-79629325D01*
X161819260Y-79696859D01*
X161865572Y-79802458D01*
X161897469Y-79950811D01*
X161909630Y-80154570D01*
X161899805Y-80333865D01*
X161873726Y-80468667D01*
X161829649Y-80589137D01*
X161773098Y-80687386D01*
X161703027Y-80763299D01*
X161623499Y-80815736D01*
X161534688Y-80847468D01*
X161439584Y-80858112D01*
X161346540Y-80849632D01*
X161275575Y-80826605D01*
X161213067Y-80789587D01*
X161156995Y-80740631D01*
X161113819Y-80685649D01*
X161081158Y-80625104D01*
X161059576Y-80561033D01*
X161050750Y-80498831D01*
X161042568Y-80350575D01*
X161034263Y-80185956D01*
X161030233Y-80077267D01*
X161027272Y-80057484D01*
X161276552Y-80057484D01*
X161283513Y-80333478D01*
X161295969Y-80490526D01*
X161322878Y-80555085D01*
X161363991Y-80598482D01*
X161418943Y-80624588D01*
X161491608Y-80634019D01*
X161591915Y-80620317D01*
X161669374Y-80581908D01*
X161729623Y-80518492D01*
X161771065Y-80437769D01*
X161798111Y-80334311D01*
X161808025Y-80202320D01*
X161801779Y-80090839D01*
X161785066Y-80005582D01*
X161757625Y-79930375D01*
X161726203Y-79877233D01*
X161685656Y-79833053D01*
X161644260Y-79806158D01*
X161598833Y-79790764D01*
X161551325Y-79785642D01*
X161481582Y-79792991D01*
X161423424Y-79813863D01*
X161374371Y-79847801D01*
X161336050Y-79893855D01*
X161302964Y-79961565D01*
X161276552Y-80057484D01*
X161027272Y-80057484D01*
X161016434Y-79985066D01*
X161002356Y-79946912D01*
X160980041Y-79915457D01*
X160948497Y-79894426D01*
X160902372Y-79886758D01*
X160857544Y-79895508D01*
X160824092Y-79920830D01*
X160784159Y-79986409D01*
X160784159Y-80151762D01*
X160770445Y-80274817D01*
X160730166Y-80385563D01*
X160662404Y-80487107D01*
X160596335Y-80551595D01*
X160525620Y-80595941D01*
X160449013Y-80622350D01*
X160364549Y-80631332D01*
X160298656Y-80625314D01*
X160229849Y-80606664D01*
X160164396Y-80575799D01*
X160104309Y-80531559D01*
X160096371Y-80531559D01*
X160096371Y-80848586D01*
X159963503Y-80848586D01*
X159963503Y-80378541D01*
X159929797Y-80254832D01*
X159916608Y-80132588D01*
X159917219Y-80124406D01*
X160018213Y-80124406D01*
X160028792Y-80197954D01*
X160059133Y-80257576D01*
X160110415Y-80306734D01*
X160174942Y-80341317D01*
X160255998Y-80363607D01*
X160357711Y-80371702D01*
X160449528Y-80364040D01*
X160526168Y-80342476D01*
X160590474Y-80308199D01*
X160641638Y-80259855D01*
X160671956Y-80200714D01*
X160682554Y-80127215D01*
X160672357Y-80061712D01*
X160642245Y-80005387D01*
X160589741Y-79955635D01*
X160524774Y-79920050D01*
X160445894Y-79897511D01*
X160349773Y-79889445D01*
X160223133Y-79901046D01*
X160164628Y-79917066D01*
X160117620Y-79940003D01*
X160075092Y-79973223D01*
X160044103Y-80014375D01*
X160025016Y-80063397D01*
X160018213Y-80124406D01*
X159917219Y-80124406D01*
X159924855Y-80022169D01*
X159948425Y-79925941D01*
X159986300Y-79841562D01*
X160038485Y-79767201D01*
X160104285Y-79704215D01*
X160176978Y-79660226D01*
X160258050Y-79633612D01*
X160349773Y-79624441D01*
X160431184Y-79632681D01*
X160504323Y-79656763D01*
X160571057Y-79696859D01*
X160629169Y-79749869D01*
X160681282Y-79817014D01*
X160727372Y-79900436D01*
X160748011Y-79900436D01*
X160798659Y-79806195D01*
X160853157Y-79745219D01*
X160917918Y-79706551D01*
X160987002Y-79694050D01*
X161041575Y-79699870D01*
X161083845Y-79715910D01*
X161120270Y-79741114D01*
X161151744Y-79773307D01*
X161195097Y-79848412D01*
X161225994Y-79933164D01*
X161245167Y-79933164D01*
X161258871Y-79822902D01*
X161288671Y-79731131D01*
X161333339Y-79654483D01*
X161394329Y-79593636D01*
X161467037Y-79557670D01*
X161555355Y-79545184D01*
X161638053Y-79554935D01*
G37*
G36*
X161276552Y-82454727D02*
G01*
X161307815Y-82016189D01*
X161288642Y-81995673D01*
X161117916Y-81995673D01*
X161117916Y-81987491D01*
X161190945Y-81913607D01*
X161261287Y-81819452D01*
X161318562Y-81700505D01*
X161333178Y-81637063D01*
X161339078Y-81537962D01*
X161325082Y-81424237D01*
X161285995Y-81335357D01*
X161222452Y-81265387D01*
X161139495Y-81216164D01*
X161029166Y-81183831D01*
X160883565Y-81171842D01*
X160239741Y-81171842D01*
X160193240Y-81166932D01*
X160157187Y-81153401D01*
X160126395Y-81131096D01*
X160099180Y-81099424D01*
X160075366Y-81037997D01*
X160065108Y-80960083D01*
X159971318Y-80960083D01*
X159940055Y-81409490D01*
X159959228Y-81430006D01*
X160896388Y-81430006D01*
X160991960Y-81438417D01*
X161063533Y-81461049D01*
X161116695Y-81495586D01*
X161158399Y-81543178D01*
X161182478Y-81594899D01*
X161190579Y-81652634D01*
X161184521Y-81725206D01*
X161167376Y-81786601D01*
X161141338Y-81841962D01*
X161112787Y-81884909D01*
X161052215Y-81949755D01*
X160992742Y-81992864D01*
X160230216Y-81992864D01*
X160187094Y-81987920D01*
X160150348Y-81973691D01*
X160118323Y-81951047D01*
X160090997Y-81920446D01*
X160078543Y-81892297D01*
X160071214Y-81847295D01*
X160065108Y-81738729D01*
X159971318Y-81738729D01*
X159940055Y-82227826D01*
X159959106Y-82248342D01*
X161022540Y-82248342D01*
X161066309Y-82253350D01*
X161101308Y-82267393D01*
X161131236Y-82290038D01*
X161156995Y-82320760D01*
X161176657Y-82379501D01*
X161182763Y-82454727D01*
X161276552Y-82454727D01*
G37*
G36*
X160642864Y-83510101D02*
G01*
X160696204Y-83559908D01*
X160756437Y-83596196D01*
X160825140Y-83618194D01*
X160913729Y-83626238D01*
X161004456Y-83617209D01*
X161084376Y-83591047D01*
X161155771Y-83547879D01*
X161220132Y-83486165D01*
X161284706Y-83386818D01*
X161324848Y-83267648D01*
X161339078Y-83123464D01*
X161328288Y-83009439D01*
X161296824Y-82906943D01*
X161252810Y-82816074D01*
X161218911Y-82765526D01*
X161307815Y-82738171D01*
X161307815Y-82635711D01*
X160838869Y-82622034D01*
X160838869Y-82716311D01*
X160893977Y-82732197D01*
X160964410Y-82762718D01*
X161032958Y-82802218D01*
X161093981Y-82848813D01*
X161149517Y-82906952D01*
X161196074Y-82976552D01*
X161226901Y-83054761D01*
X161237473Y-83143981D01*
X161229864Y-83229471D01*
X161209116Y-83295401D01*
X161177023Y-83346092D01*
X161132267Y-83384755D01*
X161075788Y-83408622D01*
X161003977Y-83417166D01*
X160949307Y-83411245D01*
X160904815Y-83394574D01*
X160866217Y-83367308D01*
X160831664Y-83328384D01*
X160802630Y-83279969D01*
X160774877Y-83217742D01*
X160724930Y-83071563D01*
X160672295Y-82928681D01*
X160635046Y-82854344D01*
X160593649Y-82794225D01*
X160540550Y-82739713D01*
X160476046Y-82695795D01*
X160401909Y-82667542D01*
X160311915Y-82657571D01*
X160206885Y-82671327D01*
X160114563Y-82711725D01*
X160031524Y-82780547D01*
X159969210Y-82868809D01*
X159930429Y-82976741D01*
X159916608Y-83109787D01*
X159921648Y-83189188D01*
X159937124Y-83271720D01*
X159960776Y-83349910D01*
X159986217Y-83406297D01*
X159916608Y-83437683D01*
X159916608Y-83535990D01*
X160346475Y-83556507D01*
X160346475Y-83462229D01*
X160253482Y-83434938D01*
X160175290Y-83393695D01*
X160109560Y-83338520D01*
X160058846Y-83270681D01*
X160028603Y-83194401D01*
X160018213Y-83106978D01*
X160025224Y-83034389D01*
X160044658Y-82976722D01*
X160075366Y-82930757D01*
X160116855Y-82894576D01*
X160162294Y-82873601D01*
X160213363Y-82866521D01*
X160271678Y-82872201D01*
X160315945Y-82887648D01*
X160353453Y-82913777D01*
X160385676Y-82951273D01*
X160436967Y-83054344D01*
X160491067Y-83208094D01*
X160558112Y-83378210D01*
X160599738Y-83453231D01*
X160642864Y-83510101D01*
G37*
G36*
X161243579Y-84662194D02*
G01*
X161305861Y-84494155D01*
X161324363Y-84410108D01*
X161331263Y-84300104D01*
X161320051Y-84190656D01*
X161290504Y-84114148D01*
X161245655Y-84061723D01*
X161184839Y-84025153D01*
X161105913Y-84001431D01*
X161003855Y-83992725D01*
X160088555Y-83992725D01*
X160088555Y-83749459D01*
X159955687Y-83749459D01*
X159955687Y-83998220D01*
X159533635Y-83998220D01*
X159533635Y-84246859D01*
X159955687Y-84246859D01*
X159955687Y-84633496D01*
X160088555Y-84633496D01*
X160088555Y-84249546D01*
X160844609Y-84249546D01*
X160986758Y-84255652D01*
X161041103Y-84266434D01*
X161086165Y-84285083D01*
X161120946Y-84312151D01*
X161146615Y-84350662D01*
X161161412Y-84398628D01*
X161167131Y-84468143D01*
X161160537Y-84568527D01*
X161143684Y-84662194D01*
X161243579Y-84662194D01*
G37*
G36*
X161300000Y-86801517D02*
G01*
X161300000Y-85521441D01*
X161113886Y-85521441D01*
X161018265Y-85623900D01*
X160903349Y-85779605D01*
X160822138Y-85910764D01*
X160725785Y-86084298D01*
X160623935Y-86250261D01*
X160575361Y-86305170D01*
X160515247Y-86356140D01*
X160468754Y-86383789D01*
X160408513Y-86406699D01*
X160337681Y-86420334D01*
X160226186Y-86425872D01*
X160115346Y-86414262D01*
X160033609Y-86382936D01*
X159973761Y-86334281D01*
X159929810Y-86269183D01*
X159902712Y-86191947D01*
X159893161Y-86099319D01*
X159901915Y-86012660D01*
X159927965Y-85931280D01*
X159970457Y-85860680D01*
X160024197Y-85812456D01*
X160128000Y-85836270D01*
X160245359Y-85850680D01*
X160293587Y-85840261D01*
X160337561Y-85807571D01*
X160366706Y-85757214D01*
X160377739Y-85679954D01*
X160365585Y-85618490D01*
X160330844Y-85574685D01*
X160278215Y-85547704D01*
X160205059Y-85537805D01*
X160132812Y-85547675D01*
X160057658Y-85578715D01*
X159987745Y-85627506D01*
X159921004Y-85696318D01*
X159866806Y-85778101D01*
X159821842Y-85882065D01*
X159793479Y-85995890D01*
X159783740Y-86121179D01*
X159792655Y-86262220D01*
X159817667Y-86381116D01*
X159856877Y-86481386D01*
X159909403Y-86565945D01*
X159978237Y-86638623D01*
X160055747Y-86689251D01*
X160143703Y-86719936D01*
X160244993Y-86730565D01*
X160342334Y-86722957D01*
X160427686Y-86701133D01*
X160504838Y-86662995D01*
X160573133Y-86606245D01*
X160637562Y-86528505D01*
X160693300Y-86436741D01*
X160832519Y-86140352D01*
X160944504Y-85918946D01*
X161004319Y-85822176D01*
X161057711Y-85750907D01*
X161057711Y-86801517D01*
X161300000Y-86801517D01*
G37*
G36*
X160727268Y-87086309D02*
G01*
X160874651Y-87119277D01*
X161010261Y-87175750D01*
X161125610Y-87253977D01*
X161188471Y-87315945D01*
X161242490Y-87390087D01*
X161287787Y-87477948D01*
X161319961Y-87571674D01*
X161339951Y-87675865D01*
X161346894Y-87792166D01*
X161333758Y-87948430D01*
X161296092Y-88084647D01*
X161232666Y-88207125D01*
X161144783Y-88311427D01*
X161037005Y-88392944D01*
X160899441Y-88457484D01*
X160745423Y-88496922D01*
X160564584Y-88510851D01*
X160411724Y-88499959D01*
X160266974Y-88467742D01*
X160132603Y-88413011D01*
X160018824Y-88337316D01*
X159951926Y-88273602D01*
X159894765Y-88199706D01*
X159846999Y-88114567D01*
X159812927Y-88023230D01*
X159791365Y-87917124D01*
X159783823Y-87794975D01*
X159877529Y-87794975D01*
X159888697Y-87885289D01*
X159921292Y-87964149D01*
X159976273Y-88034449D01*
X160057536Y-88097592D01*
X160148058Y-88142909D01*
X160259869Y-88177834D01*
X160397124Y-88200682D01*
X160564584Y-88208967D01*
X160769650Y-88195378D01*
X160933633Y-88158114D01*
X161064183Y-88101011D01*
X161149271Y-88038959D01*
X161206916Y-87968138D01*
X161241256Y-87887025D01*
X161253105Y-87792288D01*
X161241243Y-87697495D01*
X161206888Y-87616480D01*
X161149247Y-87545884D01*
X161064183Y-87484176D01*
X160933685Y-87427477D01*
X160769701Y-87390457D01*
X160564584Y-87376953D01*
X160397164Y-87385280D01*
X160259921Y-87408244D01*
X160148097Y-87443358D01*
X160057536Y-87488939D01*
X159976446Y-87552421D01*
X159921440Y-87623371D01*
X159888750Y-87703239D01*
X159877529Y-87794975D01*
X159783823Y-87794975D01*
X159783740Y-87793632D01*
X159791016Y-87676470D01*
X159811953Y-87571828D01*
X159845655Y-87477948D01*
X159892748Y-87390235D01*
X159949010Y-87315548D01*
X160014672Y-87252512D01*
X160132581Y-87173132D01*
X160263555Y-87117934D01*
X160405206Y-87086034D01*
X160564584Y-87074947D01*
X160727268Y-87086309D01*
G37*
G36*
X161300000Y-90082187D02*
G01*
X161300000Y-88802110D01*
X161113886Y-88802110D01*
X161018265Y-88904570D01*
X160903349Y-89060275D01*
X160822138Y-89191434D01*
X160725785Y-89364968D01*
X160623935Y-89530931D01*
X160575361Y-89585840D01*
X160515247Y-89636810D01*
X160468754Y-89664459D01*
X160408513Y-89687369D01*
X160337681Y-89701004D01*
X160226186Y-89706542D01*
X160115346Y-89694932D01*
X160033609Y-89663606D01*
X159973761Y-89614951D01*
X159929810Y-89549853D01*
X159902712Y-89472617D01*
X159893161Y-89379989D01*
X159901915Y-89293330D01*
X159927965Y-89211950D01*
X159970457Y-89141350D01*
X160024197Y-89093126D01*
X160128000Y-89116939D01*
X160245359Y-89131350D01*
X160293587Y-89120931D01*
X160337561Y-89088241D01*
X160366706Y-89037884D01*
X160377739Y-88960624D01*
X160365585Y-88899160D01*
X160330844Y-88855355D01*
X160278215Y-88828374D01*
X160205059Y-88818475D01*
X160132812Y-88828345D01*
X160057658Y-88859385D01*
X159987745Y-88908176D01*
X159921004Y-88976988D01*
X159866806Y-89058771D01*
X159821842Y-89162735D01*
X159793479Y-89276560D01*
X159783740Y-89401849D01*
X159792655Y-89542890D01*
X159817667Y-89661786D01*
X159856877Y-89762056D01*
X159909403Y-89846615D01*
X159978237Y-89919293D01*
X160055747Y-89969921D01*
X160143703Y-90000606D01*
X160244993Y-90011235D01*
X160342334Y-90003627D01*
X160427686Y-89981803D01*
X160504838Y-89943665D01*
X160573133Y-89886915D01*
X160637562Y-89809175D01*
X160693300Y-89717411D01*
X160832519Y-89421022D01*
X160944504Y-89199616D01*
X161004319Y-89102846D01*
X161057711Y-89031577D01*
X161057711Y-90082187D01*
X161300000Y-90082187D01*
G37*
G36*
X160721797Y-90368076D02*
G01*
X160877826Y-90403367D01*
X161019025Y-90462401D01*
X161132205Y-90538677D01*
X161223067Y-90633877D01*
X161290840Y-90747749D01*
X161332479Y-90875948D01*
X161346894Y-91022400D01*
X161334931Y-91151130D01*
X161299145Y-91274459D01*
X161239177Y-91388986D01*
X161151866Y-91495132D01*
X161056627Y-91571730D01*
X160940596Y-91632397D01*
X160812870Y-91670697D01*
X160674616Y-91683688D01*
X160546646Y-91673034D01*
X160433116Y-91642264D01*
X160331421Y-91592087D01*
X160239619Y-91521755D01*
X160162045Y-91435020D01*
X160108262Y-91342274D01*
X160076071Y-91241943D01*
X160065108Y-91131699D01*
X160075281Y-91012875D01*
X160221423Y-91012875D01*
X160230063Y-91095207D01*
X160254996Y-91166640D01*
X160296121Y-91229532D01*
X160355146Y-91285327D01*
X160449270Y-91339944D01*
X160565576Y-91374673D01*
X160709665Y-91387177D01*
X160870742Y-91374613D01*
X160997264Y-91340263D01*
X161096301Y-91287404D01*
X161159476Y-91232091D01*
X161202751Y-91170933D01*
X161228603Y-91102679D01*
X161237473Y-91025087D01*
X161226699Y-90945639D01*
X161194789Y-90874738D01*
X161139839Y-90809822D01*
X161056856Y-90749825D01*
X160966279Y-90707227D01*
X160855376Y-90674430D01*
X160720349Y-90653028D01*
X160556891Y-90645289D01*
X160463468Y-90647976D01*
X160387752Y-90652128D01*
X160308793Y-90738178D01*
X160259647Y-90822121D01*
X160231132Y-90913136D01*
X160221423Y-91012875D01*
X160075281Y-91012875D01*
X160075767Y-91007196D01*
X160107362Y-90889898D01*
X160162407Y-90778037D01*
X160251953Y-90657623D01*
X160065013Y-90703490D01*
X159902291Y-90773557D01*
X159760293Y-90867306D01*
X159668182Y-90953832D01*
X159587750Y-91057574D01*
X159518774Y-91180605D01*
X159461706Y-91325628D01*
X159439846Y-91448604D01*
X159314794Y-91424057D01*
X159353869Y-91231196D01*
X159413930Y-91059349D01*
X159494203Y-90905838D01*
X159594844Y-90768525D01*
X159716939Y-90645900D01*
X159855691Y-90542267D01*
X160005565Y-90461824D01*
X160168145Y-90403683D01*
X160345488Y-90367928D01*
X160540038Y-90355617D01*
X160721797Y-90368076D01*
G37*
G36*
X159221004Y-93660345D02*
G01*
X161878367Y-92716224D01*
X161878367Y-92538660D01*
X159221004Y-93479972D01*
X159221004Y-93660345D01*
G37*
G36*
X159455478Y-96252128D02*
G01*
X159474040Y-96178367D01*
X159507623Y-96105949D01*
X159558304Y-96033531D01*
X159651482Y-95959769D01*
X159803894Y-95856923D01*
X159957274Y-95763032D01*
X160350750Y-95537595D01*
X160435199Y-95493092D01*
X160491922Y-95470673D01*
X160551436Y-95459060D01*
X160646772Y-95454309D01*
X161018387Y-95454309D01*
X161065427Y-95459474D01*
X161104117Y-95474092D01*
X161135903Y-95499850D01*
X161162369Y-95541748D01*
X161189113Y-95644207D01*
X161206210Y-95763032D01*
X161300000Y-95763032D01*
X161300000Y-94855914D01*
X161206210Y-94855914D01*
X161195952Y-94970586D01*
X161176046Y-95077198D01*
X161150703Y-95119956D01*
X161119870Y-95144853D01*
X161081554Y-95158369D01*
X161032065Y-95163293D01*
X160559089Y-95163293D01*
X160478855Y-95136671D01*
X160349284Y-95073168D01*
X160005268Y-94891451D01*
X159688485Y-94717916D01*
X159570638Y-94637927D01*
X159500662Y-94558060D01*
X159469155Y-94479535D01*
X159455478Y-94396859D01*
X159361688Y-94396859D01*
X159361688Y-95223377D01*
X159455478Y-95223377D01*
X159462769Y-95094306D01*
X159474773Y-95026639D01*
X159497102Y-94980941D01*
X159521545Y-94969364D01*
X159550366Y-94977547D01*
X159602512Y-95000750D01*
X159683967Y-95043004D01*
X159772260Y-95089532D01*
X160015404Y-95220690D01*
X160330966Y-95395568D01*
X159790334Y-95722732D01*
X159612299Y-95818009D01*
X159558060Y-95835450D01*
X159529588Y-95829585D01*
X159507501Y-95812247D01*
X159477337Y-95750819D01*
X159463049Y-95664602D01*
X159455478Y-95578628D01*
X159361688Y-95578628D01*
X159361688Y-96252128D01*
X159455478Y-96252128D01*
G37*
G36*
X161097977Y-96299077D02*
G01*
X161178149Y-96331654D01*
X161245778Y-96385362D01*
X161297012Y-96455381D01*
X161328181Y-96537367D01*
X161339078Y-96634734D01*
X161325218Y-96771299D01*
X161286688Y-96879954D01*
X161224082Y-96976818D01*
X161135868Y-97070586D01*
X161135868Y-97078768D01*
X161221801Y-97108900D01*
X161281437Y-97159979D01*
X161317901Y-97231298D01*
X161331263Y-97330094D01*
X161327665Y-97389790D01*
X161317585Y-97440125D01*
X161281803Y-97552843D01*
X161198394Y-97552843D01*
X161197051Y-97461985D01*
X161192280Y-97420873D01*
X161183251Y-97397016D01*
X161158229Y-97363078D01*
X161129640Y-97340352D01*
X161094630Y-97326994D01*
X161044399Y-97321912D01*
X160712229Y-97325942D01*
X160363572Y-97330094D01*
X160233097Y-97320110D01*
X160138747Y-97293824D01*
X160059745Y-97248709D01*
X160000505Y-97188066D01*
X159957350Y-97114390D01*
X159945613Y-97075959D01*
X160557501Y-97075959D01*
X161031332Y-97067777D01*
X161091079Y-97011928D01*
X161143196Y-96943457D01*
X161178433Y-96864967D01*
X161190579Y-96772732D01*
X161176737Y-96687859D01*
X161137090Y-96621667D01*
X161097376Y-96590192D01*
X161043115Y-96569860D01*
X160969539Y-96562316D01*
X160886130Y-96572603D01*
X160817742Y-96601884D01*
X160758821Y-96648090D01*
X160707222Y-96709839D01*
X160662075Y-96787652D01*
X160624790Y-96872383D01*
X160557501Y-97075959D01*
X159945613Y-97075959D01*
X159932484Y-97032972D01*
X159920876Y-96943940D01*
X159916608Y-96832815D01*
X159923086Y-96749351D01*
X159943108Y-96661967D01*
X159973498Y-96578765D01*
X160007711Y-96513101D01*
X160056559Y-96447614D01*
X160109682Y-96397575D01*
X160169182Y-96363925D01*
X160229239Y-96353244D01*
X160286393Y-96361338D01*
X160337316Y-96385362D01*
X160372953Y-96425406D01*
X160385554Y-96485746D01*
X160375068Y-96556063D01*
X160346475Y-96605303D01*
X160304067Y-96638220D01*
X160260013Y-96648412D01*
X160162805Y-96635345D01*
X160083060Y-96622400D01*
X160062378Y-96649306D01*
X160039218Y-96698237D01*
X160023568Y-96753841D01*
X160018213Y-96814986D01*
X160028526Y-96899690D01*
X160055582Y-96956402D01*
X160096528Y-97001109D01*
X160143021Y-97033705D01*
X160189223Y-97053991D01*
X160238032Y-97065701D01*
X160305931Y-97073272D01*
X160440265Y-97073272D01*
X160477043Y-96991676D01*
X160539061Y-96819748D01*
X160625523Y-96570498D01*
X160676936Y-96465230D01*
X160712276Y-96413668D01*
X160750331Y-96375104D01*
X160802921Y-96336822D01*
X160861584Y-96309525D01*
X160925828Y-96293380D01*
X161001535Y-96287665D01*
X161097977Y-96299077D01*
G37*
G36*
X161300000Y-99175348D02*
G01*
X161300000Y-98515404D01*
X161206210Y-98515404D01*
X161200837Y-98584281D01*
X161189846Y-98646563D01*
X161172731Y-98680266D01*
X161147103Y-98703227D01*
X161113496Y-98716678D01*
X161067602Y-98721667D01*
X160378471Y-98721667D01*
X160285570Y-98713186D01*
X160213730Y-98690008D01*
X160158286Y-98654012D01*
X160114625Y-98604834D01*
X160089302Y-98550651D01*
X160080739Y-98489392D01*
X160086521Y-98419158D01*
X160103210Y-98356891D01*
X160128542Y-98299415D01*
X160158164Y-98250401D01*
X160191486Y-98209028D01*
X160225453Y-98178715D01*
X160283217Y-98139759D01*
X161053925Y-98139759D01*
X161097413Y-98144852D01*
X161130129Y-98158810D01*
X161156174Y-98182183D01*
X161176290Y-98216207D01*
X161196685Y-98278367D01*
X161206210Y-98347365D01*
X161300000Y-98347365D01*
X161300000Y-97687543D01*
X161206210Y-97687543D01*
X161200837Y-97752390D01*
X161189968Y-97810519D01*
X161172972Y-97844231D01*
X161147470Y-97867184D01*
X161114101Y-97880634D01*
X161068457Y-97885624D01*
X160246092Y-97885624D01*
X160201734Y-97880576D01*
X160161706Y-97865718D01*
X160126659Y-97841972D01*
X160098813Y-97810397D01*
X160075244Y-97748970D01*
X160065108Y-97672400D01*
X159971318Y-97672400D01*
X159940055Y-98120586D01*
X159958862Y-98139759D01*
X160146074Y-98139759D01*
X160146074Y-98146598D01*
X160067550Y-98228541D01*
X159993056Y-98321475D01*
X159963717Y-98375322D01*
X159938468Y-98441643D01*
X159922324Y-98514018D01*
X159916608Y-98598813D01*
X159925092Y-98694648D01*
X159948710Y-98772241D01*
X159985967Y-98835268D01*
X160037142Y-98886287D01*
X160122204Y-98936541D01*
X160227390Y-98968463D01*
X160357833Y-98979954D01*
X161056367Y-98979954D01*
X161101267Y-98984430D01*
X161133426Y-98996318D01*
X161158686Y-99017698D01*
X161178977Y-99052372D01*
X161198028Y-99109036D01*
X161206210Y-99175348D01*
X161300000Y-99175348D01*
G37*
G36*
X161300000Y-100828384D02*
G01*
X161300000Y-100168440D01*
X161206210Y-100168440D01*
X161200837Y-100237316D01*
X161189846Y-100299598D01*
X161172731Y-100333302D01*
X161147103Y-100356263D01*
X161113496Y-100369714D01*
X161067602Y-100374703D01*
X160378471Y-100374703D01*
X160285570Y-100366222D01*
X160213730Y-100343044D01*
X160158286Y-100307048D01*
X160114625Y-100257870D01*
X160089302Y-100203686D01*
X160080739Y-100142428D01*
X160086521Y-100072194D01*
X160103210Y-100009926D01*
X160128542Y-99952451D01*
X160158164Y-99903436D01*
X160191486Y-99862063D01*
X160225453Y-99831751D01*
X160283217Y-99792794D01*
X161053925Y-99792794D01*
X161097413Y-99797888D01*
X161130129Y-99811845D01*
X161156174Y-99835219D01*
X161176290Y-99869242D01*
X161196685Y-99931402D01*
X161206210Y-100000401D01*
X161300000Y-100000401D01*
X161300000Y-99340579D01*
X161206210Y-99340579D01*
X161200837Y-99405425D01*
X161189968Y-99463555D01*
X161172972Y-99497266D01*
X161147470Y-99520219D01*
X161114101Y-99533669D01*
X161068457Y-99538660D01*
X160246092Y-99538660D01*
X160201734Y-99533612D01*
X160161706Y-99518754D01*
X160126659Y-99495007D01*
X160098813Y-99463433D01*
X160075244Y-99402006D01*
X160065108Y-99325436D01*
X159971318Y-99325436D01*
X159940055Y-99773621D01*
X159958862Y-99792794D01*
X160146074Y-99792794D01*
X160146074Y-99799633D01*
X160067550Y-99881577D01*
X159993056Y-99974511D01*
X159963717Y-100028358D01*
X159938468Y-100094678D01*
X159922324Y-100167053D01*
X159916608Y-100251849D01*
X159925092Y-100347683D01*
X159948710Y-100425276D01*
X159985967Y-100488303D01*
X160037142Y-100539323D01*
X160122204Y-100589576D01*
X160227390Y-100621499D01*
X160357833Y-100632990D01*
X161056367Y-100632990D01*
X161101267Y-100637465D01*
X161133426Y-100649354D01*
X161158686Y-100670733D01*
X161178977Y-100705408D01*
X161198028Y-100762072D01*
X161206210Y-100828384D01*
X161300000Y-100828384D01*
G37*
G36*
X160413276Y-102909577D02*
G01*
X160485718Y-102963302D01*
X160563607Y-103000314D01*
X160649298Y-103021963D01*
X160753750Y-103029745D01*
X160878948Y-103017515D01*
X160989797Y-102982031D01*
X161089301Y-102923470D01*
X161179466Y-102839846D01*
X161251958Y-102740453D01*
X161303895Y-102630240D01*
X161335827Y-102507143D01*
X161346894Y-102368457D01*
X161335874Y-102239629D01*
X161302198Y-102108949D01*
X161252958Y-101984825D01*
X161200226Y-101884856D01*
X161300000Y-101826116D01*
X161300000Y-101716817D01*
X160635659Y-101697766D01*
X160635659Y-101808408D01*
X160755530Y-101846297D01*
X160858775Y-101888276D01*
X160954532Y-101941101D01*
X161044766Y-102009298D01*
X161117604Y-102086374D01*
X161173848Y-102175261D01*
X161209340Y-102275649D01*
X161221842Y-102395935D01*
X161215265Y-102486701D01*
X161197051Y-102560554D01*
X161166386Y-102625446D01*
X161126953Y-102674616D01*
X161077756Y-102712583D01*
X161020341Y-102739462D01*
X160956276Y-102755116D01*
X160879291Y-102760711D01*
X160803202Y-102753452D01*
X160730919Y-102731795D01*
X160661182Y-102695132D01*
X160600424Y-102645525D01*
X160549381Y-102581203D01*
X160507798Y-102499738D01*
X160430006Y-102296161D01*
X160349406Y-102098080D01*
X160293211Y-101993854D01*
X160228766Y-101909782D01*
X160156088Y-101843213D01*
X160071878Y-101794308D01*
X159969271Y-101763413D01*
X159843702Y-101752355D01*
X159736241Y-101763746D01*
X159637438Y-101797418D01*
X159547445Y-101851601D01*
X159466468Y-101925889D01*
X159403626Y-102011417D01*
X159355094Y-102113101D01*
X159324916Y-102223175D01*
X159314794Y-102338538D01*
X159325876Y-102467770D01*
X159357414Y-102578262D01*
X159403581Y-102680753D01*
X159454623Y-102771580D01*
X159361688Y-102827634D01*
X159361688Y-102936933D01*
X160002581Y-102947801D01*
X160002581Y-102837159D01*
X159792899Y-102769504D01*
X159696897Y-102725997D01*
X159611671Y-102671807D01*
X159541012Y-102606445D01*
X159486496Y-102528314D01*
X159452236Y-102437275D01*
X159439846Y-102320708D01*
X159449320Y-102237373D01*
X159476875Y-102164382D01*
X159522889Y-102099302D01*
X159583085Y-102047998D01*
X159649822Y-102018017D01*
X159725610Y-102007833D01*
X159807317Y-102014892D01*
X159875672Y-102034802D01*
X159933217Y-102066573D01*
X160006476Y-102136459D01*
X160068649Y-102237421D01*
X160151814Y-102433426D01*
X160226552Y-102619905D01*
X160307519Y-102777686D01*
X160357055Y-102849131D01*
X160413276Y-102909577D01*
G37*
G36*
X160761977Y-103246637D02*
G01*
X160895900Y-103275697D01*
X161020113Y-103325304D01*
X161125732Y-103393911D01*
X161213290Y-103482992D01*
X161281681Y-103595289D01*
X161312823Y-103678707D01*
X161332277Y-103773056D01*
X161339078Y-103880198D01*
X161328045Y-104000147D01*
X161295882Y-104108140D01*
X161242725Y-104206629D01*
X161171815Y-104294337D01*
X161086131Y-104369771D01*
X160984071Y-104433531D01*
X160924842Y-104337909D01*
X161021640Y-104277650D01*
X161088874Y-104221106D01*
X161132815Y-104167794D01*
X161164365Y-104106749D01*
X161183806Y-104037470D01*
X161190579Y-103958112D01*
X161178549Y-103844816D01*
X161144783Y-103753070D01*
X161090452Y-103675093D01*
X161019609Y-103613729D01*
X160932431Y-103567055D01*
X160829466Y-103533862D01*
X160718007Y-103515196D01*
X160588764Y-103508583D01*
X160588764Y-104400680D01*
X160498272Y-104400680D01*
X160379001Y-104392762D01*
X160271981Y-104369905D01*
X160173554Y-104330672D01*
X160090875Y-104276360D01*
X160019276Y-104201910D01*
X159963258Y-104105512D01*
X159929025Y-103993781D01*
X159916608Y-103852843D01*
X159916804Y-103850157D01*
X160018213Y-103850157D01*
X160028761Y-103930457D01*
X160057903Y-103990718D01*
X160103162Y-104039409D01*
X160160607Y-104076936D01*
X160223869Y-104100775D01*
X160307274Y-104118457D01*
X160471528Y-104131524D01*
X160471528Y-103508583D01*
X160332055Y-103525242D01*
X160222992Y-103560443D01*
X160138136Y-103611653D01*
X160070505Y-103681790D01*
X160031443Y-103760186D01*
X160018213Y-103850157D01*
X159916804Y-103850157D01*
X159923459Y-103758729D01*
X159943415Y-103672885D01*
X159976081Y-103593946D01*
X160045382Y-103487429D01*
X160132763Y-103400628D01*
X160239823Y-103329985D01*
X160360397Y-103278384D01*
X160488346Y-103247118D01*
X160618318Y-103236741D01*
X160761977Y-103246637D01*
G37*
G36*
X161300000Y-105655844D02*
G01*
X161300000Y-104565544D01*
X161233565Y-104565544D01*
X160057292Y-105327948D01*
X160057292Y-105139392D01*
X160061566Y-104953524D01*
X160070832Y-104888618D01*
X160089654Y-104830669D01*
X160115694Y-104796874D01*
X160178436Y-104758862D01*
X160257786Y-104729190D01*
X160369923Y-104700854D01*
X160369923Y-104617445D01*
X159955687Y-104617445D01*
X159955687Y-105647662D01*
X160007100Y-105647662D01*
X161198394Y-104873046D01*
X161200471Y-104981001D01*
X161201081Y-105108007D01*
X161199738Y-105222069D01*
X161192777Y-105374476D01*
X161181408Y-105423482D01*
X161154919Y-105457030D01*
X161117555Y-105481717D01*
X161074808Y-105500139D01*
X160962334Y-105536287D01*
X160823237Y-105573900D01*
X160823237Y-105655844D01*
X161300000Y-105655844D01*
G37*
G36*
X161300000Y-107319382D02*
G01*
X161300000Y-106659438D01*
X161206210Y-106659438D01*
X161200837Y-106728314D01*
X161189846Y-106790596D01*
X161172731Y-106824300D01*
X161147103Y-106847260D01*
X161113496Y-106860712D01*
X161067602Y-106865701D01*
X160378471Y-106865701D01*
X160285570Y-106857220D01*
X160213730Y-106834042D01*
X160158286Y-106798046D01*
X160114625Y-106748868D01*
X160089302Y-106694684D01*
X160080739Y-106633426D01*
X160086521Y-106563192D01*
X160103210Y-106500924D01*
X160128542Y-106443449D01*
X160158164Y-106394434D01*
X160191486Y-106353061D01*
X160225453Y-106322749D01*
X160283217Y-106283792D01*
X161053925Y-106283792D01*
X161097413Y-106288886D01*
X161130129Y-106302843D01*
X161156174Y-106326217D01*
X161176290Y-106360240D01*
X161196685Y-106422400D01*
X161206210Y-106491399D01*
X161300000Y-106491399D01*
X161300000Y-105831577D01*
X161206210Y-105831577D01*
X161200837Y-105896423D01*
X161189968Y-105954553D01*
X161172972Y-105988264D01*
X161147470Y-106011217D01*
X161114101Y-106024667D01*
X161068457Y-106029658D01*
X160246092Y-106029658D01*
X160201734Y-106024610D01*
X160161706Y-106009752D01*
X160126659Y-105986005D01*
X160098813Y-105954431D01*
X160075244Y-105893004D01*
X160065108Y-105816434D01*
X159971318Y-105816434D01*
X159940055Y-106264619D01*
X159958862Y-106283792D01*
X160146074Y-106283792D01*
X160146074Y-106290631D01*
X160067550Y-106372575D01*
X159993056Y-106465509D01*
X159963717Y-106519356D01*
X159938468Y-106585676D01*
X159922324Y-106658051D01*
X159916608Y-106742847D01*
X159925092Y-106838681D01*
X159948710Y-106916274D01*
X159985967Y-106979301D01*
X160037142Y-107030321D01*
X160122204Y-107080574D01*
X160227390Y-107112497D01*
X160357833Y-107123988D01*
X161056367Y-107123988D01*
X161101267Y-107128463D01*
X161133426Y-107140352D01*
X161158686Y-107161731D01*
X161178977Y-107196406D01*
X161198028Y-107253070D01*
X161206210Y-107319382D01*
X161300000Y-107319382D01*
G37*
G36*
X160761977Y-107494508D02*
G01*
X160895900Y-107523569D01*
X161020113Y-107573176D01*
X161125732Y-107641782D01*
X161213290Y-107730864D01*
X161281681Y-107843161D01*
X161312823Y-107926579D01*
X161332277Y-108020928D01*
X161339078Y-108128070D01*
X161328045Y-108248018D01*
X161295882Y-108356011D01*
X161242725Y-108454501D01*
X161171815Y-108542209D01*
X161086131Y-108617642D01*
X160984071Y-108681402D01*
X160924842Y-108585781D01*
X161021640Y-108525522D01*
X161088874Y-108468977D01*
X161132815Y-108415666D01*
X161164365Y-108354621D01*
X161183806Y-108285342D01*
X161190579Y-108205983D01*
X161178549Y-108092688D01*
X161144783Y-108000942D01*
X161090452Y-107922964D01*
X161019609Y-107861601D01*
X160932431Y-107814926D01*
X160829466Y-107781734D01*
X160718007Y-107763067D01*
X160588764Y-107756454D01*
X160588764Y-108648551D01*
X160498272Y-108648551D01*
X160379001Y-108640633D01*
X160271981Y-108617777D01*
X160173554Y-108578544D01*
X160090875Y-108524232D01*
X160019276Y-108449782D01*
X159963258Y-108353384D01*
X159929025Y-108241653D01*
X159916608Y-108100715D01*
X159916804Y-108098028D01*
X160018213Y-108098028D01*
X160028761Y-108178329D01*
X160057903Y-108238590D01*
X160103162Y-108287280D01*
X160160607Y-108324808D01*
X160223869Y-108348647D01*
X160307274Y-108366329D01*
X160471528Y-108379396D01*
X160471528Y-107756454D01*
X160332055Y-107773114D01*
X160222992Y-107808315D01*
X160138136Y-107859525D01*
X160070505Y-107929662D01*
X160031443Y-108008057D01*
X160018213Y-108098028D01*
X159916804Y-108098028D01*
X159923459Y-108006600D01*
X159943415Y-107920756D01*
X159976081Y-107841817D01*
X160045382Y-107735300D01*
X160132763Y-107648499D01*
X160239823Y-107577857D01*
X160360397Y-107526256D01*
X160488346Y-107494989D01*
X160618318Y-107484612D01*
X160761977Y-107494508D01*
G37*
G36*
X161339078Y-109459682D02*
G01*
X161325984Y-109316406D01*
X161288772Y-109194965D01*
X161228775Y-109091127D01*
X161144905Y-109001971D01*
X161043999Y-108932175D01*
X160925794Y-108880745D01*
X160787045Y-108848254D01*
X160623691Y-108836741D01*
X160484864Y-108848034D01*
X160357711Y-108881071D01*
X160239596Y-108935576D01*
X160132763Y-109010275D01*
X160045648Y-109100253D01*
X159976081Y-109212386D01*
X159943242Y-109295250D01*
X159923367Y-109383250D01*
X159916608Y-109477512D01*
X159928042Y-109606532D01*
X159960064Y-109712476D01*
X160010886Y-109799912D01*
X160081396Y-109869012D01*
X160165585Y-109909984D01*
X160267951Y-109924232D01*
X160332654Y-109915823D01*
X160388119Y-109891381D01*
X160416472Y-109865663D01*
X160433922Y-109830730D01*
X160440265Y-109783426D01*
X160429309Y-109709496D01*
X160399598Y-109658374D01*
X160355369Y-109624602D01*
X160308618Y-109614043D01*
X160247360Y-109618049D01*
X160183077Y-109630408D01*
X160088799Y-109649581D01*
X160053786Y-109619215D01*
X160032501Y-109576552D01*
X160018213Y-109472016D01*
X160025230Y-109407986D01*
X160046301Y-109346964D01*
X160083851Y-109291063D01*
X160149860Y-109231559D01*
X160226168Y-109187661D01*
X160334996Y-109149494D01*
X160457456Y-109126574D01*
X160613311Y-109118108D01*
X160780006Y-109131862D01*
X160916829Y-109170269D01*
X161029501Y-109230826D01*
X161101723Y-109293483D01*
X161151078Y-109362551D01*
X161180499Y-109439418D01*
X161190579Y-109526605D01*
X161182910Y-109612883D01*
X161161133Y-109686055D01*
X161126099Y-109748621D01*
X161049325Y-109831560D01*
X160932658Y-109914584D01*
X160989933Y-110002023D01*
X161090804Y-109934767D01*
X161175343Y-109855749D01*
X161245045Y-109764253D01*
X161298154Y-109662748D01*
X161328941Y-109561786D01*
X161339078Y-109459682D01*
G37*
G36*
X164660000Y-76981001D02*
G01*
X164660000Y-76107955D01*
X164566210Y-76107955D01*
X164558028Y-76214445D01*
X164541542Y-76312875D01*
X164519627Y-76352933D01*
X164492937Y-76378454D01*
X164458239Y-76393301D01*
X164407208Y-76398970D01*
X162997805Y-76398970D01*
X162952216Y-76394915D01*
X162917693Y-76383949D01*
X162889950Y-76361135D01*
X162863471Y-76312875D01*
X162832575Y-76209682D01*
X162815478Y-76107955D01*
X162721688Y-76107955D01*
X162721688Y-76981001D01*
X162815478Y-76981001D01*
X162825736Y-76879884D01*
X162848328Y-76777424D01*
X162870947Y-76732754D01*
X162901817Y-76707693D01*
X162940393Y-76694521D01*
X162984127Y-76689986D01*
X164392065Y-76689986D01*
X164435380Y-76695081D01*
X164472299Y-76709769D01*
X164502714Y-76735443D01*
X164527864Y-76777424D01*
X164551800Y-76870969D01*
X164566210Y-76981001D01*
X164660000Y-76981001D01*
G37*
G36*
X164660000Y-79496214D02*
G01*
X164660000Y-78839078D01*
X164566210Y-78839078D01*
X164560837Y-78902581D01*
X164549846Y-78959368D01*
X164532731Y-78993072D01*
X164507103Y-79016032D01*
X164473496Y-79029484D01*
X164427602Y-79034473D01*
X163735662Y-79034473D01*
X163643550Y-79026301D01*
X163572383Y-79004005D01*
X163517554Y-78969504D01*
X163474422Y-78922027D01*
X163449288Y-78868816D01*
X163440739Y-78807693D01*
X163445927Y-78742238D01*
X163461133Y-78681908D01*
X163485640Y-78625483D01*
X163518164Y-78574075D01*
X163582766Y-78507763D01*
X163640530Y-78467463D01*
X164413925Y-78467463D01*
X164458899Y-78471895D01*
X164492205Y-78483827D01*
X164518532Y-78505335D01*
X164538977Y-78539881D01*
X164557418Y-78596545D01*
X164566210Y-78662857D01*
X164660000Y-78662857D01*
X164660000Y-78019399D01*
X164566210Y-78019399D01*
X164560837Y-78080094D01*
X164549846Y-78134193D01*
X164532731Y-78167897D01*
X164507103Y-78190858D01*
X164473496Y-78204309D01*
X164427602Y-78209298D01*
X163735662Y-78209298D01*
X163643550Y-78201126D01*
X163572383Y-78178831D01*
X163517554Y-78144330D01*
X163474422Y-78096852D01*
X163449288Y-78043641D01*
X163440739Y-77982519D01*
X163446111Y-77917110D01*
X163461866Y-77856856D01*
X163486863Y-77800397D01*
X163519630Y-77748900D01*
X163586919Y-77681856D01*
X163643217Y-77640945D01*
X164411238Y-77640945D01*
X164454921Y-77645996D01*
X164488785Y-77659996D01*
X164515920Y-77683484D01*
X164536290Y-77717393D01*
X164556685Y-77776133D01*
X164566210Y-77843056D01*
X164660000Y-77843056D01*
X164660000Y-77188729D01*
X164566210Y-77188729D01*
X164560837Y-77253576D01*
X164549968Y-77311706D01*
X164532972Y-77345417D01*
X164507470Y-77368370D01*
X164474101Y-77381820D01*
X164428457Y-77386810D01*
X163600718Y-77386810D01*
X163559278Y-77381760D01*
X163523049Y-77367027D01*
X163491436Y-77343578D01*
X163464309Y-77311706D01*
X163437930Y-77247470D01*
X163425108Y-77168213D01*
X163331318Y-77168213D01*
X163300055Y-77618963D01*
X163318862Y-77638136D01*
X163508761Y-77638136D01*
X163508761Y-77647662D01*
X163428161Y-77731071D01*
X163353056Y-77822540D01*
X163323958Y-77874377D01*
X163298468Y-77942096D01*
X163282213Y-78015783D01*
X163276608Y-78097191D01*
X163284772Y-78182278D01*
X163308325Y-78256705D01*
X163346950Y-78322627D01*
X163425543Y-78404326D01*
X163516943Y-78457937D01*
X163433046Y-78544644D01*
X163355865Y-78643684D01*
X163324317Y-78698985D01*
X163298468Y-78765928D01*
X163282285Y-78838771D01*
X163276608Y-78922365D01*
X163289772Y-79031260D01*
X163327083Y-79119857D01*
X163388349Y-79192864D01*
X163468892Y-79245055D01*
X163580011Y-79279653D01*
X163731388Y-79292637D01*
X164413681Y-79292637D01*
X164458655Y-79297069D01*
X164491960Y-79309002D01*
X164518413Y-79330517D01*
X164538977Y-79365055D01*
X164557418Y-79427215D01*
X164566210Y-79496214D01*
X164660000Y-79496214D01*
G37*
G36*
X163436709Y-79685990D02*
G01*
X163461866Y-79754256D01*
X163488412Y-79783678D01*
X163523049Y-79807501D01*
X163562005Y-79822960D01*
X163601817Y-79828018D01*
X165027707Y-79828018D01*
X165071839Y-79823715D01*
X165107819Y-79811653D01*
X165136345Y-79789620D01*
X165155446Y-79754256D01*
X165169002Y-79683182D01*
X165175840Y-79601238D01*
X165269630Y-79601238D01*
X165269630Y-80354117D01*
X165175840Y-80354117D01*
X165162896Y-80253611D01*
X165139082Y-80160066D01*
X165119388Y-80125091D01*
X165091454Y-80101203D01*
X165056108Y-80087237D01*
X165009877Y-80082152D01*
X164607365Y-80082152D01*
X164607365Y-80093143D01*
X164640707Y-80146995D01*
X164671723Y-80220150D01*
X164691522Y-80303892D01*
X164699078Y-80419574D01*
X164686337Y-80542242D01*
X164648398Y-80657344D01*
X164587371Y-80763472D01*
X164503318Y-80860921D01*
X164402004Y-80938863D01*
X164278126Y-81001605D01*
X164141077Y-81041242D01*
X163985767Y-81054972D01*
X163828376Y-81043306D01*
X163696217Y-81010519D01*
X163576340Y-80956598D01*
X163473712Y-80885589D01*
X163392577Y-80803015D01*
X163329975Y-80705826D01*
X163290181Y-80597061D01*
X163276608Y-80475628D01*
X163289330Y-80377320D01*
X163425108Y-80377320D01*
X163437935Y-80476735D01*
X163474445Y-80557571D01*
X163531158Y-80625439D01*
X163603405Y-80679326D01*
X163686456Y-80718858D01*
X163787198Y-80747592D01*
X163892456Y-80764066D01*
X163994193Y-80769452D01*
X164129120Y-80762640D01*
X164245153Y-80743440D01*
X164352271Y-80709687D01*
X164442501Y-80662840D01*
X164508734Y-80608707D01*
X164557051Y-80544016D01*
X164587531Y-80470969D01*
X164597473Y-80396371D01*
X164591770Y-80328686D01*
X164576224Y-80276203D01*
X164520659Y-80184612D01*
X164452149Y-80122452D01*
X164375334Y-80082152D01*
X163575928Y-80082152D01*
X163518787Y-80138551D01*
X163469682Y-80205129D01*
X163436783Y-80281689D01*
X163425108Y-80377320D01*
X163289330Y-80377320D01*
X163289863Y-80373198D01*
X163331441Y-80266556D01*
X163393731Y-80169005D01*
X163468217Y-80090457D01*
X163465530Y-80079466D01*
X163316175Y-80079466D01*
X163300055Y-80060293D01*
X163331318Y-79601238D01*
X163425108Y-79601238D01*
X163436709Y-79685990D01*
G37*
G36*
X163482383Y-82284368D02*
G01*
X163548617Y-82275637D01*
X163605725Y-82250174D01*
X163635408Y-82223654D01*
X163653238Y-82189452D01*
X163659581Y-82145027D01*
X163648736Y-82075255D01*
X163619403Y-82028157D01*
X163576107Y-81997520D01*
X163530498Y-81987857D01*
X163475055Y-81992620D01*
X163425108Y-82001535D01*
X163436890Y-81936343D01*
X163478475Y-81851203D01*
X163541763Y-81772885D01*
X163630027Y-81705146D01*
X164413314Y-81705146D01*
X164458262Y-81710128D01*
X164491228Y-81723586D01*
X164516888Y-81746624D01*
X164536168Y-81781594D01*
X164556685Y-81869766D01*
X164566210Y-81963311D01*
X164660000Y-81963311D01*
X164660000Y-81252930D01*
X164566210Y-81252930D01*
X164560837Y-81317777D01*
X164549968Y-81375907D01*
X164532972Y-81409618D01*
X164507470Y-81432571D01*
X164474101Y-81446021D01*
X164428457Y-81451011D01*
X163606092Y-81451011D01*
X163564921Y-81446127D01*
X163523660Y-81431106D01*
X163486989Y-81407224D01*
X163458813Y-81375785D01*
X163435244Y-81314357D01*
X163425108Y-81237787D01*
X163331318Y-81237787D01*
X163300055Y-81685973D01*
X163318618Y-81705146D01*
X163502655Y-81705146D01*
X163502655Y-81711985D01*
X163403317Y-81803319D01*
X163334127Y-81900418D01*
X163289813Y-82003841D01*
X163276608Y-82090439D01*
X163283117Y-82145375D01*
X163301749Y-82191338D01*
X163332540Y-82230390D01*
X163372740Y-82259714D01*
X163421853Y-82277898D01*
X163482383Y-82284368D01*
G37*
G36*
X164457977Y-82422175D02*
G01*
X164538149Y-82454752D01*
X164605778Y-82508461D01*
X164657012Y-82578480D01*
X164688181Y-82660466D01*
X164699078Y-82757833D01*
X164685218Y-82894397D01*
X164646688Y-83003053D01*
X164584082Y-83099917D01*
X164495868Y-83193684D01*
X164495868Y-83201866D01*
X164581801Y-83231998D01*
X164641437Y-83283077D01*
X164677901Y-83354396D01*
X164691263Y-83453192D01*
X164687665Y-83512888D01*
X164677585Y-83563224D01*
X164641803Y-83675942D01*
X164558394Y-83675942D01*
X164557051Y-83585083D01*
X164552280Y-83543971D01*
X164543251Y-83520115D01*
X164518229Y-83486176D01*
X164489640Y-83463450D01*
X164454630Y-83450092D01*
X164404399Y-83445010D01*
X164072229Y-83449040D01*
X163723572Y-83453192D01*
X163593097Y-83443208D01*
X163498747Y-83416922D01*
X163419745Y-83371807D01*
X163360505Y-83311165D01*
X163317350Y-83237489D01*
X163305612Y-83199057D01*
X163917501Y-83199057D01*
X164391332Y-83190875D01*
X164451079Y-83135026D01*
X164503196Y-83066556D01*
X164538433Y-82988066D01*
X164550579Y-82895830D01*
X164536737Y-82810958D01*
X164497090Y-82744766D01*
X164457376Y-82713290D01*
X164403115Y-82692959D01*
X164329539Y-82685415D01*
X164246130Y-82695701D01*
X164177742Y-82724982D01*
X164118821Y-82771188D01*
X164067222Y-82832937D01*
X164022075Y-82910751D01*
X163984790Y-82995481D01*
X163917501Y-83199057D01*
X163305612Y-83199057D01*
X163292484Y-83156071D01*
X163280876Y-83067039D01*
X163276608Y-82955914D01*
X163283086Y-82872449D01*
X163303108Y-82785066D01*
X163333498Y-82701863D01*
X163367711Y-82636200D01*
X163416559Y-82570712D01*
X163469682Y-82520673D01*
X163529182Y-82487023D01*
X163589239Y-82476343D01*
X163646393Y-82484436D01*
X163697316Y-82508461D01*
X163732953Y-82548504D01*
X163745554Y-82608845D01*
X163735068Y-82679162D01*
X163706475Y-82728401D01*
X163664067Y-82761319D01*
X163620013Y-82771510D01*
X163522805Y-82758443D01*
X163443060Y-82745498D01*
X163422378Y-82772404D01*
X163399218Y-82821336D01*
X163383568Y-82876939D01*
X163378213Y-82938084D01*
X163388526Y-83022788D01*
X163415582Y-83079501D01*
X163456528Y-83124208D01*
X163503021Y-83156803D01*
X163549223Y-83177089D01*
X163598032Y-83188799D01*
X163665931Y-83196371D01*
X163800265Y-83196371D01*
X163837043Y-83114774D01*
X163899061Y-82942847D01*
X163985523Y-82693597D01*
X164036936Y-82588328D01*
X164072276Y-82536766D01*
X164110331Y-82498203D01*
X164162921Y-82459920D01*
X164221584Y-82432623D01*
X164285828Y-82416478D01*
X164361535Y-82410764D01*
X164457977Y-82422175D01*
G37*
G36*
X164699078Y-84433583D02*
G01*
X164685984Y-84290306D01*
X164648772Y-84168866D01*
X164588775Y-84065027D01*
X164504905Y-83975872D01*
X164403999Y-83906076D01*
X164285794Y-83854646D01*
X164147045Y-83822155D01*
X163983691Y-83810642D01*
X163844864Y-83821935D01*
X163717711Y-83854972D01*
X163599596Y-83909477D01*
X163492763Y-83984176D01*
X163405648Y-84074154D01*
X163336081Y-84186287D01*
X163303242Y-84269151D01*
X163283367Y-84357151D01*
X163276608Y-84451413D01*
X163288042Y-84580433D01*
X163320064Y-84686377D01*
X163370886Y-84773813D01*
X163441396Y-84842913D01*
X163525585Y-84883885D01*
X163627951Y-84898133D01*
X163692654Y-84889724D01*
X163748119Y-84865282D01*
X163776472Y-84839564D01*
X163793922Y-84804631D01*
X163800265Y-84757327D01*
X163789309Y-84683397D01*
X163759598Y-84632274D01*
X163715369Y-84598503D01*
X163668618Y-84587944D01*
X163607360Y-84591950D01*
X163543077Y-84604309D01*
X163448799Y-84623482D01*
X163413786Y-84593116D01*
X163392501Y-84550453D01*
X163378213Y-84445917D01*
X163385230Y-84381887D01*
X163406301Y-84320865D01*
X163443851Y-84264963D01*
X163509860Y-84205460D01*
X163586168Y-84161561D01*
X163694996Y-84123394D01*
X163817456Y-84100475D01*
X163973311Y-84092009D01*
X164140006Y-84105762D01*
X164276829Y-84144170D01*
X164389501Y-84204727D01*
X164461723Y-84267384D01*
X164511078Y-84336452D01*
X164540499Y-84413319D01*
X164550579Y-84500505D01*
X164542910Y-84586784D01*
X164521133Y-84659956D01*
X164486099Y-84722522D01*
X164409325Y-84805461D01*
X164292658Y-84888485D01*
X164349933Y-84975924D01*
X164450804Y-84908668D01*
X164535343Y-84829650D01*
X164605045Y-84738154D01*
X164658154Y-84636649D01*
X164688941Y-84535687D01*
X164699078Y-84433583D01*
G37*
G36*
X164603579Y-85912718D02*
G01*
X164665861Y-85744678D01*
X164684363Y-85660631D01*
X164691263Y-85550628D01*
X164680051Y-85441180D01*
X164650504Y-85364671D01*
X164605655Y-85312247D01*
X164544839Y-85275677D01*
X164465913Y-85251954D01*
X164363855Y-85243248D01*
X163448555Y-85243248D01*
X163448555Y-84999982D01*
X163315687Y-84999982D01*
X163315687Y-85248743D01*
X162893635Y-85248743D01*
X162893635Y-85497383D01*
X163315687Y-85497383D01*
X163315687Y-85884019D01*
X163448555Y-85884019D01*
X163448555Y-85500069D01*
X164204609Y-85500069D01*
X164346758Y-85506175D01*
X164401103Y-85516957D01*
X164446165Y-85535607D01*
X164480946Y-85562675D01*
X164506615Y-85601186D01*
X164521412Y-85649152D01*
X164527131Y-85718667D01*
X164520537Y-85819050D01*
X164503684Y-85912718D01*
X164603579Y-85912718D01*
G37*
G36*
X164660000Y-86700279D02*
G01*
X164660000Y-86048639D01*
X164566210Y-86048639D01*
X164560837Y-86113485D01*
X164549968Y-86171615D01*
X164532972Y-86205326D01*
X164507470Y-86228279D01*
X164474101Y-86241729D01*
X164428457Y-86246720D01*
X163606092Y-86246720D01*
X163564452Y-86241706D01*
X163527079Y-86226936D01*
X163494357Y-86203389D01*
X163466995Y-86171615D01*
X163439274Y-86096388D01*
X163425108Y-86006263D01*
X163331318Y-86006263D01*
X163300055Y-86481681D01*
X163319106Y-86500854D01*
X164411360Y-86500854D01*
X164456159Y-86505788D01*
X164490129Y-86519295D01*
X164516850Y-86542455D01*
X164536290Y-86577302D01*
X164556074Y-86636043D01*
X164566210Y-86700279D01*
X164660000Y-86700279D01*
G37*
G36*
X162770781Y-86528210D02*
G01*
X162843436Y-86515378D01*
X162906214Y-86476919D01*
X162949638Y-86419542D01*
X162963977Y-86350645D01*
X162950480Y-86286125D01*
X162908900Y-86229623D01*
X162849404Y-86191051D01*
X162782993Y-86178454D01*
X162713096Y-86191204D01*
X162652445Y-86229623D01*
X162610286Y-86286183D01*
X162596636Y-86350645D01*
X162609984Y-86422051D01*
X162649026Y-86478262D01*
X162705993Y-86515859D01*
X162770781Y-86528210D01*
G37*
G36*
X164699078Y-87487595D02*
G01*
X164685984Y-87344319D01*
X164648772Y-87222879D01*
X164588775Y-87119040D01*
X164504905Y-87029884D01*
X164403999Y-86960088D01*
X164285794Y-86908659D01*
X164147045Y-86876168D01*
X163983691Y-86864654D01*
X163844864Y-86875947D01*
X163717711Y-86908984D01*
X163599596Y-86963490D01*
X163492763Y-87038189D01*
X163405648Y-87128166D01*
X163336081Y-87240300D01*
X163303242Y-87323163D01*
X163283367Y-87411163D01*
X163276608Y-87505425D01*
X163288042Y-87634446D01*
X163320064Y-87740390D01*
X163370886Y-87827826D01*
X163441396Y-87896925D01*
X163525585Y-87937898D01*
X163627951Y-87952145D01*
X163692654Y-87943737D01*
X163748119Y-87919295D01*
X163776472Y-87893577D01*
X163793922Y-87858644D01*
X163800265Y-87811339D01*
X163789309Y-87737409D01*
X163759598Y-87686287D01*
X163715369Y-87652515D01*
X163668618Y-87641957D01*
X163607360Y-87645963D01*
X163543077Y-87658321D01*
X163448799Y-87677494D01*
X163413786Y-87647129D01*
X163392501Y-87604466D01*
X163378213Y-87499930D01*
X163385230Y-87435899D01*
X163406301Y-87374877D01*
X163443851Y-87318976D01*
X163509860Y-87259473D01*
X163586168Y-87215574D01*
X163694996Y-87177407D01*
X163817456Y-87154487D01*
X163973311Y-87146022D01*
X164140006Y-87159775D01*
X164276829Y-87198183D01*
X164389501Y-87258740D01*
X164461723Y-87321396D01*
X164511078Y-87390464D01*
X164540499Y-87467332D01*
X164550579Y-87554518D01*
X164542910Y-87640797D01*
X164521133Y-87713969D01*
X164486099Y-87776535D01*
X164409325Y-87859473D01*
X164292658Y-87942498D01*
X164349933Y-88029937D01*
X164450804Y-87962681D01*
X164535343Y-87883663D01*
X164605045Y-87792166D01*
X164658154Y-87690661D01*
X164688941Y-87589700D01*
X164699078Y-87487595D01*
G37*
G36*
X164457977Y-88156997D02*
G01*
X164538149Y-88189574D01*
X164605778Y-88243283D01*
X164657012Y-88313302D01*
X164688181Y-88395288D01*
X164699078Y-88492655D01*
X164685218Y-88629219D01*
X164646688Y-88737875D01*
X164584082Y-88834739D01*
X164495868Y-88928506D01*
X164495868Y-88936688D01*
X164581801Y-88966820D01*
X164641437Y-89017899D01*
X164677901Y-89089218D01*
X164691263Y-89188014D01*
X164687665Y-89247710D01*
X164677585Y-89298046D01*
X164641803Y-89410764D01*
X164558394Y-89410764D01*
X164557051Y-89319905D01*
X164552280Y-89278793D01*
X164543251Y-89254937D01*
X164518229Y-89220998D01*
X164489640Y-89198272D01*
X164454630Y-89184914D01*
X164404399Y-89179832D01*
X164072229Y-89183862D01*
X163723572Y-89188014D01*
X163593097Y-89178030D01*
X163498747Y-89151744D01*
X163419745Y-89106629D01*
X163360505Y-89045987D01*
X163317350Y-88972311D01*
X163305612Y-88933879D01*
X163917501Y-88933879D01*
X164391332Y-88925697D01*
X164451079Y-88869848D01*
X164503196Y-88801378D01*
X164538433Y-88722888D01*
X164550579Y-88630652D01*
X164536737Y-88545780D01*
X164497090Y-88479588D01*
X164457376Y-88448112D01*
X164403115Y-88427781D01*
X164329539Y-88420237D01*
X164246130Y-88430523D01*
X164177742Y-88459804D01*
X164118821Y-88506010D01*
X164067222Y-88567759D01*
X164022075Y-88645573D01*
X163984790Y-88730303D01*
X163917501Y-88933879D01*
X163305612Y-88933879D01*
X163292484Y-88890893D01*
X163280876Y-88801861D01*
X163276608Y-88690736D01*
X163283086Y-88607271D01*
X163303108Y-88519888D01*
X163333498Y-88436685D01*
X163367711Y-88371022D01*
X163416559Y-88305534D01*
X163469682Y-88255495D01*
X163529182Y-88221845D01*
X163589239Y-88211165D01*
X163646393Y-88219259D01*
X163697316Y-88243283D01*
X163732953Y-88283327D01*
X163745554Y-88343667D01*
X163735068Y-88413984D01*
X163706475Y-88463224D01*
X163664067Y-88496141D01*
X163620013Y-88506332D01*
X163522805Y-88493265D01*
X163443060Y-88480321D01*
X163422378Y-88507226D01*
X163399218Y-88556158D01*
X163383568Y-88611761D01*
X163378213Y-88672906D01*
X163388526Y-88757611D01*
X163415582Y-88814323D01*
X163456528Y-88859030D01*
X163503021Y-88891625D01*
X163549223Y-88911911D01*
X163598032Y-88923621D01*
X163665931Y-88931193D01*
X163800265Y-88931193D01*
X163837043Y-88849596D01*
X163899061Y-88677669D01*
X163985523Y-88428419D01*
X164036936Y-88323150D01*
X164072276Y-88271588D01*
X164110331Y-88233025D01*
X164162921Y-88194742D01*
X164221584Y-88167445D01*
X164285828Y-88151300D01*
X164361535Y-88145586D01*
X164457977Y-88156997D01*
G37*
G36*
X164660000Y-90176587D02*
G01*
X164660000Y-89519452D01*
X164566210Y-89519452D01*
X164560104Y-89586374D01*
X164549846Y-89645115D01*
X164532725Y-89679035D01*
X164506981Y-89702512D01*
X164473302Y-89716509D01*
X164427358Y-89721685D01*
X162872508Y-89721685D01*
X162824933Y-89716342D01*
X162780673Y-89700436D01*
X162741858Y-89675605D01*
X162713262Y-89645115D01*
X162699198Y-89614985D01*
X162683342Y-89554989D01*
X162666978Y-89449720D01*
X162573189Y-89449720D01*
X162541926Y-89956646D01*
X162562442Y-89975819D01*
X164410505Y-89975819D01*
X164455505Y-89980591D01*
X164489030Y-89993527D01*
X164515642Y-90016115D01*
X164536168Y-90050924D01*
X164556685Y-90110275D01*
X164566210Y-90176587D01*
X164660000Y-90176587D01*
G37*
G36*
X164660000Y-91854047D02*
G01*
X164645587Y-92050842D01*
X164602602Y-92240683D01*
X164557507Y-92362101D01*
X164499771Y-92474273D01*
X164429190Y-92578105D01*
X164345482Y-92670253D01*
X164246760Y-92750731D01*
X164131458Y-92819905D01*
X164007099Y-92870285D01*
X163865166Y-92901794D01*
X163702445Y-92912840D01*
X163527031Y-92901293D01*
X163373830Y-92868360D01*
X163239483Y-92815753D01*
X163115571Y-92742135D01*
X163010037Y-92653177D01*
X162921113Y-92548063D01*
X162840238Y-92413910D01*
X162775666Y-92252896D01*
X162735129Y-92081799D01*
X162721688Y-91908635D01*
X162721688Y-91837683D01*
X162831109Y-91837683D01*
X162838529Y-91948248D01*
X162860147Y-92049543D01*
X162895467Y-92142986D01*
X162944075Y-92230306D01*
X163002797Y-92307175D01*
X163072055Y-92374528D01*
X163198613Y-92461633D01*
X163347927Y-92526203D01*
X163511878Y-92564596D01*
X163701835Y-92578105D01*
X163893954Y-92567747D01*
X164051591Y-92539148D01*
X164195275Y-92488087D01*
X164317815Y-92415561D01*
X164385098Y-92356802D01*
X164442014Y-92287069D01*
X164489030Y-92205146D01*
X164522403Y-92116605D01*
X164543274Y-92016171D01*
X164550579Y-91901796D01*
X164544133Y-91802038D01*
X164527257Y-91730010D01*
X164502707Y-91679169D01*
X164464927Y-91640768D01*
X164409600Y-91616053D01*
X164330150Y-91606751D01*
X162836605Y-91606751D01*
X162833185Y-91711287D01*
X162831109Y-91837683D01*
X162721688Y-91837683D01*
X162721688Y-91061601D01*
X162815478Y-91061601D01*
X162827812Y-91146231D01*
X162857976Y-91237822D01*
X162884665Y-91277618D01*
X162916960Y-91299982D01*
X162955604Y-91311651D01*
X163000614Y-91315736D01*
X164404399Y-91315736D01*
X164451336Y-91310865D01*
X164488785Y-91297295D01*
X164519019Y-91273676D01*
X164541542Y-91237822D01*
X164558761Y-91153803D01*
X164566210Y-91050732D01*
X164660000Y-91050732D01*
X164660000Y-91854047D01*
G37*
G36*
X164121977Y-93127167D02*
G01*
X164255900Y-93156228D01*
X164380113Y-93205834D01*
X164485732Y-93274441D01*
X164573290Y-93363523D01*
X164641681Y-93475819D01*
X164672823Y-93559237D01*
X164692277Y-93653586D01*
X164699078Y-93760729D01*
X164688045Y-93880677D01*
X164655882Y-93988670D01*
X164602725Y-94087159D01*
X164531815Y-94174867D01*
X164446131Y-94250301D01*
X164344071Y-94314061D01*
X164284842Y-94218440D01*
X164381640Y-94158181D01*
X164448874Y-94101636D01*
X164492815Y-94048325D01*
X164524365Y-93987280D01*
X164543806Y-93918001D01*
X164550579Y-93838642D01*
X164538549Y-93725347D01*
X164504783Y-93633600D01*
X164450452Y-93555623D01*
X164379609Y-93494260D01*
X164292431Y-93447585D01*
X164189466Y-93414392D01*
X164078007Y-93395726D01*
X163948764Y-93389113D01*
X163948764Y-94281210D01*
X163858272Y-94281210D01*
X163739001Y-94273292D01*
X163631981Y-94250436D01*
X163533554Y-94211203D01*
X163450875Y-94156891D01*
X163379276Y-94082440D01*
X163323258Y-93986043D01*
X163289025Y-93874311D01*
X163276608Y-93733374D01*
X163276804Y-93730687D01*
X163378213Y-93730687D01*
X163388761Y-93810988D01*
X163417903Y-93871249D01*
X163463162Y-93919939D01*
X163520607Y-93957466D01*
X163583869Y-93981306D01*
X163667274Y-93998988D01*
X163831528Y-94012055D01*
X163831528Y-93389113D01*
X163692055Y-93405773D01*
X163582992Y-93440974D01*
X163498136Y-93492184D01*
X163430505Y-93562320D01*
X163391443Y-93640716D01*
X163378213Y-93730687D01*
X163276804Y-93730687D01*
X163283459Y-93639259D01*
X163303415Y-93553415D01*
X163336081Y-93474476D01*
X163405382Y-93367959D01*
X163492763Y-93281158D01*
X163599823Y-93210516D01*
X163720397Y-93158914D01*
X163848346Y-93127648D01*
X163978318Y-93117271D01*
X164121977Y-93127167D01*
G37*
G36*
X163402393Y-95800034D02*
G01*
X163418810Y-95740368D01*
X163446723Y-95683164D01*
X163490165Y-95634074D01*
X163564815Y-95588276D01*
X163945833Y-95421580D01*
X164362145Y-95242672D01*
X164510767Y-95184542D01*
X164675631Y-95127878D01*
X164675631Y-95021266D01*
X164091646Y-94782152D01*
X163551259Y-94555373D01*
X163495647Y-94519775D01*
X163453806Y-94467201D01*
X163424995Y-94405330D01*
X163409476Y-94344958D01*
X163315687Y-94344958D01*
X163315687Y-94968021D01*
X163415216Y-94968021D01*
X163432191Y-94865439D01*
X163453451Y-94815718D01*
X163474933Y-94804012D01*
X163495938Y-94810851D01*
X163534651Y-94824528D01*
X163920799Y-94983042D01*
X164320502Y-95149738D01*
X164030586Y-95273325D01*
X163643094Y-95433914D01*
X163574706Y-95459804D01*
X163510104Y-95472138D01*
X163488853Y-95466833D01*
X163468705Y-95449546D01*
X163436587Y-95395690D01*
X163416193Y-95334141D01*
X163406667Y-95284926D01*
X163315687Y-95284926D01*
X163315687Y-95800034D01*
X163402393Y-95800034D01*
G37*
G36*
X164660000Y-96512979D02*
G01*
X164660000Y-95861339D01*
X164566210Y-95861339D01*
X164560837Y-95926186D01*
X164549968Y-95984316D01*
X164532972Y-96018027D01*
X164507470Y-96040980D01*
X164474101Y-96054430D01*
X164428457Y-96059420D01*
X163606092Y-96059420D01*
X163564452Y-96054406D01*
X163527079Y-96039637D01*
X163494357Y-96016089D01*
X163466995Y-95984316D01*
X163439274Y-95909089D01*
X163425108Y-95818963D01*
X163331318Y-95818963D01*
X163300055Y-96294382D01*
X163319106Y-96313555D01*
X164411360Y-96313555D01*
X164456159Y-96318489D01*
X164490129Y-96331995D01*
X164516850Y-96355156D01*
X164536290Y-96390003D01*
X164556074Y-96448743D01*
X164566210Y-96512979D01*
X164660000Y-96512979D01*
G37*
G36*
X162770781Y-96340910D02*
G01*
X162843436Y-96328079D01*
X162906214Y-96289619D01*
X162949638Y-96232243D01*
X162963977Y-96163346D01*
X162950480Y-96098826D01*
X162908900Y-96042323D01*
X162849404Y-96003752D01*
X162782993Y-95991154D01*
X162713096Y-96003904D01*
X162652445Y-96042323D01*
X162610286Y-96098883D01*
X162596636Y-96163346D01*
X162609984Y-96234751D01*
X162649026Y-96290963D01*
X162705993Y-96328560D01*
X162770781Y-96340910D01*
G37*
G36*
X164699078Y-97300296D02*
G01*
X164685984Y-97157020D01*
X164648772Y-97035579D01*
X164588775Y-96931741D01*
X164504905Y-96842585D01*
X164403999Y-96772789D01*
X164285794Y-96721360D01*
X164147045Y-96688868D01*
X163983691Y-96677355D01*
X163844864Y-96688648D01*
X163717711Y-96721685D01*
X163599596Y-96776190D01*
X163492763Y-96850889D01*
X163405648Y-96940867D01*
X163336081Y-97053000D01*
X163303242Y-97135864D01*
X163283367Y-97223864D01*
X163276608Y-97318126D01*
X163288042Y-97447146D01*
X163320064Y-97553091D01*
X163370886Y-97640526D01*
X163441396Y-97709626D01*
X163525585Y-97750598D01*
X163627951Y-97764846D01*
X163692654Y-97756438D01*
X163748119Y-97731995D01*
X163776472Y-97706277D01*
X163793922Y-97671345D01*
X163800265Y-97624040D01*
X163789309Y-97550110D01*
X163759598Y-97498988D01*
X163715369Y-97465216D01*
X163668618Y-97454658D01*
X163607360Y-97458663D01*
X163543077Y-97471022D01*
X163448799Y-97490195D01*
X163413786Y-97459829D01*
X163392501Y-97417166D01*
X163378213Y-97312630D01*
X163385230Y-97248600D01*
X163406301Y-97187578D01*
X163443851Y-97131677D01*
X163509860Y-97072173D01*
X163586168Y-97028275D01*
X163694996Y-96990108D01*
X163817456Y-96967188D01*
X163973311Y-96958722D01*
X164140006Y-96972476D01*
X164276829Y-97010884D01*
X164389501Y-97071441D01*
X164461723Y-97134097D01*
X164511078Y-97203165D01*
X164540499Y-97280032D01*
X164550579Y-97367219D01*
X164542910Y-97453497D01*
X164521133Y-97526669D01*
X164486099Y-97589235D01*
X164409325Y-97672174D01*
X164292658Y-97755198D01*
X164349933Y-97842637D01*
X164450804Y-97775382D01*
X164535343Y-97696364D01*
X164605045Y-97604867D01*
X164658154Y-97503362D01*
X164688941Y-97402400D01*
X164699078Y-97300296D01*
G37*
G36*
X164121977Y-97957313D02*
G01*
X164255900Y-97986374D01*
X164380113Y-98035981D01*
X164485732Y-98104588D01*
X164573290Y-98193669D01*
X164641681Y-98305966D01*
X164672823Y-98389384D01*
X164692277Y-98483733D01*
X164699078Y-98590875D01*
X164688045Y-98710824D01*
X164655882Y-98818816D01*
X164602725Y-98917306D01*
X164531815Y-99005014D01*
X164446131Y-99080447D01*
X164344071Y-99144207D01*
X164284842Y-99048586D01*
X164381640Y-98988327D01*
X164448874Y-98931783D01*
X164492815Y-98878471D01*
X164524365Y-98817426D01*
X164543806Y-98748147D01*
X164550579Y-98668789D01*
X164538549Y-98555493D01*
X164504783Y-98463747D01*
X164450452Y-98385769D01*
X164379609Y-98324406D01*
X164292431Y-98277732D01*
X164189466Y-98244539D01*
X164078007Y-98225873D01*
X163948764Y-98219260D01*
X163948764Y-99111357D01*
X163858272Y-99111357D01*
X163739001Y-99103439D01*
X163631981Y-99080582D01*
X163533554Y-99041349D01*
X163450875Y-98987037D01*
X163379276Y-98912587D01*
X163323258Y-98816189D01*
X163289025Y-98704458D01*
X163276608Y-98563520D01*
X163276804Y-98560833D01*
X163378213Y-98560833D01*
X163388761Y-98641134D01*
X163417903Y-98701395D01*
X163463162Y-98750086D01*
X163520607Y-98787613D01*
X163583869Y-98811452D01*
X163667274Y-98829134D01*
X163831528Y-98842201D01*
X163831528Y-98219260D01*
X163692055Y-98235919D01*
X163582992Y-98271120D01*
X163498136Y-98322330D01*
X163430505Y-98392467D01*
X163391443Y-98470863D01*
X163378213Y-98560833D01*
X163276804Y-98560833D01*
X163283459Y-98469405D01*
X163303415Y-98383562D01*
X163336081Y-98304623D01*
X163405382Y-98198106D01*
X163492763Y-98111304D01*
X163599823Y-98040662D01*
X163720397Y-97989061D01*
X163848346Y-97957794D01*
X163978318Y-97947418D01*
X164121977Y-97957313D01*
G37*
G36*
X164002864Y-100188956D02*
G01*
X164056204Y-100238764D01*
X164116437Y-100275052D01*
X164185140Y-100297050D01*
X164273729Y-100305094D01*
X164364456Y-100296064D01*
X164444376Y-100269902D01*
X164515771Y-100226734D01*
X164580132Y-100165020D01*
X164644706Y-100065674D01*
X164684848Y-99946504D01*
X164699078Y-99802320D01*
X164688288Y-99688295D01*
X164656824Y-99585799D01*
X164612810Y-99494929D01*
X164578911Y-99444382D01*
X164667815Y-99417027D01*
X164667815Y-99314567D01*
X164198869Y-99300889D01*
X164198869Y-99395167D01*
X164253977Y-99411052D01*
X164324410Y-99441573D01*
X164392958Y-99481074D01*
X164453981Y-99527669D01*
X164509517Y-99585808D01*
X164556074Y-99655408D01*
X164586901Y-99733617D01*
X164597473Y-99822836D01*
X164589864Y-99908327D01*
X164569116Y-99974256D01*
X164537023Y-100024947D01*
X164492267Y-100063611D01*
X164435788Y-100087477D01*
X164363977Y-100096022D01*
X164309307Y-100090101D01*
X164264815Y-100073429D01*
X164226217Y-100046163D01*
X164191664Y-100007240D01*
X164162630Y-99958824D01*
X164134877Y-99896598D01*
X164084930Y-99750418D01*
X164032295Y-99607536D01*
X163995046Y-99533200D01*
X163953649Y-99473080D01*
X163900550Y-99418569D01*
X163836046Y-99374651D01*
X163761909Y-99346398D01*
X163671915Y-99336427D01*
X163566885Y-99350182D01*
X163474563Y-99390580D01*
X163391524Y-99459403D01*
X163329210Y-99547664D01*
X163290429Y-99655597D01*
X163276608Y-99788642D01*
X163281648Y-99868044D01*
X163297124Y-99950575D01*
X163320776Y-100028766D01*
X163346217Y-100085153D01*
X163276608Y-100116538D01*
X163276608Y-100214846D01*
X163706475Y-100235362D01*
X163706475Y-100141085D01*
X163613482Y-100113793D01*
X163535290Y-100072550D01*
X163469560Y-100017376D01*
X163418846Y-99949537D01*
X163388603Y-99873256D01*
X163378213Y-99785833D01*
X163385224Y-99713244D01*
X163404658Y-99655578D01*
X163435366Y-99609612D01*
X163476855Y-99573431D01*
X163522294Y-99552457D01*
X163573363Y-99545376D01*
X163631678Y-99551057D01*
X163675945Y-99566503D01*
X163713453Y-99592633D01*
X163745676Y-99630129D01*
X163796967Y-99733199D01*
X163851067Y-99886950D01*
X163918112Y-100057065D01*
X163959738Y-100132086D01*
X164002864Y-100188956D01*
G37*
D12*
G36*
X145639323Y-46572065D02*
G01*
X145899870Y-46554691D01*
X146136296Y-46504288D01*
X146356012Y-46428255D01*
X146526657Y-46346568D01*
X146668073Y-46490000D01*
X146842280Y-46490000D01*
X146868841Y-45434870D01*
X146692620Y-45434870D01*
X146626719Y-45585749D01*
X146541128Y-45751775D01*
X146440836Y-45910877D01*
X146327904Y-46050179D01*
X146194572Y-46175925D01*
X146048185Y-46274577D01*
X145941870Y-46321709D01*
X145822155Y-46350883D01*
X145686400Y-46361039D01*
X145505475Y-46343784D01*
X145366155Y-46296616D01*
X145259036Y-46223103D01*
X145176463Y-46123122D01*
X145127383Y-46008848D01*
X145110476Y-45875607D01*
X145124653Y-45766385D01*
X145166129Y-45671187D01*
X145236505Y-45586362D01*
X145326534Y-45517716D01*
X145453556Y-45450141D01*
X145626866Y-45384678D01*
X145943588Y-45281913D01*
X146215064Y-45185010D01*
X146399670Y-45092682D01*
X146542748Y-44981898D01*
X146650671Y-44852534D01*
X146729610Y-44703103D01*
X146776926Y-44543075D01*
X146793004Y-44369300D01*
X146774681Y-44203721D01*
X146719364Y-44043968D01*
X146629787Y-43897313D01*
X146504125Y-43763517D01*
X146354801Y-43660782D01*
X146157728Y-43573923D01*
X145940390Y-43519304D01*
X145698674Y-43500467D01*
X145462199Y-43518002D01*
X145245847Y-43569160D01*
X145047173Y-43641733D01*
X144913738Y-43705448D01*
X144788808Y-43582533D01*
X144610389Y-43582533D01*
X144594085Y-44579043D01*
X144770307Y-44579043D01*
X144914837Y-44251147D01*
X145003107Y-44092936D01*
X145089959Y-43972527D01*
X145198662Y-43864853D01*
X145321502Y-43782384D01*
X145460714Y-43729965D01*
X145628881Y-43711493D01*
X145771695Y-43726262D01*
X145890601Y-43768143D01*
X145990666Y-43836057D01*
X146069264Y-43926670D01*
X146115297Y-44028104D01*
X146130983Y-44144352D01*
X146117008Y-44254720D01*
X146076679Y-44347991D01*
X146009167Y-44428285D01*
X145922286Y-44492957D01*
X145798714Y-44557908D01*
X145629064Y-44622274D01*
X145319670Y-44725040D01*
X145038668Y-44823592D01*
X144849670Y-44913923D01*
X144701150Y-45019866D01*
X144586941Y-45141046D01*
X144502577Y-45283136D01*
X144450452Y-45448642D01*
X144432152Y-45643332D01*
X144453944Y-45828327D01*
X144520263Y-46009146D01*
X144624303Y-46171565D01*
X144758033Y-46302971D01*
X144932950Y-46416438D01*
X145137220Y-46502090D01*
X145362562Y-46553477D01*
X145639323Y-46572065D01*
G37*
G36*
X141432728Y-44414912D02*
G01*
X141590448Y-44414912D01*
X141669733Y-44230039D01*
X141794330Y-44018323D01*
X141898170Y-43885418D01*
X141982718Y-43816357D01*
X142053532Y-43790444D01*
X142215465Y-43776339D01*
X142381428Y-43770111D01*
X142477782Y-43770111D01*
X142477782Y-46042119D01*
X142470863Y-46112617D01*
X142451221Y-46171812D01*
X142413778Y-46220215D01*
X142346624Y-46260472D01*
X142200078Y-46298391D01*
X142031001Y-46325868D01*
X142031001Y-46490000D01*
X143652163Y-46490000D01*
X143652163Y-46325868D01*
X143485284Y-46308649D01*
X143338555Y-46280989D01*
X143269638Y-46240757D01*
X143232126Y-46193244D01*
X143212429Y-46134716D01*
X143205382Y-46062452D01*
X143205382Y-43770111D01*
X143301735Y-43770111D01*
X143467698Y-43776339D01*
X143629631Y-43790444D01*
X143700446Y-43816357D01*
X143784994Y-43885418D01*
X143888834Y-44018323D01*
X144013431Y-44230039D01*
X144092716Y-44414912D01*
X144250619Y-44414912D01*
X144250619Y-43582533D01*
X141432728Y-43582533D01*
X141432728Y-44414912D01*
G37*
G36*
X141263468Y-43746664D02*
G01*
X141123150Y-43773225D01*
X140968361Y-43818105D01*
X140894225Y-43861188D01*
X140859734Y-43904017D01*
X140843299Y-43956609D01*
X140837203Y-44026383D01*
X140837203Y-46070512D01*
X140844445Y-46143854D01*
X140863948Y-46198190D01*
X140900612Y-46241698D01*
X140968361Y-46280989D01*
X141106847Y-46308649D01*
X141263468Y-46325868D01*
X141263468Y-46490000D01*
X139712098Y-46490000D01*
X139712098Y-46325868D01*
X139854431Y-46302604D01*
X139976430Y-46269265D01*
X140044408Y-46228606D01*
X140081943Y-46184269D01*
X140102269Y-46129964D01*
X140109603Y-46060804D01*
X140109603Y-45188674D01*
X139996946Y-45188674D01*
X139520490Y-45790610D01*
X139040003Y-46490000D01*
X137925157Y-46490000D01*
X137925157Y-46325868D01*
X138028654Y-46313961D01*
X138148456Y-46289781D01*
X138231454Y-46247250D01*
X138342262Y-46150563D01*
X138515369Y-45959321D01*
X138901700Y-45476453D01*
X139226482Y-45060812D01*
X138994195Y-44975560D01*
X138819949Y-44877713D01*
X138692690Y-44769187D01*
X138597333Y-44635268D01*
X138538317Y-44473242D01*
X138523216Y-44330465D01*
X139320638Y-44330465D01*
X139332981Y-44503668D01*
X139366712Y-44640372D01*
X139418350Y-44747716D01*
X139486601Y-44831285D01*
X139606394Y-44916126D01*
X139759015Y-44969890D01*
X139953899Y-44989371D01*
X140109603Y-44989371D01*
X140109603Y-43770111D01*
X139947670Y-43770111D01*
X139751020Y-43787106D01*
X139599675Y-43833341D01*
X139483670Y-43904567D01*
X139396744Y-44005498D01*
X139341176Y-44143358D01*
X139320638Y-44330465D01*
X138523216Y-44330465D01*
X138517384Y-44275327D01*
X138536098Y-44108049D01*
X138589304Y-43969261D01*
X138676307Y-43852637D01*
X138801317Y-43754724D01*
X138943342Y-43685566D01*
X139123614Y-43631489D01*
X139350185Y-43595657D01*
X139632231Y-43582533D01*
X141263468Y-43582533D01*
X141263468Y-43746664D01*
G37*
G36*
X136641599Y-45599002D02*
G01*
X137883574Y-45599002D01*
X137883574Y-45141779D01*
X136641599Y-45141779D01*
X136641599Y-45599002D01*
G37*
G36*
X134490675Y-45520416D02*
G01*
X134350758Y-45639351D01*
X134232571Y-45796838D01*
X134176212Y-45916738D01*
X134140615Y-46058565D01*
X134127974Y-46226950D01*
X134142402Y-46403756D01*
X134184343Y-46563244D01*
X134253127Y-46708563D01*
X134349887Y-46842109D01*
X134477486Y-46965357D01*
X134658772Y-47087799D01*
X134864761Y-47176959D01*
X135099895Y-47232563D01*
X135369766Y-47252037D01*
X135580634Y-47239672D01*
X135765440Y-47204423D01*
X135927803Y-47148319D01*
X136070804Y-47072336D01*
X136201794Y-46970620D01*
X136287077Y-46867292D01*
X136335476Y-46760726D01*
X136351439Y-46647536D01*
X136340764Y-46554618D01*
X136309806Y-46473930D01*
X136258199Y-46402622D01*
X136190314Y-46347670D01*
X136108694Y-46314203D01*
X136009255Y-46302421D01*
X135904431Y-46312765D01*
X135817161Y-46342034D01*
X135743824Y-46389249D01*
X135686567Y-46453234D01*
X135652282Y-46529265D01*
X135640326Y-46621158D01*
X135648613Y-46724856D01*
X135675314Y-46843724D01*
X135732650Y-47027639D01*
X135617794Y-47055300D01*
X135494879Y-47064459D01*
X135379929Y-47051513D01*
X135265352Y-47011885D01*
X135161266Y-46947556D01*
X135072644Y-46858379D01*
X134992699Y-46734214D01*
X134933426Y-46585254D01*
X134898575Y-46421397D01*
X134886165Y-46227500D01*
X134904603Y-46039352D01*
X134956788Y-45882490D01*
X135040954Y-45750493D01*
X135154867Y-45646386D01*
X135286412Y-45584975D01*
X135441573Y-45563831D01*
X135621657Y-45584429D01*
X135761409Y-45641500D01*
X135882792Y-45730224D01*
X135992951Y-45845198D01*
X136152686Y-45791892D01*
X135953934Y-44285952D01*
X134222313Y-44285952D01*
X134222313Y-44848688D01*
X135806472Y-44848688D01*
X135890369Y-45525729D01*
X135770389Y-45460888D01*
X135605521Y-45392922D01*
X135422256Y-45346240D01*
X135195743Y-45329357D01*
X135014499Y-45339395D01*
X134835973Y-45369474D01*
X134663155Y-45426233D01*
X134490675Y-45520416D01*
G37*
G36*
X132686045Y-44227154D02*
G01*
X132868818Y-44260217D01*
X133031446Y-44313063D01*
X133185477Y-44387200D01*
X133316441Y-44473774D01*
X133426936Y-44572632D01*
X133566844Y-44749688D01*
X133663790Y-44943942D01*
X133720918Y-45155192D01*
X133740544Y-45389075D01*
X133719972Y-45625249D01*
X133659577Y-45842451D01*
X133559548Y-46040416D01*
X133422906Y-46209548D01*
X133311436Y-46306088D01*
X133180688Y-46390955D01*
X133028332Y-46463988D01*
X132867798Y-46516194D01*
X132686817Y-46548905D01*
X132482266Y-46560341D01*
X132288080Y-46550571D01*
X132116200Y-46522664D01*
X131963860Y-46478276D01*
X131751257Y-46377191D01*
X131568187Y-46240322D01*
X131468716Y-46134192D01*
X131383762Y-46012735D01*
X131313014Y-45874324D01*
X131262049Y-45727300D01*
X131230619Y-45566296D01*
X131219774Y-45389075D01*
X131219867Y-45387976D01*
X131992437Y-45387976D01*
X131999439Y-45619191D01*
X132018082Y-45795922D01*
X132052855Y-45958386D01*
X132103079Y-46100188D01*
X132169871Y-46214616D01*
X132254754Y-46299490D01*
X132358660Y-46354073D01*
X132482266Y-46372763D01*
X132614152Y-46351831D01*
X132720036Y-46291430D01*
X132803906Y-46198790D01*
X132867498Y-46077657D01*
X132915817Y-45928560D01*
X132946449Y-45772658D01*
X132962039Y-45605545D01*
X132967882Y-45387976D01*
X132961465Y-45176791D01*
X132943335Y-44992302D01*
X132910068Y-44820283D01*
X132865483Y-44688037D01*
X132795189Y-44564413D01*
X132711793Y-44477561D01*
X132608395Y-44422492D01*
X132478053Y-44403189D01*
X132349713Y-44422634D01*
X132246693Y-44478476D01*
X132163642Y-44566610D01*
X132094836Y-44692067D01*
X132048420Y-44832413D01*
X132016067Y-44999446D01*
X131998679Y-45177618D01*
X131992437Y-45387976D01*
X131219867Y-45387976D01*
X131238554Y-45166956D01*
X131294696Y-44953101D01*
X131389486Y-44754658D01*
X131525139Y-44578677D01*
X131634312Y-44479681D01*
X131764568Y-44392120D01*
X131918614Y-44316177D01*
X132081455Y-44261857D01*
X132267382Y-44227637D01*
X132480068Y-44215610D01*
X132686045Y-44227154D01*
G37*
G36*
X129743407Y-44227154D02*
G01*
X129926180Y-44260217D01*
X130088808Y-44313063D01*
X130242839Y-44387200D01*
X130373803Y-44473774D01*
X130484298Y-44572632D01*
X130624207Y-44749688D01*
X130721153Y-44943942D01*
X130778280Y-45155192D01*
X130797906Y-45389075D01*
X130777335Y-45625249D01*
X130716939Y-45842451D01*
X130616910Y-46040416D01*
X130480268Y-46209548D01*
X130368799Y-46306088D01*
X130238050Y-46390955D01*
X130085694Y-46463988D01*
X129925160Y-46516194D01*
X129744179Y-46548905D01*
X129539628Y-46560341D01*
X129345442Y-46550571D01*
X129173562Y-46522664D01*
X129021222Y-46478276D01*
X128808619Y-46377191D01*
X128625549Y-46240322D01*
X128526078Y-46134192D01*
X128441124Y-46012735D01*
X128370376Y-45874324D01*
X128319412Y-45727300D01*
X128287981Y-45566296D01*
X128277137Y-45389075D01*
X128277230Y-45387976D01*
X129049799Y-45387976D01*
X129056801Y-45619191D01*
X129075444Y-45795922D01*
X129110217Y-45958386D01*
X129160441Y-46100188D01*
X129227234Y-46214616D01*
X129312116Y-46299490D01*
X129416022Y-46354073D01*
X129539628Y-46372763D01*
X129671514Y-46351831D01*
X129777398Y-46291430D01*
X129861268Y-46198790D01*
X129924860Y-46077657D01*
X129973179Y-45928560D01*
X130003811Y-45772658D01*
X130019402Y-45605545D01*
X130025244Y-45387976D01*
X130018827Y-45176791D01*
X130000697Y-44992302D01*
X129967430Y-44820283D01*
X129922845Y-44688037D01*
X129852551Y-44564413D01*
X129769155Y-44477561D01*
X129665758Y-44422492D01*
X129535415Y-44403189D01*
X129407075Y-44422634D01*
X129304056Y-44478476D01*
X129221004Y-44566610D01*
X129152198Y-44692067D01*
X129105782Y-44832413D01*
X129073429Y-44999446D01*
X129056041Y-45177618D01*
X129049799Y-45387976D01*
X128277230Y-45387976D01*
X128295916Y-45166956D01*
X128352058Y-44953101D01*
X128446848Y-44754658D01*
X128582501Y-44578677D01*
X128691674Y-44479681D01*
X128821930Y-44392120D01*
X128975976Y-44316177D01*
X129138817Y-44261857D01*
X129324744Y-44227637D01*
X129537430Y-44215610D01*
X129743407Y-44227154D01*
G37*
G36*
X124547182Y-44614214D02*
G01*
X124637119Y-44638334D01*
X124726700Y-44683824D01*
X124804148Y-44751816D01*
X124871048Y-44855648D01*
X125152782Y-45458501D01*
X125424441Y-46046882D01*
X125517681Y-46267983D01*
X125604692Y-46513447D01*
X125981864Y-46513447D01*
X126384682Y-45606878D01*
X126738040Y-44833117D01*
X126793035Y-44747314D01*
X126872313Y-44681809D01*
X126965471Y-44636781D01*
X127057693Y-44614214D01*
X127057693Y-44461807D01*
X125795385Y-44461807D01*
X125795385Y-44614214D01*
X125867410Y-44622220D01*
X125959333Y-44644989D01*
X126035080Y-44682001D01*
X126053489Y-44718628D01*
X126045429Y-44755448D01*
X126024912Y-44810769D01*
X125827259Y-45258100D01*
X125547356Y-45872676D01*
X125351718Y-45436702D01*
X125121092Y-44892468D01*
X125099659Y-44812784D01*
X125096545Y-44771751D01*
X125105029Y-44738120D01*
X125132449Y-44707271D01*
X125217445Y-44659277D01*
X125315814Y-44628503D01*
X125393667Y-44614214D01*
X125393667Y-44461807D01*
X124547182Y-44461807D01*
X124547182Y-44614214D01*
G37*
G36*
X122683853Y-46490000D02*
G01*
X124374441Y-46490000D01*
X124374441Y-46337592D01*
X124178803Y-46316892D01*
X123995437Y-46283920D01*
X123940159Y-46255681D01*
X123899084Y-46213578D01*
X123873816Y-46157820D01*
X123864279Y-46077107D01*
X123864279Y-44766622D01*
X124382684Y-44766622D01*
X124382684Y-44579043D01*
X124270027Y-44579043D01*
X124098211Y-44568532D01*
X123961549Y-44539842D01*
X123838387Y-44494701D01*
X123745394Y-44444771D01*
X123662935Y-44384205D01*
X123600863Y-44325153D01*
X123511653Y-44215610D01*
X123150968Y-44215610D01*
X123163424Y-44528485D01*
X123169469Y-44849603D01*
X123169469Y-46055675D01*
X123161228Y-46126105D01*
X123137779Y-46184269D01*
X123099276Y-46232179D01*
X123046554Y-46267616D01*
X122983855Y-46289116D01*
X122868318Y-46313046D01*
X122683853Y-46337592D01*
X122683853Y-46490000D01*
G37*
G36*
X121473569Y-46157890D02*
G01*
X121486875Y-46261679D01*
X121526231Y-46354935D01*
X121593553Y-46440724D01*
X121679334Y-46507774D01*
X121772886Y-46547044D01*
X121877302Y-46560341D01*
X121983115Y-46547079D01*
X122077380Y-46508035D01*
X122163250Y-46441639D01*
X122230312Y-46356503D01*
X122269683Y-46262983D01*
X122283051Y-46157890D01*
X122269725Y-46052730D01*
X122230381Y-45958508D01*
X122163250Y-45872126D01*
X122077238Y-45804520D01*
X121982983Y-45764861D01*
X121877302Y-45751409D01*
X121773030Y-45764911D01*
X121679490Y-45804850D01*
X121593553Y-45873225D01*
X121526169Y-45960149D01*
X121486837Y-46054039D01*
X121473569Y-46157890D01*
G37*
G36*
X118743422Y-46490000D02*
G01*
X120964872Y-46490000D01*
X120964872Y-46118323D01*
X120812921Y-45977437D01*
X120646318Y-45848679D01*
X120470713Y-45732793D01*
X120294792Y-45632158D01*
X119975139Y-45452639D01*
X119856002Y-45368633D01*
X119772173Y-45287409D01*
X119708449Y-45202836D01*
X119666844Y-45113019D01*
X119643261Y-45015164D01*
X119634970Y-44901810D01*
X119650937Y-44732329D01*
X119693413Y-44609739D01*
X119757885Y-44522257D01*
X119846352Y-44457376D01*
X119953251Y-44417360D01*
X120083766Y-44403189D01*
X120203567Y-44412531D01*
X120321353Y-44446420D01*
X120262002Y-44637845D01*
X120240738Y-44739946D01*
X120233243Y-44858030D01*
X120245337Y-44950436D01*
X120279985Y-45026619D01*
X120337840Y-45090488D01*
X120411720Y-45137525D01*
X120499322Y-45166664D01*
X120604187Y-45176950D01*
X120702190Y-45165139D01*
X120782461Y-45131582D01*
X120849101Y-45076383D01*
X120899596Y-45004784D01*
X120929892Y-44924176D01*
X120940326Y-44831835D01*
X120923833Y-44716340D01*
X120873785Y-44607635D01*
X120785439Y-44502211D01*
X120649433Y-44398426D01*
X120501117Y-44320649D01*
X120335374Y-44263604D01*
X120149504Y-44228015D01*
X119940334Y-44215610D01*
X119694290Y-44227551D01*
X119485303Y-44261011D01*
X119308225Y-44313075D01*
X119158513Y-44381756D01*
X119027746Y-44477710D01*
X118936462Y-44595587D01*
X118880240Y-44739393D01*
X118860293Y-44916648D01*
X118870062Y-45041673D01*
X118897103Y-45142646D01*
X118939244Y-45224211D01*
X119033412Y-45330896D01*
X119171885Y-45429192D01*
X119314753Y-45501137D01*
X119476151Y-45560350D01*
X119833722Y-45658719D01*
X120187264Y-45767346D01*
X120331570Y-45831471D01*
X120454710Y-45904733D01*
X120454710Y-45927264D01*
X118743422Y-45927264D01*
X118743422Y-46490000D01*
G37*
D11*
X144457419Y-88666666D02*
X145171704Y-88666666D01*
X145171704Y-88666666D02*
X145314561Y-88619047D01*
X145314561Y-88619047D02*
X145409800Y-88523809D01*
X145409800Y-88523809D02*
X145457419Y-88380952D01*
X145457419Y-88380952D02*
X145457419Y-88285714D01*
X145457419Y-89666666D02*
X145457419Y-89095238D01*
X145457419Y-89380952D02*
X144457419Y-89380952D01*
X144457419Y-89380952D02*
X144600276Y-89285714D01*
X144600276Y-89285714D02*
X144695514Y-89190476D01*
X144695514Y-89190476D02*
X144743133Y-89095238D01*
D10*
X154068990Y-94040000D02*
X154068990Y-94373333D01*
X153545180Y-94373333D02*
X154545180Y-94373333D01*
X154545180Y-94373333D02*
X154545180Y-93897143D01*
X153545180Y-93373333D02*
X153592800Y-93468571D01*
X153592800Y-93468571D02*
X153640419Y-93516190D01*
X153640419Y-93516190D02*
X153735657Y-93563809D01*
X153735657Y-93563809D02*
X154021371Y-93563809D01*
X154021371Y-93563809D02*
X154116609Y-93516190D01*
X154116609Y-93516190D02*
X154164228Y-93468571D01*
X154164228Y-93468571D02*
X154211847Y-93373333D01*
X154211847Y-93373333D02*
X154211847Y-93230476D01*
X154211847Y-93230476D02*
X154164228Y-93135238D01*
X154164228Y-93135238D02*
X154116609Y-93087619D01*
X154116609Y-93087619D02*
X154021371Y-93040000D01*
X154021371Y-93040000D02*
X153735657Y-93040000D01*
X153735657Y-93040000D02*
X153640419Y-93087619D01*
X153640419Y-93087619D02*
X153592800Y-93135238D01*
X153592800Y-93135238D02*
X153545180Y-93230476D01*
X153545180Y-93230476D02*
X153545180Y-93373333D01*
X153545180Y-92468571D02*
X153592800Y-92563809D01*
X153592800Y-92563809D02*
X153640419Y-92611428D01*
X153640419Y-92611428D02*
X153735657Y-92659047D01*
X153735657Y-92659047D02*
X154021371Y-92659047D01*
X154021371Y-92659047D02*
X154116609Y-92611428D01*
X154116609Y-92611428D02*
X154164228Y-92563809D01*
X154164228Y-92563809D02*
X154211847Y-92468571D01*
X154211847Y-92468571D02*
X154211847Y-92325714D01*
X154211847Y-92325714D02*
X154164228Y-92230476D01*
X154164228Y-92230476D02*
X154116609Y-92182857D01*
X154116609Y-92182857D02*
X154021371Y-92135238D01*
X154021371Y-92135238D02*
X153735657Y-92135238D01*
X153735657Y-92135238D02*
X153640419Y-92182857D01*
X153640419Y-92182857D02*
X153592800Y-92230476D01*
X153592800Y-92230476D02*
X153545180Y-92325714D01*
X153545180Y-92325714D02*
X153545180Y-92468571D01*
X154211847Y-91849523D02*
X154211847Y-91468571D01*
X154545180Y-91706666D02*
X153688038Y-91706666D01*
X153688038Y-91706666D02*
X153592800Y-91659047D01*
X153592800Y-91659047D02*
X153545180Y-91563809D01*
X153545180Y-91563809D02*
X153545180Y-91468571D01*
X153592800Y-91182856D02*
X153545180Y-91087618D01*
X153545180Y-91087618D02*
X153545180Y-90897142D01*
X153545180Y-90897142D02*
X153592800Y-90801904D01*
X153592800Y-90801904D02*
X153688038Y-90754285D01*
X153688038Y-90754285D02*
X153735657Y-90754285D01*
X153735657Y-90754285D02*
X153830895Y-90801904D01*
X153830895Y-90801904D02*
X153878514Y-90897142D01*
X153878514Y-90897142D02*
X153878514Y-91039999D01*
X153878514Y-91039999D02*
X153926133Y-91135237D01*
X153926133Y-91135237D02*
X154021371Y-91182856D01*
X154021371Y-91182856D02*
X154068990Y-91182856D01*
X154068990Y-91182856D02*
X154164228Y-91135237D01*
X154164228Y-91135237D02*
X154211847Y-91039999D01*
X154211847Y-91039999D02*
X154211847Y-90897142D01*
X154211847Y-90897142D02*
X154164228Y-90801904D01*
X154211847Y-90420951D02*
X153545180Y-90230475D01*
X153545180Y-90230475D02*
X154021371Y-90039999D01*
X154021371Y-90039999D02*
X153545180Y-89849523D01*
X153545180Y-89849523D02*
X154211847Y-89659047D01*
X153545180Y-89278094D02*
X154211847Y-89278094D01*
X154545180Y-89278094D02*
X154497561Y-89325713D01*
X154497561Y-89325713D02*
X154449942Y-89278094D01*
X154449942Y-89278094D02*
X154497561Y-89230475D01*
X154497561Y-89230475D02*
X154545180Y-89278094D01*
X154545180Y-89278094D02*
X154449942Y-89278094D01*
X154211847Y-88944761D02*
X154211847Y-88563809D01*
X154545180Y-88801904D02*
X153688038Y-88801904D01*
X153688038Y-88801904D02*
X153592800Y-88754285D01*
X153592800Y-88754285D02*
X153545180Y-88659047D01*
X153545180Y-88659047D02*
X153545180Y-88563809D01*
X153592800Y-87801904D02*
X153545180Y-87897142D01*
X153545180Y-87897142D02*
X153545180Y-88087618D01*
X153545180Y-88087618D02*
X153592800Y-88182856D01*
X153592800Y-88182856D02*
X153640419Y-88230475D01*
X153640419Y-88230475D02*
X153735657Y-88278094D01*
X153735657Y-88278094D02*
X154021371Y-88278094D01*
X154021371Y-88278094D02*
X154116609Y-88230475D01*
X154116609Y-88230475D02*
X154164228Y-88182856D01*
X154164228Y-88182856D02*
X154211847Y-88087618D01*
X154211847Y-88087618D02*
X154211847Y-87897142D01*
X154211847Y-87897142D02*
X154164228Y-87801904D01*
X153545180Y-87373332D02*
X154545180Y-87373332D01*
X153545180Y-86944761D02*
X154068990Y-86944761D01*
X154068990Y-86944761D02*
X154164228Y-86992380D01*
X154164228Y-86992380D02*
X154211847Y-87087618D01*
X154211847Y-87087618D02*
X154211847Y-87230475D01*
X154211847Y-87230475D02*
X154164228Y-87325713D01*
X154164228Y-87325713D02*
X154116609Y-87373332D01*
X153545180Y-86468570D02*
X154545180Y-86468570D01*
X154545180Y-86468570D02*
X153830895Y-86135237D01*
X153830895Y-86135237D02*
X154545180Y-85801904D01*
X154545180Y-85801904D02*
X153545180Y-85801904D01*
X153545180Y-85182856D02*
X153592800Y-85278094D01*
X153592800Y-85278094D02*
X153640419Y-85325713D01*
X153640419Y-85325713D02*
X153735657Y-85373332D01*
X153735657Y-85373332D02*
X154021371Y-85373332D01*
X154021371Y-85373332D02*
X154116609Y-85325713D01*
X154116609Y-85325713D02*
X154164228Y-85278094D01*
X154164228Y-85278094D02*
X154211847Y-85182856D01*
X154211847Y-85182856D02*
X154211847Y-85039999D01*
X154211847Y-85039999D02*
X154164228Y-84944761D01*
X154164228Y-84944761D02*
X154116609Y-84897142D01*
X154116609Y-84897142D02*
X154021371Y-84849523D01*
X154021371Y-84849523D02*
X153735657Y-84849523D01*
X153735657Y-84849523D02*
X153640419Y-84897142D01*
X153640419Y-84897142D02*
X153592800Y-84944761D01*
X153592800Y-84944761D02*
X153545180Y-85039999D01*
X153545180Y-85039999D02*
X153545180Y-85182856D01*
X153545180Y-84278094D02*
X153592800Y-84373332D01*
X153592800Y-84373332D02*
X153688038Y-84420951D01*
X153688038Y-84420951D02*
X154545180Y-84420951D01*
X153592800Y-83516189D02*
X153545180Y-83611427D01*
X153545180Y-83611427D02*
X153545180Y-83801903D01*
X153545180Y-83801903D02*
X153592800Y-83897141D01*
X153592800Y-83897141D02*
X153688038Y-83944760D01*
X153688038Y-83944760D02*
X154068990Y-83944760D01*
X154068990Y-83944760D02*
X154164228Y-83897141D01*
X154164228Y-83897141D02*
X154211847Y-83801903D01*
X154211847Y-83801903D02*
X154211847Y-83611427D01*
X154211847Y-83611427D02*
X154164228Y-83516189D01*
X154164228Y-83516189D02*
X154068990Y-83468570D01*
X154068990Y-83468570D02*
X153973752Y-83468570D01*
X153973752Y-83468570D02*
X153878514Y-83944760D01*
X153545180Y-83135236D02*
X154211847Y-82611427D01*
X154211847Y-83135236D02*
X153545180Y-82611427D01*
X146658570Y-133149104D02*
X146182380Y-133149104D01*
X146753808Y-133434819D02*
X146420475Y-132434819D01*
X146420475Y-132434819D02*
X146087142Y-133434819D01*
X145325237Y-132768152D02*
X145325237Y-133434819D01*
X145753808Y-132768152D02*
X145753808Y-133291961D01*
X145753808Y-133291961D02*
X145706189Y-133387200D01*
X145706189Y-133387200D02*
X145610951Y-133434819D01*
X145610951Y-133434819D02*
X145468094Y-133434819D01*
X145468094Y-133434819D02*
X145372856Y-133387200D01*
X145372856Y-133387200D02*
X145325237Y-133339580D01*
X144420475Y-133434819D02*
X144420475Y-132434819D01*
X144420475Y-133387200D02*
X144515713Y-133434819D01*
X144515713Y-133434819D02*
X144706189Y-133434819D01*
X144706189Y-133434819D02*
X144801427Y-133387200D01*
X144801427Y-133387200D02*
X144849046Y-133339580D01*
X144849046Y-133339580D02*
X144896665Y-133244342D01*
X144896665Y-133244342D02*
X144896665Y-132958628D01*
X144896665Y-132958628D02*
X144849046Y-132863390D01*
X144849046Y-132863390D02*
X144801427Y-132815771D01*
X144801427Y-132815771D02*
X144706189Y-132768152D01*
X144706189Y-132768152D02*
X144515713Y-132768152D01*
X144515713Y-132768152D02*
X144420475Y-132815771D01*
X143944284Y-133434819D02*
X143944284Y-132768152D01*
X143944284Y-132434819D02*
X143991903Y-132482438D01*
X143991903Y-132482438D02*
X143944284Y-132530057D01*
X143944284Y-132530057D02*
X143896665Y-132482438D01*
X143896665Y-132482438D02*
X143944284Y-132434819D01*
X143944284Y-132434819D02*
X143944284Y-132530057D01*
X143325237Y-133434819D02*
X143420475Y-133387200D01*
X143420475Y-133387200D02*
X143468094Y-133339580D01*
X143468094Y-133339580D02*
X143515713Y-133244342D01*
X143515713Y-133244342D02*
X143515713Y-132958628D01*
X143515713Y-132958628D02*
X143468094Y-132863390D01*
X143468094Y-132863390D02*
X143420475Y-132815771D01*
X143420475Y-132815771D02*
X143325237Y-132768152D01*
X143325237Y-132768152D02*
X143182380Y-132768152D01*
X143182380Y-132768152D02*
X143087142Y-132815771D01*
X143087142Y-132815771D02*
X143039523Y-132863390D01*
X143039523Y-132863390D02*
X142991904Y-132958628D01*
X142991904Y-132958628D02*
X142991904Y-133244342D01*
X142991904Y-133244342D02*
X143039523Y-133339580D01*
X143039523Y-133339580D02*
X143087142Y-133387200D01*
X143087142Y-133387200D02*
X143182380Y-133434819D01*
X143182380Y-133434819D02*
X143325237Y-133434819D01*
X142563332Y-133434819D02*
X142563332Y-132434819D01*
X142087142Y-132768152D02*
X142087142Y-133434819D01*
X142087142Y-132863390D02*
X142039523Y-132815771D01*
X142039523Y-132815771D02*
X141944285Y-132768152D01*
X141944285Y-132768152D02*
X141801428Y-132768152D01*
X141801428Y-132768152D02*
X141706190Y-132815771D01*
X141706190Y-132815771D02*
X141658571Y-132911009D01*
X141658571Y-132911009D02*
X141658571Y-133434819D01*
X140706190Y-133434819D02*
X141182380Y-133434819D01*
X141182380Y-133434819D02*
X141182380Y-132434819D01*
X119359580Y-70333333D02*
X119407200Y-70285714D01*
X119407200Y-70285714D02*
X119454819Y-70142857D01*
X119454819Y-70142857D02*
X119454819Y-70047619D01*
X119454819Y-70047619D02*
X119407200Y-69904762D01*
X119407200Y-69904762D02*
X119311961Y-69809524D01*
X119311961Y-69809524D02*
X119216723Y-69761905D01*
X119216723Y-69761905D02*
X119026247Y-69714286D01*
X119026247Y-69714286D02*
X118883390Y-69714286D01*
X118883390Y-69714286D02*
X118692914Y-69761905D01*
X118692914Y-69761905D02*
X118597676Y-69809524D01*
X118597676Y-69809524D02*
X118502438Y-69904762D01*
X118502438Y-69904762D02*
X118454819Y-70047619D01*
X118454819Y-70047619D02*
X118454819Y-70142857D01*
X118454819Y-70142857D02*
X118502438Y-70285714D01*
X118502438Y-70285714D02*
X118550057Y-70333333D01*
X118550057Y-70714286D02*
X118502438Y-70761905D01*
X118502438Y-70761905D02*
X118454819Y-70857143D01*
X118454819Y-70857143D02*
X118454819Y-71095238D01*
X118454819Y-71095238D02*
X118502438Y-71190476D01*
X118502438Y-71190476D02*
X118550057Y-71238095D01*
X118550057Y-71238095D02*
X118645295Y-71285714D01*
X118645295Y-71285714D02*
X118740533Y-71285714D01*
X118740533Y-71285714D02*
X118883390Y-71238095D01*
X118883390Y-71238095D02*
X119454819Y-70666667D01*
X119454819Y-70666667D02*
X119454819Y-71285714D01*
X121954819Y-69095237D02*
X121954819Y-68523809D01*
X121954819Y-68809523D02*
X120954819Y-68809523D01*
X120954819Y-68809523D02*
X121097676Y-68714285D01*
X121097676Y-68714285D02*
X121192914Y-68619047D01*
X121192914Y-68619047D02*
X121240533Y-68523809D01*
X120954819Y-69714285D02*
X120954819Y-69809523D01*
X120954819Y-69809523D02*
X121002438Y-69904761D01*
X121002438Y-69904761D02*
X121050057Y-69952380D01*
X121050057Y-69952380D02*
X121145295Y-69999999D01*
X121145295Y-69999999D02*
X121335771Y-70047618D01*
X121335771Y-70047618D02*
X121573866Y-70047618D01*
X121573866Y-70047618D02*
X121764342Y-69999999D01*
X121764342Y-69999999D02*
X121859580Y-69952380D01*
X121859580Y-69952380D02*
X121907200Y-69904761D01*
X121907200Y-69904761D02*
X121954819Y-69809523D01*
X121954819Y-69809523D02*
X121954819Y-69714285D01*
X121954819Y-69714285D02*
X121907200Y-69619047D01*
X121907200Y-69619047D02*
X121859580Y-69571428D01*
X121859580Y-69571428D02*
X121764342Y-69523809D01*
X121764342Y-69523809D02*
X121573866Y-69476190D01*
X121573866Y-69476190D02*
X121335771Y-69476190D01*
X121335771Y-69476190D02*
X121145295Y-69523809D01*
X121145295Y-69523809D02*
X121050057Y-69571428D01*
X121050057Y-69571428D02*
X121002438Y-69619047D01*
X121002438Y-69619047D02*
X120954819Y-69714285D01*
X120954819Y-70666666D02*
X120954819Y-70761904D01*
X120954819Y-70761904D02*
X121002438Y-70857142D01*
X121002438Y-70857142D02*
X121050057Y-70904761D01*
X121050057Y-70904761D02*
X121145295Y-70952380D01*
X121145295Y-70952380D02*
X121335771Y-70999999D01*
X121335771Y-70999999D02*
X121573866Y-70999999D01*
X121573866Y-70999999D02*
X121764342Y-70952380D01*
X121764342Y-70952380D02*
X121859580Y-70904761D01*
X121859580Y-70904761D02*
X121907200Y-70857142D01*
X121907200Y-70857142D02*
X121954819Y-70761904D01*
X121954819Y-70761904D02*
X121954819Y-70666666D01*
X121954819Y-70666666D02*
X121907200Y-70571428D01*
X121907200Y-70571428D02*
X121859580Y-70523809D01*
X121859580Y-70523809D02*
X121764342Y-70476190D01*
X121764342Y-70476190D02*
X121573866Y-70428571D01*
X121573866Y-70428571D02*
X121335771Y-70428571D01*
X121335771Y-70428571D02*
X121145295Y-70476190D01*
X121145295Y-70476190D02*
X121050057Y-70523809D01*
X121050057Y-70523809D02*
X121002438Y-70571428D01*
X121002438Y-70571428D02*
X120954819Y-70666666D01*
X121288152Y-71428571D02*
X121954819Y-71428571D01*
X121383390Y-71428571D02*
X121335771Y-71476190D01*
X121335771Y-71476190D02*
X121288152Y-71571428D01*
X121288152Y-71571428D02*
X121288152Y-71714285D01*
X121288152Y-71714285D02*
X121335771Y-71809523D01*
X121335771Y-71809523D02*
X121431009Y-71857142D01*
X121431009Y-71857142D02*
X121954819Y-71857142D01*
X121288152Y-72190476D02*
X121288152Y-72571428D01*
X121954819Y-72333333D02*
X121097676Y-72333333D01*
X121097676Y-72333333D02*
X121002438Y-72380952D01*
X121002438Y-72380952D02*
X120954819Y-72476190D01*
X120954819Y-72476190D02*
X120954819Y-72571428D01*
X152920057Y-54261905D02*
X152872438Y-54309524D01*
X152872438Y-54309524D02*
X152824819Y-54404762D01*
X152824819Y-54404762D02*
X152824819Y-54642857D01*
X152824819Y-54642857D02*
X152872438Y-54738095D01*
X152872438Y-54738095D02*
X152920057Y-54785714D01*
X152920057Y-54785714D02*
X153015295Y-54833333D01*
X153015295Y-54833333D02*
X153110533Y-54833333D01*
X153110533Y-54833333D02*
X153253390Y-54785714D01*
X153253390Y-54785714D02*
X153824819Y-54214286D01*
X153824819Y-54214286D02*
X153824819Y-54833333D01*
X152920057Y-55214286D02*
X152872438Y-55261905D01*
X152872438Y-55261905D02*
X152824819Y-55357143D01*
X152824819Y-55357143D02*
X152824819Y-55595238D01*
X152824819Y-55595238D02*
X152872438Y-55690476D01*
X152872438Y-55690476D02*
X152920057Y-55738095D01*
X152920057Y-55738095D02*
X153015295Y-55785714D01*
X153015295Y-55785714D02*
X153110533Y-55785714D01*
X153110533Y-55785714D02*
X153253390Y-55738095D01*
X153253390Y-55738095D02*
X153824819Y-55166667D01*
X153824819Y-55166667D02*
X153824819Y-55785714D01*
X152824819Y-56404762D02*
X152824819Y-56500000D01*
X152824819Y-56500000D02*
X152872438Y-56595238D01*
X152872438Y-56595238D02*
X152920057Y-56642857D01*
X152920057Y-56642857D02*
X153015295Y-56690476D01*
X153015295Y-56690476D02*
X153205771Y-56738095D01*
X153205771Y-56738095D02*
X153443866Y-56738095D01*
X153443866Y-56738095D02*
X153634342Y-56690476D01*
X153634342Y-56690476D02*
X153729580Y-56642857D01*
X153729580Y-56642857D02*
X153777200Y-56595238D01*
X153777200Y-56595238D02*
X153824819Y-56500000D01*
X153824819Y-56500000D02*
X153824819Y-56404762D01*
X153824819Y-56404762D02*
X153777200Y-56309524D01*
X153777200Y-56309524D02*
X153729580Y-56261905D01*
X153729580Y-56261905D02*
X153634342Y-56214286D01*
X153634342Y-56214286D02*
X153443866Y-56166667D01*
X153443866Y-56166667D02*
X153205771Y-56166667D01*
X153205771Y-56166667D02*
X153015295Y-56214286D01*
X153015295Y-56214286D02*
X152920057Y-56261905D01*
X152920057Y-56261905D02*
X152872438Y-56309524D01*
X152872438Y-56309524D02*
X152824819Y-56404762D01*
X153824819Y-57738095D02*
X153348628Y-57404762D01*
X153824819Y-57166667D02*
X152824819Y-57166667D01*
X152824819Y-57166667D02*
X152824819Y-57547619D01*
X152824819Y-57547619D02*
X152872438Y-57642857D01*
X152872438Y-57642857D02*
X152920057Y-57690476D01*
X152920057Y-57690476D02*
X153015295Y-57738095D01*
X153015295Y-57738095D02*
X153158152Y-57738095D01*
X153158152Y-57738095D02*
X153253390Y-57690476D01*
X153253390Y-57690476D02*
X153301009Y-57642857D01*
X153301009Y-57642857D02*
X153348628Y-57547619D01*
X153348628Y-57547619D02*
X153348628Y-57166667D01*
X151454819Y-55833333D02*
X150978628Y-55500000D01*
X151454819Y-55261905D02*
X150454819Y-55261905D01*
X150454819Y-55261905D02*
X150454819Y-55642857D01*
X150454819Y-55642857D02*
X150502438Y-55738095D01*
X150502438Y-55738095D02*
X150550057Y-55785714D01*
X150550057Y-55785714D02*
X150645295Y-55833333D01*
X150645295Y-55833333D02*
X150788152Y-55833333D01*
X150788152Y-55833333D02*
X150883390Y-55785714D01*
X150883390Y-55785714D02*
X150931009Y-55738095D01*
X150931009Y-55738095D02*
X150978628Y-55642857D01*
X150978628Y-55642857D02*
X150978628Y-55261905D01*
X151454819Y-56785714D02*
X151454819Y-56214286D01*
X151454819Y-56500000D02*
X150454819Y-56500000D01*
X150454819Y-56500000D02*
X150597676Y-56404762D01*
X150597676Y-56404762D02*
X150692914Y-56309524D01*
X150692914Y-56309524D02*
X150740533Y-56214286D01*
X131714285Y-88169104D02*
X131238095Y-88169104D01*
X131809523Y-88454819D02*
X131476190Y-87454819D01*
X131476190Y-87454819D02*
X131142857Y-88454819D01*
X130285714Y-88454819D02*
X130857142Y-88454819D01*
X130571428Y-88454819D02*
X130571428Y-87454819D01*
X130571428Y-87454819D02*
X130666666Y-87597676D01*
X130666666Y-87597676D02*
X130761904Y-87692914D01*
X130761904Y-87692914D02*
X130857142Y-87740533D01*
X134904761Y-116949819D02*
X134904761Y-115949819D01*
X134904761Y-115949819D02*
X134666666Y-115949819D01*
X134666666Y-115949819D02*
X134523809Y-115997438D01*
X134523809Y-115997438D02*
X134428571Y-116092676D01*
X134428571Y-116092676D02*
X134380952Y-116187914D01*
X134380952Y-116187914D02*
X134333333Y-116378390D01*
X134333333Y-116378390D02*
X134333333Y-116521247D01*
X134333333Y-116521247D02*
X134380952Y-116711723D01*
X134380952Y-116711723D02*
X134428571Y-116806961D01*
X134428571Y-116806961D02*
X134523809Y-116902200D01*
X134523809Y-116902200D02*
X134666666Y-116949819D01*
X134666666Y-116949819D02*
X134904761Y-116949819D01*
X133476190Y-116949819D02*
X133476190Y-116426009D01*
X133476190Y-116426009D02*
X133523809Y-116330771D01*
X133523809Y-116330771D02*
X133619047Y-116283152D01*
X133619047Y-116283152D02*
X133809523Y-116283152D01*
X133809523Y-116283152D02*
X133904761Y-116330771D01*
X133476190Y-116902200D02*
X133571428Y-116949819D01*
X133571428Y-116949819D02*
X133809523Y-116949819D01*
X133809523Y-116949819D02*
X133904761Y-116902200D01*
X133904761Y-116902200D02*
X133952380Y-116806961D01*
X133952380Y-116806961D02*
X133952380Y-116711723D01*
X133952380Y-116711723D02*
X133904761Y-116616485D01*
X133904761Y-116616485D02*
X133809523Y-116568866D01*
X133809523Y-116568866D02*
X133571428Y-116568866D01*
X133571428Y-116568866D02*
X133476190Y-116521247D01*
X132999999Y-116949819D02*
X132999999Y-116283152D01*
X132999999Y-115949819D02*
X133047618Y-115997438D01*
X133047618Y-115997438D02*
X132999999Y-116045057D01*
X132999999Y-116045057D02*
X132952380Y-115997438D01*
X132952380Y-115997438D02*
X132999999Y-115949819D01*
X132999999Y-115949819D02*
X132999999Y-116045057D01*
X132571428Y-116902200D02*
X132476190Y-116949819D01*
X132476190Y-116949819D02*
X132285714Y-116949819D01*
X132285714Y-116949819D02*
X132190476Y-116902200D01*
X132190476Y-116902200D02*
X132142857Y-116806961D01*
X132142857Y-116806961D02*
X132142857Y-116759342D01*
X132142857Y-116759342D02*
X132190476Y-116664104D01*
X132190476Y-116664104D02*
X132285714Y-116616485D01*
X132285714Y-116616485D02*
X132428571Y-116616485D01*
X132428571Y-116616485D02*
X132523809Y-116568866D01*
X132523809Y-116568866D02*
X132571428Y-116473628D01*
X132571428Y-116473628D02*
X132571428Y-116426009D01*
X132571428Y-116426009D02*
X132523809Y-116330771D01*
X132523809Y-116330771D02*
X132428571Y-116283152D01*
X132428571Y-116283152D02*
X132285714Y-116283152D01*
X132285714Y-116283152D02*
X132190476Y-116330771D01*
X131809523Y-116283152D02*
X131571428Y-116949819D01*
X131333333Y-116283152D02*
X131571428Y-116949819D01*
X131571428Y-116949819D02*
X131666666Y-117187914D01*
X131666666Y-117187914D02*
X131714285Y-117235533D01*
X131714285Y-117235533D02*
X131809523Y-117283152D01*
X130238094Y-116902200D02*
X130095237Y-116949819D01*
X130095237Y-116949819D02*
X129857142Y-116949819D01*
X129857142Y-116949819D02*
X129761904Y-116902200D01*
X129761904Y-116902200D02*
X129714285Y-116854580D01*
X129714285Y-116854580D02*
X129666666Y-116759342D01*
X129666666Y-116759342D02*
X129666666Y-116664104D01*
X129666666Y-116664104D02*
X129714285Y-116568866D01*
X129714285Y-116568866D02*
X129761904Y-116521247D01*
X129761904Y-116521247D02*
X129857142Y-116473628D01*
X129857142Y-116473628D02*
X130047618Y-116426009D01*
X130047618Y-116426009D02*
X130142856Y-116378390D01*
X130142856Y-116378390D02*
X130190475Y-116330771D01*
X130190475Y-116330771D02*
X130238094Y-116235533D01*
X130238094Y-116235533D02*
X130238094Y-116140295D01*
X130238094Y-116140295D02*
X130190475Y-116045057D01*
X130190475Y-116045057D02*
X130142856Y-115997438D01*
X130142856Y-115997438D02*
X130047618Y-115949819D01*
X130047618Y-115949819D02*
X129809523Y-115949819D01*
X129809523Y-115949819D02*
X129666666Y-115997438D01*
X128857142Y-116902200D02*
X128952380Y-116949819D01*
X128952380Y-116949819D02*
X129142856Y-116949819D01*
X129142856Y-116949819D02*
X129238094Y-116902200D01*
X129238094Y-116902200D02*
X129285713Y-116806961D01*
X129285713Y-116806961D02*
X129285713Y-116426009D01*
X129285713Y-116426009D02*
X129238094Y-116330771D01*
X129238094Y-116330771D02*
X129142856Y-116283152D01*
X129142856Y-116283152D02*
X128952380Y-116283152D01*
X128952380Y-116283152D02*
X128857142Y-116330771D01*
X128857142Y-116330771D02*
X128809523Y-116426009D01*
X128809523Y-116426009D02*
X128809523Y-116521247D01*
X128809523Y-116521247D02*
X129285713Y-116616485D01*
X127999999Y-116902200D02*
X128095237Y-116949819D01*
X128095237Y-116949819D02*
X128285713Y-116949819D01*
X128285713Y-116949819D02*
X128380951Y-116902200D01*
X128380951Y-116902200D02*
X128428570Y-116806961D01*
X128428570Y-116806961D02*
X128428570Y-116426009D01*
X128428570Y-116426009D02*
X128380951Y-116330771D01*
X128380951Y-116330771D02*
X128285713Y-116283152D01*
X128285713Y-116283152D02*
X128095237Y-116283152D01*
X128095237Y-116283152D02*
X127999999Y-116330771D01*
X127999999Y-116330771D02*
X127952380Y-116426009D01*
X127952380Y-116426009D02*
X127952380Y-116521247D01*
X127952380Y-116521247D02*
X128428570Y-116616485D01*
X127095237Y-116949819D02*
X127095237Y-115949819D01*
X127095237Y-116902200D02*
X127190475Y-116949819D01*
X127190475Y-116949819D02*
X127380951Y-116949819D01*
X127380951Y-116949819D02*
X127476189Y-116902200D01*
X127476189Y-116902200D02*
X127523808Y-116854580D01*
X127523808Y-116854580D02*
X127571427Y-116759342D01*
X127571427Y-116759342D02*
X127571427Y-116473628D01*
X127571427Y-116473628D02*
X127523808Y-116378390D01*
X127523808Y-116378390D02*
X127476189Y-116330771D01*
X127476189Y-116330771D02*
X127380951Y-116283152D01*
X127380951Y-116283152D02*
X127190475Y-116283152D01*
X127190475Y-116283152D02*
X127095237Y-116330771D01*
X110050057Y-67023809D02*
X110002438Y-67071428D01*
X110002438Y-67071428D02*
X109954819Y-67166666D01*
X109954819Y-67166666D02*
X109954819Y-67404761D01*
X109954819Y-67404761D02*
X110002438Y-67499999D01*
X110002438Y-67499999D02*
X110050057Y-67547618D01*
X110050057Y-67547618D02*
X110145295Y-67595237D01*
X110145295Y-67595237D02*
X110240533Y-67595237D01*
X110240533Y-67595237D02*
X110383390Y-67547618D01*
X110383390Y-67547618D02*
X110954819Y-66976190D01*
X110954819Y-66976190D02*
X110954819Y-67595237D01*
X110050057Y-67976190D02*
X110002438Y-68023809D01*
X110002438Y-68023809D02*
X109954819Y-68119047D01*
X109954819Y-68119047D02*
X109954819Y-68357142D01*
X109954819Y-68357142D02*
X110002438Y-68452380D01*
X110002438Y-68452380D02*
X110050057Y-68499999D01*
X110050057Y-68499999D02*
X110145295Y-68547618D01*
X110145295Y-68547618D02*
X110240533Y-68547618D01*
X110240533Y-68547618D02*
X110383390Y-68499999D01*
X110383390Y-68499999D02*
X110954819Y-67928571D01*
X110954819Y-67928571D02*
X110954819Y-68547618D01*
X109954819Y-69166666D02*
X109954819Y-69261904D01*
X109954819Y-69261904D02*
X110002438Y-69357142D01*
X110002438Y-69357142D02*
X110050057Y-69404761D01*
X110050057Y-69404761D02*
X110145295Y-69452380D01*
X110145295Y-69452380D02*
X110335771Y-69499999D01*
X110335771Y-69499999D02*
X110573866Y-69499999D01*
X110573866Y-69499999D02*
X110764342Y-69452380D01*
X110764342Y-69452380D02*
X110859580Y-69404761D01*
X110859580Y-69404761D02*
X110907200Y-69357142D01*
X110907200Y-69357142D02*
X110954819Y-69261904D01*
X110954819Y-69261904D02*
X110954819Y-69166666D01*
X110954819Y-69166666D02*
X110907200Y-69071428D01*
X110907200Y-69071428D02*
X110859580Y-69023809D01*
X110859580Y-69023809D02*
X110764342Y-68976190D01*
X110764342Y-68976190D02*
X110573866Y-68928571D01*
X110573866Y-68928571D02*
X110335771Y-68928571D01*
X110335771Y-68928571D02*
X110145295Y-68976190D01*
X110145295Y-68976190D02*
X110050057Y-69023809D01*
X110050057Y-69023809D02*
X110002438Y-69071428D01*
X110002438Y-69071428D02*
X109954819Y-69166666D01*
X110288152Y-70357142D02*
X110954819Y-70357142D01*
X110288152Y-69928571D02*
X110811961Y-69928571D01*
X110811961Y-69928571D02*
X110907200Y-69976190D01*
X110907200Y-69976190D02*
X110954819Y-70071428D01*
X110954819Y-70071428D02*
X110954819Y-70214285D01*
X110954819Y-70214285D02*
X110907200Y-70309523D01*
X110907200Y-70309523D02*
X110859580Y-70357142D01*
X110288152Y-70690476D02*
X110288152Y-71071428D01*
X110954819Y-70833333D02*
X110097676Y-70833333D01*
X110097676Y-70833333D02*
X110002438Y-70880952D01*
X110002438Y-70880952D02*
X109954819Y-70976190D01*
X109954819Y-70976190D02*
X109954819Y-71071428D01*
X110072814Y-109407678D02*
X110025195Y-109312440D01*
X110025195Y-109312440D02*
X110025195Y-109169583D01*
X110025195Y-109169583D02*
X110072814Y-109026726D01*
X110072814Y-109026726D02*
X110168052Y-108931488D01*
X110168052Y-108931488D02*
X110263290Y-108883869D01*
X110263290Y-108883869D02*
X110453766Y-108836250D01*
X110453766Y-108836250D02*
X110596623Y-108836250D01*
X110596623Y-108836250D02*
X110787099Y-108883869D01*
X110787099Y-108883869D02*
X110882337Y-108931488D01*
X110882337Y-108931488D02*
X110977576Y-109026726D01*
X110977576Y-109026726D02*
X111025195Y-109169583D01*
X111025195Y-109169583D02*
X111025195Y-109264821D01*
X111025195Y-109264821D02*
X110977576Y-109407678D01*
X110977576Y-109407678D02*
X110929956Y-109455297D01*
X110929956Y-109455297D02*
X110596623Y-109455297D01*
X110596623Y-109455297D02*
X110596623Y-109264821D01*
X111025195Y-110312440D02*
X110501385Y-110312440D01*
X110501385Y-110312440D02*
X110406147Y-110264821D01*
X110406147Y-110264821D02*
X110358528Y-110169583D01*
X110358528Y-110169583D02*
X110358528Y-109979107D01*
X110358528Y-109979107D02*
X110406147Y-109883869D01*
X110977576Y-110312440D02*
X111025195Y-110217202D01*
X111025195Y-110217202D02*
X111025195Y-109979107D01*
X111025195Y-109979107D02*
X110977576Y-109883869D01*
X110977576Y-109883869D02*
X110882337Y-109836250D01*
X110882337Y-109836250D02*
X110787099Y-109836250D01*
X110787099Y-109836250D02*
X110691861Y-109883869D01*
X110691861Y-109883869D02*
X110644242Y-109979107D01*
X110644242Y-109979107D02*
X110644242Y-110217202D01*
X110644242Y-110217202D02*
X110596623Y-110312440D01*
X111025195Y-110788631D02*
X110358528Y-110788631D01*
X110453766Y-110788631D02*
X110406147Y-110836250D01*
X110406147Y-110836250D02*
X110358528Y-110931488D01*
X110358528Y-110931488D02*
X110358528Y-111074345D01*
X110358528Y-111074345D02*
X110406147Y-111169583D01*
X110406147Y-111169583D02*
X110501385Y-111217202D01*
X110501385Y-111217202D02*
X111025195Y-111217202D01*
X110501385Y-111217202D02*
X110406147Y-111264821D01*
X110406147Y-111264821D02*
X110358528Y-111360059D01*
X110358528Y-111360059D02*
X110358528Y-111502916D01*
X110358528Y-111502916D02*
X110406147Y-111598155D01*
X110406147Y-111598155D02*
X110501385Y-111645774D01*
X110501385Y-111645774D02*
X111025195Y-111645774D01*
X110977576Y-112502916D02*
X111025195Y-112407678D01*
X111025195Y-112407678D02*
X111025195Y-112217202D01*
X111025195Y-112217202D02*
X110977576Y-112121964D01*
X110977576Y-112121964D02*
X110882337Y-112074345D01*
X110882337Y-112074345D02*
X110501385Y-112074345D01*
X110501385Y-112074345D02*
X110406147Y-112121964D01*
X110406147Y-112121964D02*
X110358528Y-112217202D01*
X110358528Y-112217202D02*
X110358528Y-112407678D01*
X110358528Y-112407678D02*
X110406147Y-112502916D01*
X110406147Y-112502916D02*
X110501385Y-112550535D01*
X110501385Y-112550535D02*
X110596623Y-112550535D01*
X110596623Y-112550535D02*
X110691861Y-112074345D01*
X110025195Y-112836250D02*
X110025195Y-113407678D01*
X111025195Y-113121964D02*
X110025195Y-113121964D01*
X111025195Y-113741012D02*
X110358528Y-113741012D01*
X110549004Y-113741012D02*
X110453766Y-113788631D01*
X110453766Y-113788631D02*
X110406147Y-113836250D01*
X110406147Y-113836250D02*
X110358528Y-113931488D01*
X110358528Y-113931488D02*
X110358528Y-114026726D01*
X111025195Y-114788631D02*
X110501385Y-114788631D01*
X110501385Y-114788631D02*
X110406147Y-114741012D01*
X110406147Y-114741012D02*
X110358528Y-114645774D01*
X110358528Y-114645774D02*
X110358528Y-114455298D01*
X110358528Y-114455298D02*
X110406147Y-114360060D01*
X110977576Y-114788631D02*
X111025195Y-114693393D01*
X111025195Y-114693393D02*
X111025195Y-114455298D01*
X111025195Y-114455298D02*
X110977576Y-114360060D01*
X110977576Y-114360060D02*
X110882337Y-114312441D01*
X110882337Y-114312441D02*
X110787099Y-114312441D01*
X110787099Y-114312441D02*
X110691861Y-114360060D01*
X110691861Y-114360060D02*
X110644242Y-114455298D01*
X110644242Y-114455298D02*
X110644242Y-114693393D01*
X110644242Y-114693393D02*
X110596623Y-114788631D01*
X111025195Y-115264822D02*
X110025195Y-115264822D01*
X110644242Y-115360060D02*
X111025195Y-115645774D01*
X110358528Y-115645774D02*
X110739480Y-115264822D01*
X111025195Y-116598155D02*
X111025195Y-116026727D01*
X111025195Y-116312441D02*
X110025195Y-116312441D01*
X110025195Y-116312441D02*
X110168052Y-116217203D01*
X110168052Y-116217203D02*
X110263290Y-116121965D01*
X110263290Y-116121965D02*
X110310909Y-116026727D01*
X154753808Y-133169104D02*
X154277618Y-133169104D01*
X154849046Y-133454819D02*
X154515713Y-132454819D01*
X154515713Y-132454819D02*
X154182380Y-133454819D01*
X153420475Y-132788152D02*
X153420475Y-133454819D01*
X153849046Y-132788152D02*
X153849046Y-133311961D01*
X153849046Y-133311961D02*
X153801427Y-133407200D01*
X153801427Y-133407200D02*
X153706189Y-133454819D01*
X153706189Y-133454819D02*
X153563332Y-133454819D01*
X153563332Y-133454819D02*
X153468094Y-133407200D01*
X153468094Y-133407200D02*
X153420475Y-133359580D01*
X152515713Y-133454819D02*
X152515713Y-132454819D01*
X152515713Y-133407200D02*
X152610951Y-133454819D01*
X152610951Y-133454819D02*
X152801427Y-133454819D01*
X152801427Y-133454819D02*
X152896665Y-133407200D01*
X152896665Y-133407200D02*
X152944284Y-133359580D01*
X152944284Y-133359580D02*
X152991903Y-133264342D01*
X152991903Y-133264342D02*
X152991903Y-132978628D01*
X152991903Y-132978628D02*
X152944284Y-132883390D01*
X152944284Y-132883390D02*
X152896665Y-132835771D01*
X152896665Y-132835771D02*
X152801427Y-132788152D01*
X152801427Y-132788152D02*
X152610951Y-132788152D01*
X152610951Y-132788152D02*
X152515713Y-132835771D01*
X152039522Y-133454819D02*
X152039522Y-132788152D01*
X152039522Y-132454819D02*
X152087141Y-132502438D01*
X152087141Y-132502438D02*
X152039522Y-132550057D01*
X152039522Y-132550057D02*
X151991903Y-132502438D01*
X151991903Y-132502438D02*
X152039522Y-132454819D01*
X152039522Y-132454819D02*
X152039522Y-132550057D01*
X151420475Y-133454819D02*
X151515713Y-133407200D01*
X151515713Y-133407200D02*
X151563332Y-133359580D01*
X151563332Y-133359580D02*
X151610951Y-133264342D01*
X151610951Y-133264342D02*
X151610951Y-132978628D01*
X151610951Y-132978628D02*
X151563332Y-132883390D01*
X151563332Y-132883390D02*
X151515713Y-132835771D01*
X151515713Y-132835771D02*
X151420475Y-132788152D01*
X151420475Y-132788152D02*
X151277618Y-132788152D01*
X151277618Y-132788152D02*
X151182380Y-132835771D01*
X151182380Y-132835771D02*
X151134761Y-132883390D01*
X151134761Y-132883390D02*
X151087142Y-132978628D01*
X151087142Y-132978628D02*
X151087142Y-133264342D01*
X151087142Y-133264342D02*
X151134761Y-133359580D01*
X151134761Y-133359580D02*
X151182380Y-133407200D01*
X151182380Y-133407200D02*
X151277618Y-133454819D01*
X151277618Y-133454819D02*
X151420475Y-133454819D01*
X150658570Y-133454819D02*
X150658570Y-132454819D01*
X150182380Y-132788152D02*
X150182380Y-133454819D01*
X150182380Y-132883390D02*
X150134761Y-132835771D01*
X150134761Y-132835771D02*
X150039523Y-132788152D01*
X150039523Y-132788152D02*
X149896666Y-132788152D01*
X149896666Y-132788152D02*
X149801428Y-132835771D01*
X149801428Y-132835771D02*
X149753809Y-132931009D01*
X149753809Y-132931009D02*
X149753809Y-133454819D01*
X148706190Y-133454819D02*
X149039523Y-132978628D01*
X149277618Y-133454819D02*
X149277618Y-132454819D01*
X149277618Y-132454819D02*
X148896666Y-132454819D01*
X148896666Y-132454819D02*
X148801428Y-132502438D01*
X148801428Y-132502438D02*
X148753809Y-132550057D01*
X148753809Y-132550057D02*
X148706190Y-132645295D01*
X148706190Y-132645295D02*
X148706190Y-132788152D01*
X148706190Y-132788152D02*
X148753809Y-132883390D01*
X148753809Y-132883390D02*
X148801428Y-132931009D01*
X148801428Y-132931009D02*
X148896666Y-132978628D01*
X148896666Y-132978628D02*
X149277618Y-132978628D01*
X158603333Y-60574819D02*
X158603333Y-61289104D01*
X158603333Y-61289104D02*
X158650952Y-61431961D01*
X158650952Y-61431961D02*
X158746190Y-61527200D01*
X158746190Y-61527200D02*
X158889047Y-61574819D01*
X158889047Y-61574819D02*
X158984285Y-61574819D01*
X158174761Y-60670057D02*
X158127142Y-60622438D01*
X158127142Y-60622438D02*
X158031904Y-60574819D01*
X158031904Y-60574819D02*
X157793809Y-60574819D01*
X157793809Y-60574819D02*
X157698571Y-60622438D01*
X157698571Y-60622438D02*
X157650952Y-60670057D01*
X157650952Y-60670057D02*
X157603333Y-60765295D01*
X157603333Y-60765295D02*
X157603333Y-60860533D01*
X157603333Y-60860533D02*
X157650952Y-61003390D01*
X157650952Y-61003390D02*
X158222380Y-61574819D01*
X158222380Y-61574819D02*
X157603333Y-61574819D01*
X162278096Y-52931009D02*
X162135239Y-52978628D01*
X162135239Y-52978628D02*
X162087620Y-53026247D01*
X162087620Y-53026247D02*
X162040001Y-53121485D01*
X162040001Y-53121485D02*
X162040001Y-53264342D01*
X162040001Y-53264342D02*
X162087620Y-53359580D01*
X162087620Y-53359580D02*
X162135239Y-53407200D01*
X162135239Y-53407200D02*
X162230477Y-53454819D01*
X162230477Y-53454819D02*
X162611429Y-53454819D01*
X162611429Y-53454819D02*
X162611429Y-52454819D01*
X162611429Y-52454819D02*
X162278096Y-52454819D01*
X162278096Y-52454819D02*
X162182858Y-52502438D01*
X162182858Y-52502438D02*
X162135239Y-52550057D01*
X162135239Y-52550057D02*
X162087620Y-52645295D01*
X162087620Y-52645295D02*
X162087620Y-52740533D01*
X162087620Y-52740533D02*
X162135239Y-52835771D01*
X162135239Y-52835771D02*
X162182858Y-52883390D01*
X162182858Y-52883390D02*
X162278096Y-52931009D01*
X162278096Y-52931009D02*
X162611429Y-52931009D01*
X161182858Y-53454819D02*
X161182858Y-52931009D01*
X161182858Y-52931009D02*
X161230477Y-52835771D01*
X161230477Y-52835771D02*
X161325715Y-52788152D01*
X161325715Y-52788152D02*
X161516191Y-52788152D01*
X161516191Y-52788152D02*
X161611429Y-52835771D01*
X161182858Y-53407200D02*
X161278096Y-53454819D01*
X161278096Y-53454819D02*
X161516191Y-53454819D01*
X161516191Y-53454819D02*
X161611429Y-53407200D01*
X161611429Y-53407200D02*
X161659048Y-53311961D01*
X161659048Y-53311961D02*
X161659048Y-53216723D01*
X161659048Y-53216723D02*
X161611429Y-53121485D01*
X161611429Y-53121485D02*
X161516191Y-53073866D01*
X161516191Y-53073866D02*
X161278096Y-53073866D01*
X161278096Y-53073866D02*
X161182858Y-53026247D01*
X160706667Y-53454819D02*
X160706667Y-52788152D01*
X160706667Y-52978628D02*
X160659048Y-52883390D01*
X160659048Y-52883390D02*
X160611429Y-52835771D01*
X160611429Y-52835771D02*
X160516191Y-52788152D01*
X160516191Y-52788152D02*
X160420953Y-52788152D01*
X160087619Y-53454819D02*
X160087619Y-52788152D01*
X160087619Y-52978628D02*
X160040000Y-52883390D01*
X160040000Y-52883390D02*
X159992381Y-52835771D01*
X159992381Y-52835771D02*
X159897143Y-52788152D01*
X159897143Y-52788152D02*
X159801905Y-52788152D01*
X159087619Y-53407200D02*
X159182857Y-53454819D01*
X159182857Y-53454819D02*
X159373333Y-53454819D01*
X159373333Y-53454819D02*
X159468571Y-53407200D01*
X159468571Y-53407200D02*
X159516190Y-53311961D01*
X159516190Y-53311961D02*
X159516190Y-52931009D01*
X159516190Y-52931009D02*
X159468571Y-52835771D01*
X159468571Y-52835771D02*
X159373333Y-52788152D01*
X159373333Y-52788152D02*
X159182857Y-52788152D01*
X159182857Y-52788152D02*
X159087619Y-52835771D01*
X159087619Y-52835771D02*
X159040000Y-52931009D01*
X159040000Y-52931009D02*
X159040000Y-53026247D01*
X159040000Y-53026247D02*
X159516190Y-53121485D01*
X158468571Y-53454819D02*
X158563809Y-53407200D01*
X158563809Y-53407200D02*
X158611428Y-53311961D01*
X158611428Y-53311961D02*
X158611428Y-52454819D01*
X158325714Y-53550057D02*
X157563809Y-53550057D01*
X157039999Y-52454819D02*
X157039999Y-53169104D01*
X157039999Y-53169104D02*
X157087618Y-53311961D01*
X157087618Y-53311961D02*
X157182856Y-53407200D01*
X157182856Y-53407200D02*
X157325713Y-53454819D01*
X157325713Y-53454819D02*
X157420951Y-53454819D01*
X156135237Y-53454819D02*
X156135237Y-52931009D01*
X156135237Y-52931009D02*
X156182856Y-52835771D01*
X156182856Y-52835771D02*
X156278094Y-52788152D01*
X156278094Y-52788152D02*
X156468570Y-52788152D01*
X156468570Y-52788152D02*
X156563808Y-52835771D01*
X156135237Y-53407200D02*
X156230475Y-53454819D01*
X156230475Y-53454819D02*
X156468570Y-53454819D01*
X156468570Y-53454819D02*
X156563808Y-53407200D01*
X156563808Y-53407200D02*
X156611427Y-53311961D01*
X156611427Y-53311961D02*
X156611427Y-53216723D01*
X156611427Y-53216723D02*
X156563808Y-53121485D01*
X156563808Y-53121485D02*
X156468570Y-53073866D01*
X156468570Y-53073866D02*
X156230475Y-53073866D01*
X156230475Y-53073866D02*
X156135237Y-53026247D01*
X155230475Y-53407200D02*
X155325713Y-53454819D01*
X155325713Y-53454819D02*
X155516189Y-53454819D01*
X155516189Y-53454819D02*
X155611427Y-53407200D01*
X155611427Y-53407200D02*
X155659046Y-53359580D01*
X155659046Y-53359580D02*
X155706665Y-53264342D01*
X155706665Y-53264342D02*
X155706665Y-52978628D01*
X155706665Y-52978628D02*
X155659046Y-52883390D01*
X155659046Y-52883390D02*
X155611427Y-52835771D01*
X155611427Y-52835771D02*
X155516189Y-52788152D01*
X155516189Y-52788152D02*
X155325713Y-52788152D01*
X155325713Y-52788152D02*
X155230475Y-52835771D01*
X154801903Y-53454819D02*
X154801903Y-52454819D01*
X154706665Y-53073866D02*
X154420951Y-53454819D01*
X154420951Y-52788152D02*
X154801903Y-53169104D01*
X136325237Y-133169104D02*
X135849047Y-133169104D01*
X136420475Y-133454819D02*
X136087142Y-132454819D01*
X136087142Y-132454819D02*
X135753809Y-133454819D01*
X134991904Y-132788152D02*
X134991904Y-133454819D01*
X135420475Y-132788152D02*
X135420475Y-133311961D01*
X135420475Y-133311961D02*
X135372856Y-133407200D01*
X135372856Y-133407200D02*
X135277618Y-133454819D01*
X135277618Y-133454819D02*
X135134761Y-133454819D01*
X135134761Y-133454819D02*
X135039523Y-133407200D01*
X135039523Y-133407200D02*
X134991904Y-133359580D01*
X134087142Y-133454819D02*
X134087142Y-132454819D01*
X134087142Y-133407200D02*
X134182380Y-133454819D01*
X134182380Y-133454819D02*
X134372856Y-133454819D01*
X134372856Y-133454819D02*
X134468094Y-133407200D01*
X134468094Y-133407200D02*
X134515713Y-133359580D01*
X134515713Y-133359580D02*
X134563332Y-133264342D01*
X134563332Y-133264342D02*
X134563332Y-132978628D01*
X134563332Y-132978628D02*
X134515713Y-132883390D01*
X134515713Y-132883390D02*
X134468094Y-132835771D01*
X134468094Y-132835771D02*
X134372856Y-132788152D01*
X134372856Y-132788152D02*
X134182380Y-132788152D01*
X134182380Y-132788152D02*
X134087142Y-132835771D01*
X133610951Y-133454819D02*
X133610951Y-132788152D01*
X133610951Y-132454819D02*
X133658570Y-132502438D01*
X133658570Y-132502438D02*
X133610951Y-132550057D01*
X133610951Y-132550057D02*
X133563332Y-132502438D01*
X133563332Y-132502438D02*
X133610951Y-132454819D01*
X133610951Y-132454819D02*
X133610951Y-132550057D01*
X132991904Y-133454819D02*
X133087142Y-133407200D01*
X133087142Y-133407200D02*
X133134761Y-133359580D01*
X133134761Y-133359580D02*
X133182380Y-133264342D01*
X133182380Y-133264342D02*
X133182380Y-132978628D01*
X133182380Y-132978628D02*
X133134761Y-132883390D01*
X133134761Y-132883390D02*
X133087142Y-132835771D01*
X133087142Y-132835771D02*
X132991904Y-132788152D01*
X132991904Y-132788152D02*
X132849047Y-132788152D01*
X132849047Y-132788152D02*
X132753809Y-132835771D01*
X132753809Y-132835771D02*
X132706190Y-132883390D01*
X132706190Y-132883390D02*
X132658571Y-132978628D01*
X132658571Y-132978628D02*
X132658571Y-133264342D01*
X132658571Y-133264342D02*
X132706190Y-133359580D01*
X132706190Y-133359580D02*
X132753809Y-133407200D01*
X132753809Y-133407200D02*
X132849047Y-133454819D01*
X132849047Y-133454819D02*
X132991904Y-133454819D01*
X132039523Y-132454819D02*
X131849047Y-132454819D01*
X131849047Y-132454819D02*
X131753809Y-132502438D01*
X131753809Y-132502438D02*
X131658571Y-132597676D01*
X131658571Y-132597676D02*
X131610952Y-132788152D01*
X131610952Y-132788152D02*
X131610952Y-133121485D01*
X131610952Y-133121485D02*
X131658571Y-133311961D01*
X131658571Y-133311961D02*
X131753809Y-133407200D01*
X131753809Y-133407200D02*
X131849047Y-133454819D01*
X131849047Y-133454819D02*
X132039523Y-133454819D01*
X132039523Y-133454819D02*
X132134761Y-133407200D01*
X132134761Y-133407200D02*
X132229999Y-133311961D01*
X132229999Y-133311961D02*
X132277618Y-133121485D01*
X132277618Y-133121485D02*
X132277618Y-132788152D01*
X132277618Y-132788152D02*
X132229999Y-132597676D01*
X132229999Y-132597676D02*
X132134761Y-132502438D01*
X132134761Y-132502438D02*
X132039523Y-132454819D01*
X130753809Y-132788152D02*
X130753809Y-133454819D01*
X131182380Y-132788152D02*
X131182380Y-133311961D01*
X131182380Y-133311961D02*
X131134761Y-133407200D01*
X131134761Y-133407200D02*
X131039523Y-133454819D01*
X131039523Y-133454819D02*
X130896666Y-133454819D01*
X130896666Y-133454819D02*
X130801428Y-133407200D01*
X130801428Y-133407200D02*
X130753809Y-133359580D01*
X130420475Y-132788152D02*
X130039523Y-132788152D01*
X130277618Y-132454819D02*
X130277618Y-133311961D01*
X130277618Y-133311961D02*
X130229999Y-133407200D01*
X130229999Y-133407200D02*
X130134761Y-133454819D01*
X130134761Y-133454819D02*
X130039523Y-133454819D01*
X129134761Y-133454819D02*
X129468094Y-132978628D01*
X129706189Y-133454819D02*
X129706189Y-132454819D01*
X129706189Y-132454819D02*
X129325237Y-132454819D01*
X129325237Y-132454819D02*
X129229999Y-132502438D01*
X129229999Y-132502438D02*
X129182380Y-132550057D01*
X129182380Y-132550057D02*
X129134761Y-132645295D01*
X129134761Y-132645295D02*
X129134761Y-132788152D01*
X129134761Y-132788152D02*
X129182380Y-132883390D01*
X129182380Y-132883390D02*
X129229999Y-132931009D01*
X129229999Y-132931009D02*
X129325237Y-132978628D01*
X129325237Y-132978628D02*
X129706189Y-132978628D01*
X147426203Y-55557937D02*
X146426203Y-55557937D01*
X146426203Y-55557937D02*
X146426203Y-55796032D01*
X146426203Y-55796032D02*
X146473822Y-55938889D01*
X146473822Y-55938889D02*
X146569060Y-56034127D01*
X146569060Y-56034127D02*
X146664298Y-56081746D01*
X146664298Y-56081746D02*
X146854774Y-56129365D01*
X146854774Y-56129365D02*
X146997631Y-56129365D01*
X146997631Y-56129365D02*
X147188107Y-56081746D01*
X147188107Y-56081746D02*
X147283345Y-56034127D01*
X147283345Y-56034127D02*
X147378584Y-55938889D01*
X147378584Y-55938889D02*
X147426203Y-55796032D01*
X147426203Y-55796032D02*
X147426203Y-55557937D01*
X147426203Y-57081746D02*
X147426203Y-56510318D01*
X147426203Y-56796032D02*
X146426203Y-56796032D01*
X146426203Y-56796032D02*
X146569060Y-56700794D01*
X146569060Y-56700794D02*
X146664298Y-56605556D01*
X146664298Y-56605556D02*
X146711917Y-56510318D01*
X128229999Y-133169104D02*
X127753809Y-133169104D01*
X128325237Y-133454819D02*
X127991904Y-132454819D01*
X127991904Y-132454819D02*
X127658571Y-133454819D01*
X126896666Y-132788152D02*
X126896666Y-133454819D01*
X127325237Y-132788152D02*
X127325237Y-133311961D01*
X127325237Y-133311961D02*
X127277618Y-133407200D01*
X127277618Y-133407200D02*
X127182380Y-133454819D01*
X127182380Y-133454819D02*
X127039523Y-133454819D01*
X127039523Y-133454819D02*
X126944285Y-133407200D01*
X126944285Y-133407200D02*
X126896666Y-133359580D01*
X125991904Y-133454819D02*
X125991904Y-132454819D01*
X125991904Y-133407200D02*
X126087142Y-133454819D01*
X126087142Y-133454819D02*
X126277618Y-133454819D01*
X126277618Y-133454819D02*
X126372856Y-133407200D01*
X126372856Y-133407200D02*
X126420475Y-133359580D01*
X126420475Y-133359580D02*
X126468094Y-133264342D01*
X126468094Y-133264342D02*
X126468094Y-132978628D01*
X126468094Y-132978628D02*
X126420475Y-132883390D01*
X126420475Y-132883390D02*
X126372856Y-132835771D01*
X126372856Y-132835771D02*
X126277618Y-132788152D01*
X126277618Y-132788152D02*
X126087142Y-132788152D01*
X126087142Y-132788152D02*
X125991904Y-132835771D01*
X125515713Y-133454819D02*
X125515713Y-132788152D01*
X125515713Y-132454819D02*
X125563332Y-132502438D01*
X125563332Y-132502438D02*
X125515713Y-132550057D01*
X125515713Y-132550057D02*
X125468094Y-132502438D01*
X125468094Y-132502438D02*
X125515713Y-132454819D01*
X125515713Y-132454819D02*
X125515713Y-132550057D01*
X124896666Y-133454819D02*
X124991904Y-133407200D01*
X124991904Y-133407200D02*
X125039523Y-133359580D01*
X125039523Y-133359580D02*
X125087142Y-133264342D01*
X125087142Y-133264342D02*
X125087142Y-132978628D01*
X125087142Y-132978628D02*
X125039523Y-132883390D01*
X125039523Y-132883390D02*
X124991904Y-132835771D01*
X124991904Y-132835771D02*
X124896666Y-132788152D01*
X124896666Y-132788152D02*
X124753809Y-132788152D01*
X124753809Y-132788152D02*
X124658571Y-132835771D01*
X124658571Y-132835771D02*
X124610952Y-132883390D01*
X124610952Y-132883390D02*
X124563333Y-132978628D01*
X124563333Y-132978628D02*
X124563333Y-133264342D01*
X124563333Y-133264342D02*
X124610952Y-133359580D01*
X124610952Y-133359580D02*
X124658571Y-133407200D01*
X124658571Y-133407200D02*
X124753809Y-133454819D01*
X124753809Y-133454819D02*
X124896666Y-133454819D01*
X123944285Y-132454819D02*
X123753809Y-132454819D01*
X123753809Y-132454819D02*
X123658571Y-132502438D01*
X123658571Y-132502438D02*
X123563333Y-132597676D01*
X123563333Y-132597676D02*
X123515714Y-132788152D01*
X123515714Y-132788152D02*
X123515714Y-133121485D01*
X123515714Y-133121485D02*
X123563333Y-133311961D01*
X123563333Y-133311961D02*
X123658571Y-133407200D01*
X123658571Y-133407200D02*
X123753809Y-133454819D01*
X123753809Y-133454819D02*
X123944285Y-133454819D01*
X123944285Y-133454819D02*
X124039523Y-133407200D01*
X124039523Y-133407200D02*
X124134761Y-133311961D01*
X124134761Y-133311961D02*
X124182380Y-133121485D01*
X124182380Y-133121485D02*
X124182380Y-132788152D01*
X124182380Y-132788152D02*
X124134761Y-132597676D01*
X124134761Y-132597676D02*
X124039523Y-132502438D01*
X124039523Y-132502438D02*
X123944285Y-132454819D01*
X122658571Y-132788152D02*
X122658571Y-133454819D01*
X123087142Y-132788152D02*
X123087142Y-133311961D01*
X123087142Y-133311961D02*
X123039523Y-133407200D01*
X123039523Y-133407200D02*
X122944285Y-133454819D01*
X122944285Y-133454819D02*
X122801428Y-133454819D01*
X122801428Y-133454819D02*
X122706190Y-133407200D01*
X122706190Y-133407200D02*
X122658571Y-133359580D01*
X122325237Y-132788152D02*
X121944285Y-132788152D01*
X122182380Y-132454819D02*
X122182380Y-133311961D01*
X122182380Y-133311961D02*
X122134761Y-133407200D01*
X122134761Y-133407200D02*
X122039523Y-133454819D01*
X122039523Y-133454819D02*
X121944285Y-133454819D01*
X121134761Y-133454819D02*
X121610951Y-133454819D01*
X121610951Y-133454819D02*
X121610951Y-132454819D01*
%TO.C,J1*%
D13*
X151990000Y-96080000D02*
X145970000Y-96080000D01*
X151990000Y-94450000D02*
X150990000Y-94450000D01*
X151990000Y-82250000D02*
X150990000Y-82250000D01*
X151990000Y-82000000D02*
X150990000Y-82000000D01*
X151990000Y-80620000D02*
X151990000Y-96080000D01*
X150990000Y-94700000D02*
X151990000Y-94700000D01*
X150990000Y-82000000D02*
X150990000Y-94700000D01*
X150990000Y-82000000D02*
X150460000Y-82250000D01*
X150460000Y-94450000D02*
X150990000Y-94700000D01*
X150460000Y-82250000D02*
X150460000Y-94450000D01*
X147000000Y-80330000D02*
X151000000Y-80330000D01*
X146570000Y-95500000D02*
X145970000Y-95500000D01*
X146570000Y-93900000D02*
X146570000Y-95500000D01*
X146570000Y-92960000D02*
X145970000Y-92960000D01*
X146570000Y-91360000D02*
X146570000Y-92960000D01*
X146570000Y-90420000D02*
X145970000Y-90420000D01*
X146570000Y-88820000D02*
X146570000Y-90420000D01*
X146570000Y-87880000D02*
X145970000Y-87880000D01*
X146570000Y-86280000D02*
X146570000Y-87880000D01*
X146570000Y-85340000D02*
X145970000Y-85340000D01*
X146570000Y-83740000D02*
X146570000Y-85340000D01*
X146570000Y-82800000D02*
X145970000Y-82800000D01*
X146570000Y-81200000D02*
X146570000Y-82800000D01*
X145970000Y-96080000D02*
X145970000Y-80620000D01*
X145970000Y-93900000D02*
X146570000Y-93900000D01*
X145970000Y-91360000D02*
X146570000Y-91360000D01*
X145970000Y-88820000D02*
X146570000Y-88820000D01*
X145970000Y-86280000D02*
X146570000Y-86280000D01*
X145970000Y-83740000D02*
X146570000Y-83740000D01*
X145970000Y-81200000D02*
X146570000Y-81200000D01*
X145970000Y-80620000D02*
X151990000Y-80620000D01*
%TO.C,*%
X99750000Y-44000000D02*
X100250000Y-44000000D01*
X100000000Y-44250000D02*
X100000000Y-43750000D01*
%TO.C,J6*%
X140790000Y-128980000D02*
X140790000Y-124980000D01*
X141080000Y-123990000D02*
X146380000Y-123990000D01*
X141080000Y-130010000D02*
X141080000Y-123990000D01*
X141660000Y-129410000D02*
X143260000Y-129410000D01*
X141660000Y-130010000D02*
X141660000Y-129410000D01*
X142460000Y-123990000D02*
X142460000Y-124990000D01*
X142460000Y-124990000D02*
X142710000Y-125520000D01*
X142460000Y-124990000D02*
X145000000Y-124990000D01*
X142710000Y-123990000D02*
X142710000Y-124990000D01*
X142710000Y-125520000D02*
X144750000Y-125520000D01*
X143260000Y-129410000D02*
X143260000Y-130010000D01*
X144200000Y-129410000D02*
X145800000Y-129410000D01*
X144200000Y-130010000D02*
X144200000Y-129410000D01*
X144750000Y-123990000D02*
X144750000Y-124990000D01*
X144750000Y-125520000D02*
X145000000Y-124990000D01*
X145000000Y-124990000D02*
X145000000Y-123990000D01*
X145800000Y-129410000D02*
X145800000Y-130010000D01*
X146380000Y-123990000D02*
X146380000Y-130010000D01*
X146380000Y-130010000D02*
X141080000Y-130010000D01*
%TO.C,C2*%
X117630000Y-67880000D02*
X117630000Y-73120000D01*
X117630000Y-73120000D02*
X117967000Y-73120000D01*
X117967000Y-67880000D02*
X117630000Y-67880000D01*
X120033000Y-73120000D02*
X120370000Y-73120000D01*
X120370000Y-67880000D02*
X120033000Y-67880000D01*
X120370000Y-73120000D02*
X120370000Y-67880000D01*
%TO.C,R1*%
X149630000Y-52730000D02*
X149630000Y-59270000D01*
X149630000Y-59270000D02*
X149960000Y-59270000D01*
X149960000Y-52730000D02*
X149630000Y-52730000D01*
X152040000Y-52730000D02*
X152370000Y-52730000D01*
X152370000Y-52730000D02*
X152370000Y-59270000D01*
X152370000Y-59270000D02*
X152040000Y-59270000D01*
%TO.C,RV1*%
D11*
X108960000Y-100850786D02*
X116960000Y-100850786D01*
X109008244Y-98143604D02*
X117008244Y-98143604D01*
X111665311Y-100850786D02*
X111665311Y-98143604D01*
X114351177Y-100850786D02*
X114351177Y-98143604D01*
X108960000Y-95500000D02*
X116960000Y-95500000D01*
X116960000Y-103500000D01*
X108960000Y-103500000D01*
X108960000Y-95500000D01*
%TO.C,A1*%
D13*
X122100000Y-64095000D02*
X122100000Y-115095000D01*
X122100000Y-115095000D02*
X139900000Y-115095000D01*
X124620000Y-64095000D02*
X124620000Y-115095000D01*
X127000000Y-62895000D02*
X127000000Y-64095000D01*
X135000000Y-62895000D02*
X127000000Y-62895000D01*
X135000000Y-64095000D02*
X135000000Y-62895000D01*
X137420000Y-64095000D02*
X137420000Y-115095000D01*
X137900000Y-63795000D02*
X140200000Y-63795000D01*
X139900000Y-64095000D02*
X122100000Y-64095000D01*
X139900000Y-115095000D02*
X139900000Y-64095000D01*
X140200000Y-63795000D02*
X140200000Y-66195000D01*
%TO.C,C1*%
X111920000Y-69000000D02*
X113460000Y-69000000D01*
X111920000Y-69040001D02*
X113460000Y-69040000D01*
X111921000Y-69080000D02*
X113460000Y-69080000D01*
X111923000Y-69120000D02*
X113460000Y-69120001D01*
X111925000Y-69160000D02*
X113460000Y-69160000D01*
X111927999Y-69200000D02*
X113460000Y-69200000D01*
X111931000Y-69240000D02*
X113460000Y-69239999D01*
X111935000Y-69280000D02*
X113460000Y-69280000D01*
X111940001Y-69320000D02*
X113460000Y-69320000D01*
X111945000Y-69360000D02*
X113460000Y-69360000D01*
X111951000Y-69400000D02*
X113459999Y-69400000D01*
X111957000Y-69440000D02*
X113460000Y-69440000D01*
X111964000Y-69480000D02*
X113460000Y-69480000D01*
X111972000Y-69520000D02*
X113460000Y-69520000D01*
X111981000Y-69560001D02*
X113460000Y-69560001D01*
X111990000Y-69600000D02*
X113460000Y-69600000D01*
X111999000Y-69640000D02*
X113460000Y-69640000D01*
X112010001Y-69680000D02*
X113460000Y-69679999D01*
X112021000Y-69720000D02*
X113460000Y-69720000D01*
X112033001Y-69760000D02*
X113460000Y-69760000D01*
X112045000Y-69800000D02*
X113460000Y-69800000D01*
X112058000Y-69840000D02*
X113459999Y-69840000D01*
X112072000Y-69880000D02*
X113460000Y-69880000D01*
X112087000Y-69920000D02*
X113460000Y-69920000D01*
X112102000Y-69960000D02*
X113460000Y-69960000D01*
X112118000Y-70000000D02*
X113460000Y-70000001D01*
X112135000Y-70040000D02*
X113460000Y-70040000D01*
X112152999Y-70080000D02*
X113460000Y-70080000D01*
X112171000Y-70120000D02*
X113460000Y-70119999D01*
X112191000Y-70160000D02*
X113460000Y-70160000D01*
X112211000Y-70199999D02*
X113460000Y-70200000D01*
X112232000Y-70240000D02*
X113460000Y-70240000D01*
X112254000Y-70280000D02*
X113459999Y-70280000D01*
X112277000Y-70320000D02*
X113460000Y-70320000D01*
X112301000Y-70360000D02*
X113460000Y-70360000D01*
X112325000Y-70400000D02*
X113460000Y-70400000D01*
X112351000Y-70440000D02*
X113459999Y-70440000D01*
X112378000Y-70480000D02*
X113460000Y-70480000D01*
X112405999Y-70520000D02*
X113460000Y-70520000D01*
X112435000Y-70560000D02*
X113460000Y-70559999D01*
X112465000Y-70600000D02*
X113460000Y-70600001D01*
X112497000Y-70640000D02*
X113460000Y-70640000D01*
X112530000Y-70680000D02*
X113460000Y-70680000D01*
X112564000Y-70720000D02*
X113460000Y-70719999D01*
X112599000Y-70760000D02*
X113460000Y-70760000D01*
X112636000Y-70800000D02*
X113460000Y-70800000D01*
X112675000Y-70840000D02*
X113460000Y-70840000D01*
X112715000Y-70880000D02*
X113459999Y-70880000D01*
X112757000Y-70920000D02*
X113460000Y-70920000D01*
X112775000Y-66445225D02*
X113275000Y-66445225D01*
X112801001Y-70960000D02*
X113460000Y-70960000D01*
X112848000Y-71000000D02*
X113460000Y-71000000D01*
X112896000Y-71040000D02*
X116104000Y-71040000D01*
X112947000Y-71080000D02*
X116053000Y-71080000D01*
X113001000Y-71120000D02*
X115999000Y-71120000D01*
X113025000Y-66195225D02*
X113025000Y-66695225D01*
X113056999Y-71160000D02*
X115943001Y-71160000D01*
X113117000Y-71200000D02*
X115883000Y-71200000D01*
X113181000Y-71240000D02*
X115819000Y-71240000D01*
X113249000Y-71280000D02*
X115751000Y-71280000D01*
X113323000Y-71320000D02*
X115677000Y-71320000D01*
X113402000Y-71360000D02*
X115598000Y-71360000D01*
X113489000Y-71400000D02*
X115511000Y-71400000D01*
X113586000Y-71440000D02*
X115414000Y-71440000D01*
X113695000Y-71480001D02*
X115305000Y-71480001D01*
X113823000Y-71520000D02*
X115177000Y-71520000D01*
X113983000Y-71560000D02*
X115017000Y-71560000D01*
X114217000Y-71600000D02*
X114783000Y-71600000D01*
X115540000Y-69000000D02*
X117080000Y-69000000D01*
X115540000Y-69040000D02*
X117080000Y-69040001D01*
X115540000Y-69080000D02*
X117079000Y-69080000D01*
X115540000Y-69120001D02*
X117077000Y-69120000D01*
X115540000Y-69160000D02*
X117075000Y-69160000D01*
X115540000Y-69200000D02*
X117072001Y-69200000D01*
X115540000Y-69239999D02*
X117069000Y-69240000D01*
X115540000Y-69280000D02*
X117065000Y-69280000D01*
X115540000Y-69320000D02*
X117059999Y-69320000D01*
X115540000Y-69360000D02*
X117055000Y-69360000D01*
X115540000Y-69440000D02*
X117043000Y-69440000D01*
X115540000Y-69480000D02*
X117036000Y-69480000D01*
X115540000Y-69520000D02*
X117028000Y-69520000D01*
X115540000Y-69560001D02*
X117019000Y-69560001D01*
X115540000Y-69600000D02*
X117010000Y-69600000D01*
X115540000Y-69640000D02*
X117001000Y-69640000D01*
X115540000Y-69679999D02*
X116989999Y-69680000D01*
X115540000Y-69720000D02*
X116979000Y-69720000D01*
X115540000Y-69760000D02*
X116966999Y-69760000D01*
X115540000Y-69800000D02*
X116955000Y-69800000D01*
X115540000Y-69880000D02*
X116928000Y-69880000D01*
X115540000Y-69920000D02*
X116913000Y-69920000D01*
X115540000Y-69960000D02*
X116898000Y-69960000D01*
X115540000Y-70000001D02*
X116882000Y-70000000D01*
X115540000Y-70040000D02*
X116865000Y-70040000D01*
X115540000Y-70080000D02*
X116847001Y-70080000D01*
X115540000Y-70119999D02*
X116829000Y-70120000D01*
X115540000Y-70160000D02*
X116809000Y-70160000D01*
X115540000Y-70200000D02*
X116789000Y-70199999D01*
X115540000Y-70240000D02*
X116768000Y-70240000D01*
X115540000Y-70320000D02*
X116723000Y-70320000D01*
X115540000Y-70360000D02*
X116699000Y-70360000D01*
X115540000Y-70400000D02*
X116675000Y-70400000D01*
X115540000Y-70480000D02*
X116622000Y-70480000D01*
X115540000Y-70520000D02*
X116594001Y-70520000D01*
X115540000Y-70559999D02*
X116565000Y-70560000D01*
X115540000Y-70600001D02*
X116535000Y-70600000D01*
X115540000Y-70640000D02*
X116503000Y-70640000D01*
X115540000Y-70680000D02*
X116470000Y-70680000D01*
X115540000Y-70719999D02*
X116436000Y-70720000D01*
X115540000Y-70760000D02*
X116401000Y-70760000D01*
X115540000Y-70800000D02*
X116364000Y-70800000D01*
X115540000Y-70840000D02*
X116325000Y-70840000D01*
X115540000Y-70920000D02*
X116243000Y-70920000D01*
X115540000Y-70960000D02*
X116198999Y-70960000D01*
X115540000Y-71000000D02*
X116152000Y-71000000D01*
X115540001Y-69400000D02*
X117049000Y-69400000D01*
X115540001Y-69840000D02*
X116942000Y-69840000D01*
X115540001Y-70280000D02*
X116746000Y-70280000D01*
X115540001Y-70440000D02*
X116649000Y-70440000D01*
X115540001Y-70880000D02*
X116285000Y-70880000D01*
X117120001Y-69000000D02*
G75*
G02*
X111879999Y-69000000I-2620001J0D01*
G01*
X111879999Y-69000000D02*
G75*
G02*
X117120001Y-69000000I2620001J0D01*
G01*
%TO.C,GameTrak1*%
X107140376Y-105842203D02*
X109800376Y-105842203D01*
X107140376Y-118662203D02*
X107140376Y-105842203D01*
X107140376Y-118662203D02*
X109770376Y-118662203D01*
X109770376Y-118662203D02*
X109800376Y-105842203D01*
X112710376Y-106142203D02*
X116580376Y-106142203D01*
X112710376Y-118362203D02*
X112710376Y-106142203D01*
X114170376Y-106142203D02*
X114170376Y-106542203D01*
X114170376Y-118362203D02*
X114170376Y-117962203D01*
X114570376Y-106542203D02*
X112710376Y-106542203D01*
X114570376Y-106942203D02*
X114570376Y-106542203D01*
X114570376Y-117562203D02*
X114570376Y-117962203D01*
X114570376Y-117962203D02*
X112710376Y-117962203D01*
X114970376Y-106542203D02*
X114970376Y-106942203D01*
X114970376Y-106942203D02*
X114570376Y-106942203D01*
X114970376Y-117562203D02*
X114570376Y-117562203D01*
X114970376Y-117962203D02*
X114970376Y-117562203D01*
X116180376Y-106542203D02*
X114970376Y-106542203D01*
X116180376Y-112252203D02*
X116180376Y-106542203D01*
X116180376Y-112252203D02*
X116180376Y-117962203D01*
X116180376Y-117962203D02*
X114970376Y-117962203D01*
X116580376Y-106142203D02*
X116580376Y-118362203D01*
X116580376Y-118362203D02*
X112710376Y-118362203D01*
X116880376Y-116362203D02*
X116880376Y-118662203D01*
X116880376Y-118662203D02*
X114580376Y-118662203D01*
%TO.C,J5*%
X148790000Y-129000000D02*
X148790000Y-125000000D01*
X149080000Y-124010000D02*
X154380000Y-124010000D01*
X149080000Y-130030000D02*
X149080000Y-124010000D01*
X149660000Y-129430000D02*
X151260000Y-129430000D01*
X149660000Y-130030000D02*
X149660000Y-129430000D01*
X150460000Y-124010000D02*
X150460000Y-125010000D01*
X150460000Y-125010000D02*
X150710000Y-125540000D01*
X150460000Y-125010000D02*
X153000000Y-125010000D01*
X150710000Y-124010000D02*
X150710000Y-125010000D01*
X150710000Y-125540000D02*
X152750000Y-125540000D01*
X151260000Y-129430000D02*
X151260000Y-130030000D01*
X152200000Y-129430000D02*
X153800000Y-129430000D01*
X152200000Y-130030000D02*
X152200000Y-129430000D01*
X152750000Y-124010000D02*
X152750000Y-125010000D01*
X152750000Y-125540000D02*
X153000000Y-125010000D01*
X153000000Y-125010000D02*
X153000000Y-124010000D01*
X153800000Y-129430000D02*
X153800000Y-130030000D01*
X154380000Y-124010000D02*
X154380000Y-130030000D01*
X154380000Y-130030000D02*
X149080000Y-130030000D01*
%TO.C,J2*%
X155330000Y-59000000D02*
X155330000Y-55000000D01*
X155620000Y-54010000D02*
X160920000Y-54010000D01*
X155620000Y-60030000D02*
X155620000Y-54010000D01*
X156200000Y-59430000D02*
X157800000Y-59430000D01*
X156200000Y-60030000D02*
X156200000Y-59430000D01*
X157000000Y-54010000D02*
X157000000Y-55010000D01*
X157000000Y-55010000D02*
X157250000Y-55540000D01*
X157000000Y-55010000D02*
X159540000Y-55010000D01*
X157250000Y-54010000D02*
X157250000Y-55010000D01*
X157250000Y-55540000D02*
X159290000Y-55540000D01*
X157800000Y-59430000D02*
X157800000Y-60030000D01*
X158740000Y-59430000D02*
X160340000Y-59430000D01*
X158740000Y-60030000D02*
X158740000Y-59430000D01*
X159290000Y-54010000D02*
X159290000Y-55010000D01*
X159290000Y-55540000D02*
X159540000Y-55010000D01*
X159540000Y-55010000D02*
X159540000Y-54010000D01*
X160340000Y-59430000D02*
X160340000Y-60030000D01*
X160920000Y-54010000D02*
X160920000Y-60030000D01*
X160920000Y-60030000D02*
X155620000Y-60030000D01*
%TO.C,J4*%
X129790000Y-129000000D02*
X129790000Y-125000000D01*
X130080000Y-124010000D02*
X135380000Y-124010000D01*
X130080000Y-130030000D02*
X130080000Y-124010000D01*
X130660000Y-129430000D02*
X132260000Y-129430000D01*
X130660000Y-130030000D02*
X130660000Y-129430000D01*
X131460000Y-124010000D02*
X131460000Y-125010000D01*
X131460000Y-125010000D02*
X131710000Y-125540000D01*
X131460000Y-125010000D02*
X134000000Y-125010000D01*
X131710000Y-124010000D02*
X131710000Y-125010000D01*
X131710000Y-125540000D02*
X133750000Y-125540000D01*
X132260000Y-129430000D02*
X132260000Y-130030000D01*
X133200000Y-129430000D02*
X134800000Y-129430000D01*
X133200000Y-130030000D02*
X133200000Y-129430000D01*
X133750000Y-124010000D02*
X133750000Y-125010000D01*
X133750000Y-125540000D02*
X134000000Y-125010000D01*
X134000000Y-125010000D02*
X134000000Y-124010000D01*
X134800000Y-129430000D02*
X134800000Y-130030000D01*
X135380000Y-124010000D02*
X135380000Y-130030000D01*
X135380000Y-130030000D02*
X130080000Y-130030000D01*
%TO.C,D1*%
X142601384Y-53216032D02*
X142931384Y-53216032D01*
X142601384Y-59756032D02*
X142601384Y-53216032D01*
X142931384Y-59756032D02*
X142601384Y-59756032D01*
X145011384Y-59756032D02*
X145341384Y-59756032D01*
X145341384Y-53216032D02*
X145011384Y-53216032D01*
X145341384Y-59756032D02*
X145341384Y-53216032D01*
%TO.C,J3*%
X121790000Y-129000000D02*
X121790000Y-125000000D01*
X122080000Y-124010000D02*
X127380000Y-124010000D01*
X122080000Y-130030000D02*
X122080000Y-124010000D01*
X122660000Y-129430000D02*
X124260000Y-129430000D01*
X122660000Y-130030000D02*
X122660000Y-129430000D01*
X123460000Y-124010000D02*
X123460000Y-125010000D01*
X123460000Y-125010000D02*
X123710000Y-125540000D01*
X123460000Y-125010000D02*
X126000000Y-125010000D01*
X123710000Y-124010000D02*
X123710000Y-125010000D01*
X123710000Y-125540000D02*
X125750000Y-125540000D01*
X124260000Y-129430000D02*
X124260000Y-130030000D01*
X125200000Y-129430000D02*
X126800000Y-129430000D01*
X125200000Y-130030000D02*
X125200000Y-129430000D01*
X125750000Y-124010000D02*
X125750000Y-125010000D01*
X125750000Y-125540000D02*
X126000000Y-125010000D01*
X126000000Y-125010000D02*
X126000000Y-124010000D01*
X126800000Y-129430000D02*
X126800000Y-130030000D01*
X127380000Y-124010000D02*
X127380000Y-130030000D01*
X127380000Y-130030000D02*
X122080000Y-130030000D01*
%TD*%
%LPC*%
D14*
%TO.C,J1*%
X149000000Y-94700000D03*
X149000000Y-87080000D03*
X149000000Y-92160000D03*
X149000000Y-84540000D03*
X149000000Y-89620000D03*
D15*
X149000000Y-82000000D03*
%TD*%
D16*
%TO.C,BT4*%
X146380000Y-106840000D03*
D17*
X146380000Y-117000000D03*
X154000000Y-106840000D03*
X154000000Y-117000000D03*
%TD*%
D18*
%TO.C,BT1*%
X109750000Y-52500000D03*
X116250000Y-52500000D03*
X109750000Y-57000000D03*
X116250000Y-57000000D03*
%TD*%
D16*
%TO.C,BT2*%
X146380000Y-64840000D03*
D17*
X146380000Y-75000000D03*
X154000000Y-64840000D03*
X154000000Y-75000000D03*
%TD*%
D19*
%TO.C,SW2*%
X162000000Y-47540000D03*
D20*
X162000000Y-45000000D03*
X162000000Y-42460000D03*
%TD*%
D19*
%TO.C,SW3*%
X113000000Y-127540000D03*
D20*
X113000000Y-125000000D03*
X113000000Y-122460000D03*
%TD*%
D19*
%TO.C,SW1*%
X113000000Y-90540000D03*
D20*
X113000000Y-88000000D03*
X113000000Y-85460000D03*
%TD*%
D18*
%TO.C,BT3*%
X129750000Y-52500000D03*
X136250000Y-52500000D03*
X129750000Y-57000000D03*
X136250000Y-57000000D03*
%TD*%
D16*
%TO.C,LED1*%
X152000000Y-45000000D03*
D17*
X154540000Y-45000000D03*
%TD*%
D21*
%TO.C,J6*%
X142460000Y-126980000D03*
D22*
X145000000Y-126980000D03*
%TD*%
D23*
%TO.C,C2*%
X119000000Y-68000000D03*
X119000000Y-73000000D03*
%TD*%
%TO.C,R1*%
X151000000Y-52190000D03*
X151000000Y-59810000D03*
%TD*%
D24*
%TO.C,RV1*%
X110460000Y-102000000D03*
D25*
X113000000Y-102000000D03*
X115500000Y-102000000D03*
X110460000Y-99460000D03*
X113000000Y-99460000D03*
X115500000Y-99460000D03*
X110460000Y-96920000D03*
X113000000Y-96920000D03*
X115500000Y-96920000D03*
%TD*%
D26*
%TO.C,A1*%
X138620000Y-65495000D03*
D25*
X138620000Y-68035000D03*
X138620000Y-70575000D03*
X138620000Y-73115000D03*
X138620000Y-75655000D03*
X138620000Y-78195000D03*
X138620000Y-80735000D03*
X138620000Y-83275000D03*
X138620000Y-85815000D03*
X138620000Y-88355000D03*
X138620000Y-90895000D03*
X138620000Y-93435000D03*
X138620000Y-95975000D03*
X138620000Y-98515000D03*
X138620000Y-101055000D03*
X138620000Y-103595000D03*
X138620000Y-106135000D03*
X138620000Y-108675000D03*
X138620000Y-111215000D03*
X138620000Y-113755000D03*
X123380000Y-113755000D03*
X123380000Y-111215000D03*
X123380000Y-108675000D03*
X123380000Y-106135000D03*
X123380000Y-103595000D03*
X123380000Y-101055000D03*
X123380000Y-98515000D03*
X123380000Y-95975000D03*
X123380000Y-93435000D03*
X123380000Y-90895000D03*
X123380000Y-88355000D03*
X123380000Y-85815000D03*
X123380000Y-83275000D03*
X123380000Y-80735000D03*
X123380000Y-78195000D03*
X123380000Y-75655000D03*
X123380000Y-73115000D03*
X123380000Y-70575000D03*
X123380000Y-68035000D03*
X123380000Y-65495000D03*
%TD*%
D27*
%TO.C,C1*%
X114500000Y-68000000D03*
D23*
X114500000Y-70000001D03*
%TD*%
D26*
%TO.C,GameTrak1*%
X108470376Y-117332203D03*
D28*
X114970376Y-116252203D03*
D29*
X108470376Y-114792203D03*
D30*
X114970376Y-114252203D03*
D29*
X108470376Y-112252203D03*
D30*
X114970376Y-112252203D03*
X114970376Y-110252203D03*
D29*
X108470376Y-109712203D03*
D30*
X114970376Y-108252203D03*
D29*
X108470376Y-107172203D03*
%TD*%
D21*
%TO.C,J5*%
X150460000Y-127000000D03*
D22*
X153000000Y-127000000D03*
%TD*%
%TO.C,J2*%
X159540000Y-57000000D03*
D21*
X157000000Y-57000000D03*
%TD*%
%TO.C,J4*%
X131460000Y-127000000D03*
D22*
X134000000Y-127000000D03*
%TD*%
D23*
%TO.C,D1*%
X143971384Y-60296032D03*
X143971384Y-52676032D03*
%TD*%
D21*
%TO.C,J3*%
X123460000Y-127000000D03*
D22*
X126000000Y-127000000D03*
%TD*%
%LPD*%
M02*
