%TF.GenerationSoftware,KiCad,Pcbnew,10.0.5*%
%TF.CreationDate,2026-08-11T14:03:18+02:00*%
%TF.ProjectId,STR500_v1.2,53545235-3030-45f7-9631-2e322e6b6963,rev?*%
%TF.SameCoordinates,Original*%
%TF.FileFunction,Legend,Top*%
%TF.FilePolarity,Positive*%
%FSLAX46Y46*%
G04 Gerber Fmt 4.6, Leading zero omitted, Abs format (unit mm)*
G04 Created by KiCad (PCBNEW 10.0.5) date 2026-08-11 14:03:18*
%MOMM*%
%LPD*%
G01*
G04 APERTURE LIST*
G04 Aperture macros list*
%AMRoundRect*
0 Rectangle with rounded corners*
0 $1 Rounding radius*
0 $2 $3 $4 $5 $6 $7 $8 $9 X,Y pos of 4 corners*
0 Add a 4 corners polygon primitive as box body*
4,1,4,$2,$3,$4,$5,$6,$7,$8,$9,$2,$3,0*
0 Add four circle primitives for the rounded corners*
1,1,$1+$1,$2,$3*
1,1,$1+$1,$4,$5*
1,1,$1+$1,$6,$7*
1,1,$1+$1,$8,$9*
0 Add four rect primitives between the rounded corners*
20,1,$1+$1,$2,$3,$4,$5,0*
20,1,$1+$1,$4,$5,$6,$7,0*
20,1,$1+$1,$6,$7,$8,$9,0*
20,1,$1+$1,$8,$9,$2,$3,0*%
G04 Aperture macros list end*
%ADD10C,0.150000*%
%ADD11C,0.120000*%
%ADD12C,0.127000*%
%ADD13C,0.200000*%
%ADD14O,2.190000X1.740000*%
%ADD15RoundRect,0.250000X-0.845000X0.620000X-0.845000X-0.620000X0.845000X-0.620000X0.845000X0.620000X0*%
%ADD16R,1.800000X1.800000*%
%ADD17C,1.800000*%
%ADD18C,2.000000*%
%ADD19RoundRect,0.102000X0.817500X-0.817500X0.817500X0.817500X-0.817500X0.817500X-0.817500X-0.817500X0*%
%ADD20C,1.839000*%
%ADD21RoundRect,0.250000X-0.620000X-0.845000X0.620000X-0.845000X0.620000X0.845000X-0.620000X0.845000X0*%
%ADD22O,1.740000X2.190000*%
%ADD23C,1.600000*%
%ADD24RoundRect,0.250000X-0.600000X-0.600000X0.600000X-0.600000X0.600000X0.600000X-0.600000X0.600000X0*%
%ADD25C,1.700000*%
%ADD26R,1.700000X1.700000*%
%ADD27RoundRect,0.250000X-0.550000X0.550000X-0.550000X-0.550000X0.550000X-0.550000X0.550000X0.550000X0*%
%ADD28RoundRect,0.250000X0.650000X-0.350000X0.650000X0.350000X-0.650000X0.350000X-0.650000X-0.350000X0*%
%ADD29O,1.700000X1.700000*%
%ADD30O,1.800000X1.200000*%
G04 APERTURE END LIST*
D10*
X148822857Y-120294819D02*
X148822857Y-119294819D01*
X148822857Y-119294819D02*
X149203809Y-119294819D01*
X149203809Y-119294819D02*
X149299047Y-119342438D01*
X149299047Y-119342438D02*
X149346666Y-119390057D01*
X149346666Y-119390057D02*
X149394285Y-119485295D01*
X149394285Y-119485295D02*
X149394285Y-119628152D01*
X149394285Y-119628152D02*
X149346666Y-119723390D01*
X149346666Y-119723390D02*
X149299047Y-119771009D01*
X149299047Y-119771009D02*
X149203809Y-119818628D01*
X149203809Y-119818628D02*
X148822857Y-119818628D01*
X149965714Y-120294819D02*
X149870476Y-120247200D01*
X149870476Y-120247200D02*
X149822857Y-120151961D01*
X149822857Y-120151961D02*
X149822857Y-119294819D01*
X150775238Y-120294819D02*
X150775238Y-119771009D01*
X150775238Y-119771009D02*
X150727619Y-119675771D01*
X150727619Y-119675771D02*
X150632381Y-119628152D01*
X150632381Y-119628152D02*
X150441905Y-119628152D01*
X150441905Y-119628152D02*
X150346667Y-119675771D01*
X150775238Y-120247200D02*
X150680000Y-120294819D01*
X150680000Y-120294819D02*
X150441905Y-120294819D01*
X150441905Y-120294819D02*
X150346667Y-120247200D01*
X150346667Y-120247200D02*
X150299048Y-120151961D01*
X150299048Y-120151961D02*
X150299048Y-120056723D01*
X150299048Y-120056723D02*
X150346667Y-119961485D01*
X150346667Y-119961485D02*
X150441905Y-119913866D01*
X150441905Y-119913866D02*
X150680000Y-119913866D01*
X150680000Y-119913866D02*
X150775238Y-119866247D01*
X151156191Y-119628152D02*
X151394286Y-120294819D01*
X151632381Y-119628152D02*
X151394286Y-120294819D01*
X151394286Y-120294819D02*
X151299048Y-120532914D01*
X151299048Y-120532914D02*
X151251429Y-120580533D01*
X151251429Y-120580533D02*
X151156191Y-120628152D01*
X112214285Y-54681009D02*
X112357142Y-54728628D01*
X112357142Y-54728628D02*
X112404761Y-54776247D01*
X112404761Y-54776247D02*
X112452380Y-54871485D01*
X112452380Y-54871485D02*
X112452380Y-55014342D01*
X112452380Y-55014342D02*
X112404761Y-55109580D01*
X112404761Y-55109580D02*
X112357142Y-55157200D01*
X112357142Y-55157200D02*
X112261904Y-55204819D01*
X112261904Y-55204819D02*
X111880952Y-55204819D01*
X111880952Y-55204819D02*
X111880952Y-54204819D01*
X111880952Y-54204819D02*
X112214285Y-54204819D01*
X112214285Y-54204819D02*
X112309523Y-54252438D01*
X112309523Y-54252438D02*
X112357142Y-54300057D01*
X112357142Y-54300057D02*
X112404761Y-54395295D01*
X112404761Y-54395295D02*
X112404761Y-54490533D01*
X112404761Y-54490533D02*
X112357142Y-54585771D01*
X112357142Y-54585771D02*
X112309523Y-54633390D01*
X112309523Y-54633390D02*
X112214285Y-54681009D01*
X112214285Y-54681009D02*
X111880952Y-54681009D01*
X112738095Y-54204819D02*
X113309523Y-54204819D01*
X113023809Y-55204819D02*
X113023809Y-54204819D01*
X114166666Y-55204819D02*
X113595238Y-55204819D01*
X113880952Y-55204819D02*
X113880952Y-54204819D01*
X113880952Y-54204819D02*
X113785714Y-54347676D01*
X113785714Y-54347676D02*
X113690476Y-54442914D01*
X113690476Y-54442914D02*
X113595238Y-54490533D01*
X111309524Y-59607200D02*
X111404762Y-59654819D01*
X111404762Y-59654819D02*
X111595238Y-59654819D01*
X111595238Y-59654819D02*
X111690476Y-59607200D01*
X111690476Y-59607200D02*
X111738095Y-59511961D01*
X111738095Y-59511961D02*
X111738095Y-59464342D01*
X111738095Y-59464342D02*
X111690476Y-59369104D01*
X111690476Y-59369104D02*
X111595238Y-59321485D01*
X111595238Y-59321485D02*
X111452381Y-59321485D01*
X111452381Y-59321485D02*
X111357143Y-59273866D01*
X111357143Y-59273866D02*
X111309524Y-59178628D01*
X111309524Y-59178628D02*
X111309524Y-59131009D01*
X111309524Y-59131009D02*
X111357143Y-59035771D01*
X111357143Y-59035771D02*
X111452381Y-58988152D01*
X111452381Y-58988152D02*
X111595238Y-58988152D01*
X111595238Y-58988152D02*
X111690476Y-59035771D01*
X112547619Y-59607200D02*
X112452381Y-59654819D01*
X112452381Y-59654819D02*
X112261905Y-59654819D01*
X112261905Y-59654819D02*
X112166667Y-59607200D01*
X112166667Y-59607200D02*
X112119048Y-59511961D01*
X112119048Y-59511961D02*
X112119048Y-59131009D01*
X112119048Y-59131009D02*
X112166667Y-59035771D01*
X112166667Y-59035771D02*
X112261905Y-58988152D01*
X112261905Y-58988152D02*
X112452381Y-58988152D01*
X112452381Y-58988152D02*
X112547619Y-59035771D01*
X112547619Y-59035771D02*
X112595238Y-59131009D01*
X112595238Y-59131009D02*
X112595238Y-59226247D01*
X112595238Y-59226247D02*
X112119048Y-59321485D01*
X112880953Y-58988152D02*
X113261905Y-58988152D01*
X113023810Y-58654819D02*
X113023810Y-59511961D01*
X113023810Y-59511961D02*
X113071429Y-59607200D01*
X113071429Y-59607200D02*
X113166667Y-59654819D01*
X113166667Y-59654819D02*
X113261905Y-59654819D01*
X113595239Y-59654819D02*
X113595239Y-58654819D01*
X113595239Y-58654819D02*
X113928572Y-59369104D01*
X113928572Y-59369104D02*
X114261905Y-58654819D01*
X114261905Y-58654819D02*
X114261905Y-59654819D01*
X114738096Y-59654819D02*
X114738096Y-58988152D01*
X114738096Y-58654819D02*
X114690477Y-58702438D01*
X114690477Y-58702438D02*
X114738096Y-58750057D01*
X114738096Y-58750057D02*
X114785715Y-58702438D01*
X114785715Y-58702438D02*
X114738096Y-58654819D01*
X114738096Y-58654819D02*
X114738096Y-58750057D01*
X115214286Y-58988152D02*
X115214286Y-59654819D01*
X115214286Y-59083390D02*
X115261905Y-59035771D01*
X115261905Y-59035771D02*
X115357143Y-58988152D01*
X115357143Y-58988152D02*
X115500000Y-58988152D01*
X115500000Y-58988152D02*
X115595238Y-59035771D01*
X115595238Y-59035771D02*
X115642857Y-59131009D01*
X115642857Y-59131009D02*
X115642857Y-59654819D01*
X148418094Y-78294819D02*
X148084761Y-77818628D01*
X147846666Y-78294819D02*
X147846666Y-77294819D01*
X147846666Y-77294819D02*
X148227618Y-77294819D01*
X148227618Y-77294819D02*
X148322856Y-77342438D01*
X148322856Y-77342438D02*
X148370475Y-77390057D01*
X148370475Y-77390057D02*
X148418094Y-77485295D01*
X148418094Y-77485295D02*
X148418094Y-77628152D01*
X148418094Y-77628152D02*
X148370475Y-77723390D01*
X148370475Y-77723390D02*
X148322856Y-77771009D01*
X148322856Y-77771009D02*
X148227618Y-77818628D01*
X148227618Y-77818628D02*
X147846666Y-77818628D01*
X149227618Y-78247200D02*
X149132380Y-78294819D01*
X149132380Y-78294819D02*
X148941904Y-78294819D01*
X148941904Y-78294819D02*
X148846666Y-78247200D01*
X148846666Y-78247200D02*
X148799047Y-78151961D01*
X148799047Y-78151961D02*
X148799047Y-77771009D01*
X148799047Y-77771009D02*
X148846666Y-77675771D01*
X148846666Y-77675771D02*
X148941904Y-77628152D01*
X148941904Y-77628152D02*
X149132380Y-77628152D01*
X149132380Y-77628152D02*
X149227618Y-77675771D01*
X149227618Y-77675771D02*
X149275237Y-77771009D01*
X149275237Y-77771009D02*
X149275237Y-77866247D01*
X149275237Y-77866247D02*
X148799047Y-77961485D01*
X150132380Y-78247200D02*
X150037142Y-78294819D01*
X150037142Y-78294819D02*
X149846666Y-78294819D01*
X149846666Y-78294819D02*
X149751428Y-78247200D01*
X149751428Y-78247200D02*
X149703809Y-78199580D01*
X149703809Y-78199580D02*
X149656190Y-78104342D01*
X149656190Y-78104342D02*
X149656190Y-77818628D01*
X149656190Y-77818628D02*
X149703809Y-77723390D01*
X149703809Y-77723390D02*
X149751428Y-77675771D01*
X149751428Y-77675771D02*
X149846666Y-77628152D01*
X149846666Y-77628152D02*
X150037142Y-77628152D01*
X150037142Y-77628152D02*
X150132380Y-77675771D01*
X150703809Y-78294819D02*
X150608571Y-78247200D01*
X150608571Y-78247200D02*
X150560952Y-78199580D01*
X150560952Y-78199580D02*
X150513333Y-78104342D01*
X150513333Y-78104342D02*
X150513333Y-77818628D01*
X150513333Y-77818628D02*
X150560952Y-77723390D01*
X150560952Y-77723390D02*
X150608571Y-77675771D01*
X150608571Y-77675771D02*
X150703809Y-77628152D01*
X150703809Y-77628152D02*
X150846666Y-77628152D01*
X150846666Y-77628152D02*
X150941904Y-77675771D01*
X150941904Y-77675771D02*
X150989523Y-77723390D01*
X150989523Y-77723390D02*
X151037142Y-77818628D01*
X151037142Y-77818628D02*
X151037142Y-78104342D01*
X151037142Y-78104342D02*
X150989523Y-78199580D01*
X150989523Y-78199580D02*
X150941904Y-78247200D01*
X150941904Y-78247200D02*
X150846666Y-78294819D01*
X150846666Y-78294819D02*
X150703809Y-78294819D01*
X151465714Y-78294819D02*
X151465714Y-77628152D01*
X151465714Y-77818628D02*
X151513333Y-77723390D01*
X151513333Y-77723390D02*
X151560952Y-77675771D01*
X151560952Y-77675771D02*
X151656190Y-77628152D01*
X151656190Y-77628152D02*
X151751428Y-77628152D01*
X152513333Y-78294819D02*
X152513333Y-77294819D01*
X152513333Y-78247200D02*
X152418095Y-78294819D01*
X152418095Y-78294819D02*
X152227619Y-78294819D01*
X152227619Y-78294819D02*
X152132381Y-78247200D01*
X152132381Y-78247200D02*
X152084762Y-78199580D01*
X152084762Y-78199580D02*
X152037143Y-78104342D01*
X152037143Y-78104342D02*
X152037143Y-77818628D01*
X152037143Y-77818628D02*
X152084762Y-77723390D01*
X152084762Y-77723390D02*
X152132381Y-77675771D01*
X152132381Y-77675771D02*
X152227619Y-77628152D01*
X152227619Y-77628152D02*
X152418095Y-77628152D01*
X152418095Y-77628152D02*
X152513333Y-77675771D01*
X158914700Y-47285832D02*
X158962319Y-47142975D01*
X158962319Y-47142975D02*
X158962319Y-46904880D01*
X158962319Y-46904880D02*
X158914700Y-46809642D01*
X158914700Y-46809642D02*
X158867080Y-46762023D01*
X158867080Y-46762023D02*
X158771842Y-46714404D01*
X158771842Y-46714404D02*
X158676604Y-46714404D01*
X158676604Y-46714404D02*
X158581366Y-46762023D01*
X158581366Y-46762023D02*
X158533747Y-46809642D01*
X158533747Y-46809642D02*
X158486128Y-46904880D01*
X158486128Y-46904880D02*
X158438509Y-47095356D01*
X158438509Y-47095356D02*
X158390890Y-47190594D01*
X158390890Y-47190594D02*
X158343271Y-47238213D01*
X158343271Y-47238213D02*
X158248033Y-47285832D01*
X158248033Y-47285832D02*
X158152795Y-47285832D01*
X158152795Y-47285832D02*
X158057557Y-47238213D01*
X158057557Y-47238213D02*
X158009938Y-47190594D01*
X158009938Y-47190594D02*
X157962319Y-47095356D01*
X157962319Y-47095356D02*
X157962319Y-46857261D01*
X157962319Y-46857261D02*
X158009938Y-46714404D01*
X157962319Y-46381070D02*
X158962319Y-46142975D01*
X158962319Y-46142975D02*
X158248033Y-45952499D01*
X158248033Y-45952499D02*
X158962319Y-45762023D01*
X158962319Y-45762023D02*
X157962319Y-45523928D01*
X158057557Y-45190594D02*
X158009938Y-45142975D01*
X158009938Y-45142975D02*
X157962319Y-45047737D01*
X157962319Y-45047737D02*
X157962319Y-44809642D01*
X157962319Y-44809642D02*
X158009938Y-44714404D01*
X158009938Y-44714404D02*
X158057557Y-44666785D01*
X158057557Y-44666785D02*
X158152795Y-44619166D01*
X158152795Y-44619166D02*
X158248033Y-44619166D01*
X158248033Y-44619166D02*
X158390890Y-44666785D01*
X158390890Y-44666785D02*
X158962319Y-45238213D01*
X158962319Y-45238213D02*
X158962319Y-44619166D01*
X157619047Y-51454819D02*
X157619047Y-50454819D01*
X157619047Y-50454819D02*
X157999999Y-50454819D01*
X157999999Y-50454819D02*
X158095237Y-50502438D01*
X158095237Y-50502438D02*
X158142856Y-50550057D01*
X158142856Y-50550057D02*
X158190475Y-50645295D01*
X158190475Y-50645295D02*
X158190475Y-50788152D01*
X158190475Y-50788152D02*
X158142856Y-50883390D01*
X158142856Y-50883390D02*
X158095237Y-50931009D01*
X158095237Y-50931009D02*
X157999999Y-50978628D01*
X157999999Y-50978628D02*
X157619047Y-50978628D01*
X158761904Y-51454819D02*
X158666666Y-51407200D01*
X158666666Y-51407200D02*
X158619047Y-51359580D01*
X158619047Y-51359580D02*
X158571428Y-51264342D01*
X158571428Y-51264342D02*
X158571428Y-50978628D01*
X158571428Y-50978628D02*
X158619047Y-50883390D01*
X158619047Y-50883390D02*
X158666666Y-50835771D01*
X158666666Y-50835771D02*
X158761904Y-50788152D01*
X158761904Y-50788152D02*
X158904761Y-50788152D01*
X158904761Y-50788152D02*
X158999999Y-50835771D01*
X158999999Y-50835771D02*
X159047618Y-50883390D01*
X159047618Y-50883390D02*
X159095237Y-50978628D01*
X159095237Y-50978628D02*
X159095237Y-51264342D01*
X159095237Y-51264342D02*
X159047618Y-51359580D01*
X159047618Y-51359580D02*
X158999999Y-51407200D01*
X158999999Y-51407200D02*
X158904761Y-51454819D01*
X158904761Y-51454819D02*
X158761904Y-51454819D01*
X159428571Y-50788152D02*
X159619047Y-51454819D01*
X159619047Y-51454819D02*
X159809523Y-50978628D01*
X159809523Y-50978628D02*
X159999999Y-51454819D01*
X159999999Y-51454819D02*
X160190475Y-50788152D01*
X160952380Y-51407200D02*
X160857142Y-51454819D01*
X160857142Y-51454819D02*
X160666666Y-51454819D01*
X160666666Y-51454819D02*
X160571428Y-51407200D01*
X160571428Y-51407200D02*
X160523809Y-51311961D01*
X160523809Y-51311961D02*
X160523809Y-50931009D01*
X160523809Y-50931009D02*
X160571428Y-50835771D01*
X160571428Y-50835771D02*
X160666666Y-50788152D01*
X160666666Y-50788152D02*
X160857142Y-50788152D01*
X160857142Y-50788152D02*
X160952380Y-50835771D01*
X160952380Y-50835771D02*
X160999999Y-50931009D01*
X160999999Y-50931009D02*
X160999999Y-51026247D01*
X160999999Y-51026247D02*
X160523809Y-51121485D01*
X161428571Y-51454819D02*
X161428571Y-50788152D01*
X161428571Y-50978628D02*
X161476190Y-50883390D01*
X161476190Y-50883390D02*
X161523809Y-50835771D01*
X161523809Y-50835771D02*
X161619047Y-50788152D01*
X161619047Y-50788152D02*
X161714285Y-50788152D01*
X162000000Y-51407200D02*
X162142857Y-51454819D01*
X162142857Y-51454819D02*
X162380952Y-51454819D01*
X162380952Y-51454819D02*
X162476190Y-51407200D01*
X162476190Y-51407200D02*
X162523809Y-51359580D01*
X162523809Y-51359580D02*
X162571428Y-51264342D01*
X162571428Y-51264342D02*
X162571428Y-51169104D01*
X162571428Y-51169104D02*
X162523809Y-51073866D01*
X162523809Y-51073866D02*
X162476190Y-51026247D01*
X162476190Y-51026247D02*
X162380952Y-50978628D01*
X162380952Y-50978628D02*
X162190476Y-50931009D01*
X162190476Y-50931009D02*
X162095238Y-50883390D01*
X162095238Y-50883390D02*
X162047619Y-50835771D01*
X162047619Y-50835771D02*
X162000000Y-50740533D01*
X162000000Y-50740533D02*
X162000000Y-50645295D01*
X162000000Y-50645295D02*
X162047619Y-50550057D01*
X162047619Y-50550057D02*
X162095238Y-50502438D01*
X162095238Y-50502438D02*
X162190476Y-50454819D01*
X162190476Y-50454819D02*
X162428571Y-50454819D01*
X162428571Y-50454819D02*
X162571428Y-50502438D01*
X162904762Y-50788152D02*
X163095238Y-51454819D01*
X163095238Y-51454819D02*
X163285714Y-50978628D01*
X163285714Y-50978628D02*
X163476190Y-51454819D01*
X163476190Y-51454819D02*
X163666666Y-50788152D01*
X164047619Y-51454819D02*
X164047619Y-50788152D01*
X164047619Y-50454819D02*
X164000000Y-50502438D01*
X164000000Y-50502438D02*
X164047619Y-50550057D01*
X164047619Y-50550057D02*
X164095238Y-50502438D01*
X164095238Y-50502438D02*
X164047619Y-50454819D01*
X164047619Y-50454819D02*
X164047619Y-50550057D01*
X164380952Y-50788152D02*
X164761904Y-50788152D01*
X164523809Y-50454819D02*
X164523809Y-51311961D01*
X164523809Y-51311961D02*
X164571428Y-51407200D01*
X164571428Y-51407200D02*
X164666666Y-51454819D01*
X164666666Y-51454819D02*
X164761904Y-51454819D01*
X165523809Y-51407200D02*
X165428571Y-51454819D01*
X165428571Y-51454819D02*
X165238095Y-51454819D01*
X165238095Y-51454819D02*
X165142857Y-51407200D01*
X165142857Y-51407200D02*
X165095238Y-51359580D01*
X165095238Y-51359580D02*
X165047619Y-51264342D01*
X165047619Y-51264342D02*
X165047619Y-50978628D01*
X165047619Y-50978628D02*
X165095238Y-50883390D01*
X165095238Y-50883390D02*
X165142857Y-50835771D01*
X165142857Y-50835771D02*
X165238095Y-50788152D01*
X165238095Y-50788152D02*
X165428571Y-50788152D01*
X165428571Y-50788152D02*
X165523809Y-50835771D01*
X165952381Y-51454819D02*
X165952381Y-50454819D01*
X166380952Y-51454819D02*
X166380952Y-50931009D01*
X166380952Y-50931009D02*
X166333333Y-50835771D01*
X166333333Y-50835771D02*
X166238095Y-50788152D01*
X166238095Y-50788152D02*
X166095238Y-50788152D01*
X166095238Y-50788152D02*
X166000000Y-50835771D01*
X166000000Y-50835771D02*
X165952381Y-50883390D01*
X107931009Y-127357143D02*
X107931009Y-127690476D01*
X108454819Y-127690476D02*
X107454819Y-127690476D01*
X107454819Y-127690476D02*
X107454819Y-127214286D01*
X108454819Y-126833333D02*
X107788152Y-126833333D01*
X107454819Y-126833333D02*
X107502438Y-126880952D01*
X107502438Y-126880952D02*
X107550057Y-126833333D01*
X107550057Y-126833333D02*
X107502438Y-126785714D01*
X107502438Y-126785714D02*
X107454819Y-126833333D01*
X107454819Y-126833333D02*
X107550057Y-126833333D01*
X108454819Y-126214286D02*
X108407200Y-126309524D01*
X108407200Y-126309524D02*
X108311961Y-126357143D01*
X108311961Y-126357143D02*
X107454819Y-126357143D01*
X107788152Y-125976190D02*
X107788152Y-125595238D01*
X107454819Y-125833333D02*
X108311961Y-125833333D01*
X108311961Y-125833333D02*
X108407200Y-125785714D01*
X108407200Y-125785714D02*
X108454819Y-125690476D01*
X108454819Y-125690476D02*
X108454819Y-125595238D01*
X108407200Y-124880952D02*
X108454819Y-124976190D01*
X108454819Y-124976190D02*
X108454819Y-125166666D01*
X108454819Y-125166666D02*
X108407200Y-125261904D01*
X108407200Y-125261904D02*
X108311961Y-125309523D01*
X108311961Y-125309523D02*
X107931009Y-125309523D01*
X107931009Y-125309523D02*
X107835771Y-125261904D01*
X107835771Y-125261904D02*
X107788152Y-125166666D01*
X107788152Y-125166666D02*
X107788152Y-124976190D01*
X107788152Y-124976190D02*
X107835771Y-124880952D01*
X107835771Y-124880952D02*
X107931009Y-124833333D01*
X107931009Y-124833333D02*
X108026247Y-124833333D01*
X108026247Y-124833333D02*
X108121485Y-125309523D01*
X108454819Y-124404761D02*
X107788152Y-124404761D01*
X107978628Y-124404761D02*
X107883390Y-124357142D01*
X107883390Y-124357142D02*
X107835771Y-124309523D01*
X107835771Y-124309523D02*
X107788152Y-124214285D01*
X107788152Y-124214285D02*
X107788152Y-124119047D01*
X107454819Y-123595237D02*
X107454819Y-123404761D01*
X107454819Y-123404761D02*
X107502438Y-123309523D01*
X107502438Y-123309523D02*
X107597676Y-123214285D01*
X107597676Y-123214285D02*
X107788152Y-123166666D01*
X107788152Y-123166666D02*
X108121485Y-123166666D01*
X108121485Y-123166666D02*
X108311961Y-123214285D01*
X108311961Y-123214285D02*
X108407200Y-123309523D01*
X108407200Y-123309523D02*
X108454819Y-123404761D01*
X108454819Y-123404761D02*
X108454819Y-123595237D01*
X108454819Y-123595237D02*
X108407200Y-123690475D01*
X108407200Y-123690475D02*
X108311961Y-123785713D01*
X108311961Y-123785713D02*
X108121485Y-123833332D01*
X108121485Y-123833332D02*
X107788152Y-123833332D01*
X107788152Y-123833332D02*
X107597676Y-123785713D01*
X107597676Y-123785713D02*
X107502438Y-123690475D01*
X107502438Y-123690475D02*
X107454819Y-123595237D01*
X107788152Y-122738094D02*
X108454819Y-122738094D01*
X107883390Y-122738094D02*
X107835771Y-122690475D01*
X107835771Y-122690475D02*
X107788152Y-122595237D01*
X107788152Y-122595237D02*
X107788152Y-122452380D01*
X107788152Y-122452380D02*
X107835771Y-122357142D01*
X107835771Y-122357142D02*
X107931009Y-122309523D01*
X107931009Y-122309523D02*
X108454819Y-122309523D01*
X108454819Y-90642856D02*
X107454819Y-90642856D01*
X107454819Y-90642856D02*
X107454819Y-90261904D01*
X107454819Y-90261904D02*
X107502438Y-90166666D01*
X107502438Y-90166666D02*
X107550057Y-90119047D01*
X107550057Y-90119047D02*
X107645295Y-90071428D01*
X107645295Y-90071428D02*
X107788152Y-90071428D01*
X107788152Y-90071428D02*
X107883390Y-90119047D01*
X107883390Y-90119047D02*
X107931009Y-90166666D01*
X107931009Y-90166666D02*
X107978628Y-90261904D01*
X107978628Y-90261904D02*
X107978628Y-90642856D01*
X108454819Y-89642856D02*
X107788152Y-89642856D01*
X107454819Y-89642856D02*
X107502438Y-89690475D01*
X107502438Y-89690475D02*
X107550057Y-89642856D01*
X107550057Y-89642856D02*
X107502438Y-89595237D01*
X107502438Y-89595237D02*
X107454819Y-89642856D01*
X107454819Y-89642856D02*
X107550057Y-89642856D01*
X107788152Y-89309523D02*
X107788152Y-88928571D01*
X107454819Y-89166666D02*
X108311961Y-89166666D01*
X108311961Y-89166666D02*
X108407200Y-89119047D01*
X108407200Y-89119047D02*
X108454819Y-89023809D01*
X108454819Y-89023809D02*
X108454819Y-88928571D01*
X108407200Y-88166666D02*
X108454819Y-88261904D01*
X108454819Y-88261904D02*
X108454819Y-88452380D01*
X108454819Y-88452380D02*
X108407200Y-88547618D01*
X108407200Y-88547618D02*
X108359580Y-88595237D01*
X108359580Y-88595237D02*
X108264342Y-88642856D01*
X108264342Y-88642856D02*
X107978628Y-88642856D01*
X107978628Y-88642856D02*
X107883390Y-88595237D01*
X107883390Y-88595237D02*
X107835771Y-88547618D01*
X107835771Y-88547618D02*
X107788152Y-88452380D01*
X107788152Y-88452380D02*
X107788152Y-88261904D01*
X107788152Y-88261904D02*
X107835771Y-88166666D01*
X108454819Y-87738094D02*
X107454819Y-87738094D01*
X108454819Y-87309523D02*
X107931009Y-87309523D01*
X107931009Y-87309523D02*
X107835771Y-87357142D01*
X107835771Y-87357142D02*
X107788152Y-87452380D01*
X107788152Y-87452380D02*
X107788152Y-87595237D01*
X107788152Y-87595237D02*
X107835771Y-87690475D01*
X107835771Y-87690475D02*
X107883390Y-87738094D01*
X107454819Y-86642856D02*
X107454819Y-86452380D01*
X107454819Y-86452380D02*
X107502438Y-86357142D01*
X107502438Y-86357142D02*
X107597676Y-86261904D01*
X107597676Y-86261904D02*
X107788152Y-86214285D01*
X107788152Y-86214285D02*
X108121485Y-86214285D01*
X108121485Y-86214285D02*
X108311961Y-86261904D01*
X108311961Y-86261904D02*
X108407200Y-86357142D01*
X108407200Y-86357142D02*
X108454819Y-86452380D01*
X108454819Y-86452380D02*
X108454819Y-86642856D01*
X108454819Y-86642856D02*
X108407200Y-86738094D01*
X108407200Y-86738094D02*
X108311961Y-86833332D01*
X108311961Y-86833332D02*
X108121485Y-86880951D01*
X108121485Y-86880951D02*
X107788152Y-86880951D01*
X107788152Y-86880951D02*
X107597676Y-86833332D01*
X107597676Y-86833332D02*
X107502438Y-86738094D01*
X107502438Y-86738094D02*
X107454819Y-86642856D01*
X107788152Y-85785713D02*
X108454819Y-85785713D01*
X107883390Y-85785713D02*
X107835771Y-85738094D01*
X107835771Y-85738094D02*
X107788152Y-85642856D01*
X107788152Y-85642856D02*
X107788152Y-85499999D01*
X107788152Y-85499999D02*
X107835771Y-85404761D01*
X107835771Y-85404761D02*
X107931009Y-85357142D01*
X107931009Y-85357142D02*
X108454819Y-85357142D01*
X132214285Y-54681009D02*
X132357142Y-54728628D01*
X132357142Y-54728628D02*
X132404761Y-54776247D01*
X132404761Y-54776247D02*
X132452380Y-54871485D01*
X132452380Y-54871485D02*
X132452380Y-55014342D01*
X132452380Y-55014342D02*
X132404761Y-55109580D01*
X132404761Y-55109580D02*
X132357142Y-55157200D01*
X132357142Y-55157200D02*
X132261904Y-55204819D01*
X132261904Y-55204819D02*
X131880952Y-55204819D01*
X131880952Y-55204819D02*
X131880952Y-54204819D01*
X131880952Y-54204819D02*
X132214285Y-54204819D01*
X132214285Y-54204819D02*
X132309523Y-54252438D01*
X132309523Y-54252438D02*
X132357142Y-54300057D01*
X132357142Y-54300057D02*
X132404761Y-54395295D01*
X132404761Y-54395295D02*
X132404761Y-54490533D01*
X132404761Y-54490533D02*
X132357142Y-54585771D01*
X132357142Y-54585771D02*
X132309523Y-54633390D01*
X132309523Y-54633390D02*
X132214285Y-54681009D01*
X132214285Y-54681009D02*
X131880952Y-54681009D01*
X132738095Y-54204819D02*
X133309523Y-54204819D01*
X133023809Y-55204819D02*
X133023809Y-54204819D01*
X133547619Y-54204819D02*
X134166666Y-54204819D01*
X134166666Y-54204819D02*
X133833333Y-54585771D01*
X133833333Y-54585771D02*
X133976190Y-54585771D01*
X133976190Y-54585771D02*
X134071428Y-54633390D01*
X134071428Y-54633390D02*
X134119047Y-54681009D01*
X134119047Y-54681009D02*
X134166666Y-54776247D01*
X134166666Y-54776247D02*
X134166666Y-55014342D01*
X134166666Y-55014342D02*
X134119047Y-55109580D01*
X134119047Y-55109580D02*
X134071428Y-55157200D01*
X134071428Y-55157200D02*
X133976190Y-55204819D01*
X133976190Y-55204819D02*
X133690476Y-55204819D01*
X133690476Y-55204819D02*
X133595238Y-55157200D01*
X133595238Y-55157200D02*
X133547619Y-55109580D01*
X131142857Y-59607200D02*
X131238095Y-59654819D01*
X131238095Y-59654819D02*
X131428571Y-59654819D01*
X131428571Y-59654819D02*
X131523809Y-59607200D01*
X131523809Y-59607200D02*
X131571428Y-59511961D01*
X131571428Y-59511961D02*
X131571428Y-59464342D01*
X131571428Y-59464342D02*
X131523809Y-59369104D01*
X131523809Y-59369104D02*
X131428571Y-59321485D01*
X131428571Y-59321485D02*
X131285714Y-59321485D01*
X131285714Y-59321485D02*
X131190476Y-59273866D01*
X131190476Y-59273866D02*
X131142857Y-59178628D01*
X131142857Y-59178628D02*
X131142857Y-59131009D01*
X131142857Y-59131009D02*
X131190476Y-59035771D01*
X131190476Y-59035771D02*
X131285714Y-58988152D01*
X131285714Y-58988152D02*
X131428571Y-58988152D01*
X131428571Y-58988152D02*
X131523809Y-59035771D01*
X132380952Y-59607200D02*
X132285714Y-59654819D01*
X132285714Y-59654819D02*
X132095238Y-59654819D01*
X132095238Y-59654819D02*
X132000000Y-59607200D01*
X132000000Y-59607200D02*
X131952381Y-59511961D01*
X131952381Y-59511961D02*
X131952381Y-59131009D01*
X131952381Y-59131009D02*
X132000000Y-59035771D01*
X132000000Y-59035771D02*
X132095238Y-58988152D01*
X132095238Y-58988152D02*
X132285714Y-58988152D01*
X132285714Y-58988152D02*
X132380952Y-59035771D01*
X132380952Y-59035771D02*
X132428571Y-59131009D01*
X132428571Y-59131009D02*
X132428571Y-59226247D01*
X132428571Y-59226247D02*
X131952381Y-59321485D01*
X132714286Y-58988152D02*
X133095238Y-58988152D01*
X132857143Y-58654819D02*
X132857143Y-59511961D01*
X132857143Y-59511961D02*
X132904762Y-59607200D01*
X132904762Y-59607200D02*
X133000000Y-59654819D01*
X133000000Y-59654819D02*
X133095238Y-59654819D01*
X133428572Y-59654819D02*
X133428572Y-58654819D01*
X133428572Y-58654819D02*
X133761905Y-59369104D01*
X133761905Y-59369104D02*
X134095238Y-58654819D01*
X134095238Y-58654819D02*
X134095238Y-59654819D01*
X135000000Y-59654819D02*
X135000000Y-59131009D01*
X135000000Y-59131009D02*
X134952381Y-59035771D01*
X134952381Y-59035771D02*
X134857143Y-58988152D01*
X134857143Y-58988152D02*
X134666667Y-58988152D01*
X134666667Y-58988152D02*
X134571429Y-59035771D01*
X135000000Y-59607200D02*
X134904762Y-59654819D01*
X134904762Y-59654819D02*
X134666667Y-59654819D01*
X134666667Y-59654819D02*
X134571429Y-59607200D01*
X134571429Y-59607200D02*
X134523810Y-59511961D01*
X134523810Y-59511961D02*
X134523810Y-59416723D01*
X134523810Y-59416723D02*
X134571429Y-59321485D01*
X134571429Y-59321485D02*
X134666667Y-59273866D01*
X134666667Y-59273866D02*
X134904762Y-59273866D01*
X134904762Y-59273866D02*
X135000000Y-59226247D01*
X135380953Y-59654819D02*
X135904762Y-58988152D01*
X135380953Y-58988152D02*
X135904762Y-59654819D01*
X152150952Y-41494819D02*
X151674762Y-41494819D01*
X151674762Y-41494819D02*
X151674762Y-40494819D01*
X152484286Y-40971009D02*
X152817619Y-40971009D01*
X152960476Y-41494819D02*
X152484286Y-41494819D01*
X152484286Y-41494819D02*
X152484286Y-40494819D01*
X152484286Y-40494819D02*
X152960476Y-40494819D01*
X153389048Y-41494819D02*
X153389048Y-40494819D01*
X153389048Y-40494819D02*
X153627143Y-40494819D01*
X153627143Y-40494819D02*
X153770000Y-40542438D01*
X153770000Y-40542438D02*
X153865238Y-40637676D01*
X153865238Y-40637676D02*
X153912857Y-40732914D01*
X153912857Y-40732914D02*
X153960476Y-40923390D01*
X153960476Y-40923390D02*
X153960476Y-41066247D01*
X153960476Y-41066247D02*
X153912857Y-41256723D01*
X153912857Y-41256723D02*
X153865238Y-41351961D01*
X153865238Y-41351961D02*
X153770000Y-41447200D01*
X153770000Y-41447200D02*
X153627143Y-41494819D01*
X153627143Y-41494819D02*
X153389048Y-41494819D01*
X154912857Y-41494819D02*
X154341429Y-41494819D01*
X154627143Y-41494819D02*
X154627143Y-40494819D01*
X154627143Y-40494819D02*
X154531905Y-40637676D01*
X154531905Y-40637676D02*
X154436667Y-40732914D01*
X154436667Y-40732914D02*
X154341429Y-40780533D01*
%TO.C,BT4*%
D11*
X145030000Y-105940000D02*
X145030000Y-116950000D01*
X147540000Y-117080000D02*
X152840000Y-117080000D01*
X152840000Y-106760000D02*
X150190000Y-106760000D01*
X155350000Y-106880000D02*
X155350000Y-116960000D01*
%TO.C,BT1*%
X109500000Y-54000000D02*
X109500000Y-55500000D01*
X110750000Y-58000000D02*
X115250000Y-58000000D01*
X115250000Y-51500000D02*
X110750000Y-51500000D01*
X116500000Y-55500000D02*
X116500000Y-54000000D01*
%TO.C,BT2*%
X145030000Y-63940000D02*
X145030000Y-74950000D01*
X147540000Y-75080000D02*
X152840000Y-75080000D01*
X152840000Y-64760000D02*
X150190000Y-64760000D01*
X155350000Y-64880000D02*
X155350000Y-74960000D01*
%TO.C,SW2*%
D12*
X159460000Y-40935000D02*
X159460000Y-49065000D01*
X159460000Y-49065000D02*
X164540000Y-49065000D01*
X164540000Y-40935000D02*
X159460000Y-40935000D01*
X164540000Y-49065000D02*
X164540000Y-40935000D01*
D13*
X162100000Y-49750000D02*
G75*
G02*
X161900000Y-49750000I-100000J0D01*
G01*
X161900000Y-49750000D02*
G75*
G02*
X162100000Y-49750000I100000J0D01*
G01*
%TO.C,SW3*%
D12*
X110460000Y-120935000D02*
X110460000Y-129065000D01*
X110460000Y-129065000D02*
X115540000Y-129065000D01*
X115540000Y-120935000D02*
X110460000Y-120935000D01*
X115540000Y-129065000D02*
X115540000Y-120935000D01*
D13*
X113100000Y-129750000D02*
G75*
G02*
X112900000Y-129750000I-100000J0D01*
G01*
X112900000Y-129750000D02*
G75*
G02*
X113100000Y-129750000I100000J0D01*
G01*
%TO.C,SW1*%
D12*
X110460000Y-83935000D02*
X110460000Y-92065000D01*
X110460000Y-92065000D02*
X115540000Y-92065000D01*
X115540000Y-83935000D02*
X110460000Y-83935000D01*
X115540000Y-92065000D02*
X115540000Y-83935000D01*
D13*
X113100000Y-92750000D02*
G75*
G02*
X112900000Y-92750000I-100000J0D01*
G01*
X112900000Y-92750000D02*
G75*
G02*
X113100000Y-92750000I100000J0D01*
G01*
%TO.C,BT3*%
D11*
X129500000Y-54000000D02*
X129500000Y-55500000D01*
X130750000Y-58000000D02*
X135250000Y-58000000D01*
X135250000Y-51500000D02*
X130750000Y-51500000D01*
X136500000Y-55500000D02*
X136500000Y-54000000D01*
%TO.C,*%
X155750000Y-42000000D02*
X156250000Y-42000000D01*
X156000000Y-41750000D02*
X156000000Y-42250000D01*
%TO.C,LED1*%
X150710000Y-43455000D02*
X150710000Y-46545000D01*
X150710000Y-43455170D02*
G75*
G02*
X156260000Y-45000000I2560000J-1544830D01*
G01*
X156260000Y-45000000D02*
G75*
G02*
X150710000Y-46544830I-2990000J0D01*
G01*
X155770000Y-45000000D02*
G75*
G02*
X150770000Y-45000000I-2500000J0D01*
G01*
X150770000Y-45000000D02*
G75*
G02*
X155770000Y-45000000I2500000J0D01*
G01*
%TD*%
%LPC*%
D14*
%TO.C,J1*%
X149000000Y-94700000D03*
X149000000Y-87080000D03*
X149000000Y-92160000D03*
X149000000Y-84540000D03*
X149000000Y-89620000D03*
D15*
X149000000Y-82000000D03*
%TD*%
D16*
%TO.C,BT4*%
X146380000Y-106840000D03*
D17*
X146380000Y-117000000D03*
X154000000Y-106840000D03*
X154000000Y-117000000D03*
%TD*%
D18*
%TO.C,BT1*%
X109750000Y-52500000D03*
X116250000Y-52500000D03*
X109750000Y-57000000D03*
X116250000Y-57000000D03*
%TD*%
D16*
%TO.C,BT2*%
X146380000Y-64840000D03*
D17*
X146380000Y-75000000D03*
X154000000Y-64840000D03*
X154000000Y-75000000D03*
%TD*%
D19*
%TO.C,SW2*%
X162000000Y-47540000D03*
D20*
X162000000Y-45000000D03*
X162000000Y-42460000D03*
%TD*%
D19*
%TO.C,SW3*%
X113000000Y-127540000D03*
D20*
X113000000Y-125000000D03*
X113000000Y-122460000D03*
%TD*%
D19*
%TO.C,SW1*%
X113000000Y-90540000D03*
D20*
X113000000Y-88000000D03*
X113000000Y-85460000D03*
%TD*%
D18*
%TO.C,BT3*%
X129750000Y-52500000D03*
X136250000Y-52500000D03*
X129750000Y-57000000D03*
X136250000Y-57000000D03*
%TD*%
D16*
%TO.C,LED1*%
X152000000Y-45000000D03*
D17*
X154540000Y-45000000D03*
%TD*%
D21*
%TO.C,J6*%
X142460000Y-126980000D03*
D22*
X145000000Y-126980000D03*
%TD*%
D23*
%TO.C,C2*%
X119000000Y-68000000D03*
X119000000Y-73000000D03*
%TD*%
%TO.C,R1*%
X151000000Y-52190000D03*
X151000000Y-59810000D03*
%TD*%
D24*
%TO.C,RV1*%
X110460000Y-102000000D03*
D25*
X113000000Y-102000000D03*
X115500000Y-102000000D03*
X110460000Y-99460000D03*
X113000000Y-99460000D03*
X115500000Y-99460000D03*
X110460000Y-96920000D03*
X113000000Y-96920000D03*
X115500000Y-96920000D03*
%TD*%
D26*
%TO.C,A1*%
X138620000Y-65495000D03*
D25*
X138620000Y-68035000D03*
X138620000Y-70575000D03*
X138620000Y-73115000D03*
X138620000Y-75655000D03*
X138620000Y-78195000D03*
X138620000Y-80735000D03*
X138620000Y-83275000D03*
X138620000Y-85815000D03*
X138620000Y-88355000D03*
X138620000Y-90895000D03*
X138620000Y-93435000D03*
X138620000Y-95975000D03*
X138620000Y-98515000D03*
X138620000Y-101055000D03*
X138620000Y-103595000D03*
X138620000Y-106135000D03*
X138620000Y-108675000D03*
X138620000Y-111215000D03*
X138620000Y-113755000D03*
X123380000Y-113755000D03*
X123380000Y-111215000D03*
X123380000Y-108675000D03*
X123380000Y-106135000D03*
X123380000Y-103595000D03*
X123380000Y-101055000D03*
X123380000Y-98515000D03*
X123380000Y-95975000D03*
X123380000Y-93435000D03*
X123380000Y-90895000D03*
X123380000Y-88355000D03*
X123380000Y-85815000D03*
X123380000Y-83275000D03*
X123380000Y-80735000D03*
X123380000Y-78195000D03*
X123380000Y-75655000D03*
X123380000Y-73115000D03*
X123380000Y-70575000D03*
X123380000Y-68035000D03*
X123380000Y-65495000D03*
%TD*%
D27*
%TO.C,C1*%
X114500000Y-68000000D03*
D23*
X114500000Y-70000001D03*
%TD*%
D26*
%TO.C,GameTrak1*%
X108470376Y-117332203D03*
D28*
X114970376Y-116252203D03*
D29*
X108470376Y-114792203D03*
D30*
X114970376Y-114252203D03*
D29*
X108470376Y-112252203D03*
D30*
X114970376Y-112252203D03*
X114970376Y-110252203D03*
D29*
X108470376Y-109712203D03*
D30*
X114970376Y-108252203D03*
D29*
X108470376Y-107172203D03*
%TD*%
D21*
%TO.C,J5*%
X150460000Y-127000000D03*
D22*
X153000000Y-127000000D03*
%TD*%
%TO.C,J2*%
X159540000Y-57000000D03*
D21*
X157000000Y-57000000D03*
%TD*%
%TO.C,J4*%
X131460000Y-127000000D03*
D22*
X134000000Y-127000000D03*
%TD*%
D23*
%TO.C,D1*%
X143971384Y-60296032D03*
X143971384Y-52676032D03*
%TD*%
D21*
%TO.C,J3*%
X123460000Y-127000000D03*
D22*
X126000000Y-127000000D03*
%TD*%
%LPD*%
M02*
