%TF.GenerationSoftware,KiCad,Pcbnew,10.0.5*%
%TF.CreationDate,2026-08-11T14:03:18+02:00*%
%TF.ProjectId,STR500_v1.2,53545235-3030-45f7-9631-2e322e6b6963,rev?*%
%TF.SameCoordinates,Original*%
%TF.FileFunction,Soldermask,Bot*%
%TF.FilePolarity,Negative*%
%FSLAX46Y46*%
G04 Gerber Fmt 4.6, Leading zero omitted, Abs format (unit mm)*
G04 Created by KiCad (PCBNEW 10.0.5) date 2026-08-11 14:03:18*
%MOMM*%
%LPD*%
G01*
G04 APERTURE LIST*
G04 Aperture macros list*
%AMRoundRect*
0 Rectangle with rounded corners*
0 $1 Rounding radius*
0 $2 $3 $4 $5 $6 $7 $8 $9 X,Y pos of 4 corners*
0 Add a 4 corners polygon primitive as box body*
4,1,4,$2,$3,$4,$5,$6,$7,$8,$9,$2,$3,0*
0 Add four circle primitives for the rounded corners*
1,1,$1+$1,$2,$3*
1,1,$1+$1,$4,$5*
1,1,$1+$1,$6,$7*
1,1,$1+$1,$8,$9*
0 Add four rect primitives between the rounded corners*
20,1,$1+$1,$2,$3,$4,$5,0*
20,1,$1+$1,$4,$5,$6,$7,0*
20,1,$1+$1,$6,$7,$8,$9,0*
20,1,$1+$1,$8,$9,$2,$3,0*%
G04 Aperture macros list end*
%ADD10O,2.190000X1.740000*%
%ADD11RoundRect,0.250000X-0.845000X0.620000X-0.845000X-0.620000X0.845000X-0.620000X0.845000X0.620000X0*%
%ADD12R,1.800000X1.800000*%
%ADD13C,1.800000*%
%ADD14C,2.000000*%
%ADD15RoundRect,0.102000X0.817500X-0.817500X0.817500X0.817500X-0.817500X0.817500X-0.817500X-0.817500X0*%
%ADD16C,1.839000*%
%ADD17RoundRect,0.250000X-0.620000X-0.845000X0.620000X-0.845000X0.620000X0.845000X-0.620000X0.845000X0*%
%ADD18O,1.740000X2.190000*%
%ADD19C,1.600000*%
%ADD20RoundRect,0.250000X-0.600000X-0.600000X0.600000X-0.600000X0.600000X0.600000X-0.600000X0.600000X0*%
%ADD21C,1.700000*%
%ADD22R,1.700000X1.700000*%
%ADD23RoundRect,0.250000X-0.550000X0.550000X-0.550000X-0.550000X0.550000X-0.550000X0.550000X0.550000X0*%
%ADD24RoundRect,0.250000X0.650000X-0.350000X0.650000X0.350000X-0.650000X0.350000X-0.650000X-0.350000X0*%
%ADD25O,1.700000X1.700000*%
%ADD26O,1.800000X1.200000*%
G04 APERTURE END LIST*
D10*
%TO.C,J1*%
X149000000Y-94700000D03*
X149000000Y-87080000D03*
X149000000Y-92160000D03*
X149000000Y-84540000D03*
X149000000Y-89620000D03*
D11*
X149000000Y-82000000D03*
%TD*%
D12*
%TO.C,BT4*%
X146380000Y-106840000D03*
D13*
X146380000Y-117000000D03*
X154000000Y-106840000D03*
X154000000Y-117000000D03*
%TD*%
D14*
%TO.C,BT1*%
X109750000Y-52500000D03*
X116250000Y-52500000D03*
X109750000Y-57000000D03*
X116250000Y-57000000D03*
%TD*%
D12*
%TO.C,BT2*%
X146380000Y-64840000D03*
D13*
X146380000Y-75000000D03*
X154000000Y-64840000D03*
X154000000Y-75000000D03*
%TD*%
D15*
%TO.C,SW2*%
X162000000Y-47540000D03*
D16*
X162000000Y-45000000D03*
X162000000Y-42460000D03*
%TD*%
D15*
%TO.C,SW3*%
X113000000Y-127540000D03*
D16*
X113000000Y-125000000D03*
X113000000Y-122460000D03*
%TD*%
D15*
%TO.C,SW1*%
X113000000Y-90540000D03*
D16*
X113000000Y-88000000D03*
X113000000Y-85460000D03*
%TD*%
D14*
%TO.C,BT3*%
X129750000Y-52500000D03*
X136250000Y-52500000D03*
X129750000Y-57000000D03*
X136250000Y-57000000D03*
%TD*%
D12*
%TO.C,LED1*%
X152000000Y-45000000D03*
D13*
X154540000Y-45000000D03*
%TD*%
D17*
%TO.C,J6*%
X142460000Y-126980000D03*
D18*
X145000000Y-126980000D03*
%TD*%
D19*
%TO.C,C2*%
X119000000Y-68000000D03*
X119000000Y-73000000D03*
%TD*%
%TO.C,R1*%
X151000000Y-52190000D03*
X151000000Y-59810000D03*
%TD*%
D20*
%TO.C,RV1*%
X110460000Y-102000000D03*
D21*
X113000000Y-102000000D03*
X115500000Y-102000000D03*
X110460000Y-99460000D03*
X113000000Y-99460000D03*
X115500000Y-99460000D03*
X110460000Y-96920000D03*
X113000000Y-96920000D03*
X115500000Y-96920000D03*
%TD*%
D22*
%TO.C,A1*%
X138620000Y-65495000D03*
D21*
X138620000Y-68035000D03*
X138620000Y-70575000D03*
X138620000Y-73115000D03*
X138620000Y-75655000D03*
X138620000Y-78195000D03*
X138620000Y-80735000D03*
X138620000Y-83275000D03*
X138620000Y-85815000D03*
X138620000Y-88355000D03*
X138620000Y-90895000D03*
X138620000Y-93435000D03*
X138620000Y-95975000D03*
X138620000Y-98515000D03*
X138620000Y-101055000D03*
X138620000Y-103595000D03*
X138620000Y-106135000D03*
X138620000Y-108675000D03*
X138620000Y-111215000D03*
X138620000Y-113755000D03*
X123380000Y-113755000D03*
X123380000Y-111215000D03*
X123380000Y-108675000D03*
X123380000Y-106135000D03*
X123380000Y-103595000D03*
X123380000Y-101055000D03*
X123380000Y-98515000D03*
X123380000Y-95975000D03*
X123380000Y-93435000D03*
X123380000Y-90895000D03*
X123380000Y-88355000D03*
X123380000Y-85815000D03*
X123380000Y-83275000D03*
X123380000Y-80735000D03*
X123380000Y-78195000D03*
X123380000Y-75655000D03*
X123380000Y-73115000D03*
X123380000Y-70575000D03*
X123380000Y-68035000D03*
X123380000Y-65495000D03*
%TD*%
D23*
%TO.C,C1*%
X114500000Y-68000000D03*
D19*
X114500000Y-70000001D03*
%TD*%
D22*
%TO.C,GameTrak1*%
X108470376Y-117332203D03*
D24*
X114970376Y-116252203D03*
D25*
X108470376Y-114792203D03*
D26*
X114970376Y-114252203D03*
D25*
X108470376Y-112252203D03*
D26*
X114970376Y-112252203D03*
X114970376Y-110252203D03*
D25*
X108470376Y-109712203D03*
D26*
X114970376Y-108252203D03*
D25*
X108470376Y-107172203D03*
%TD*%
D17*
%TO.C,J5*%
X150460000Y-127000000D03*
D18*
X153000000Y-127000000D03*
%TD*%
%TO.C,J2*%
X159540000Y-57000000D03*
D17*
X157000000Y-57000000D03*
%TD*%
%TO.C,J4*%
X131460000Y-127000000D03*
D18*
X134000000Y-127000000D03*
%TD*%
D19*
%TO.C,D1*%
X143971384Y-60296032D03*
X143971384Y-52676032D03*
%TD*%
D17*
%TO.C,J3*%
X123460000Y-127000000D03*
D18*
X126000000Y-127000000D03*
%TD*%
M02*
