M48
; DRILL file KiCad 10.0.5 date 2026-08-11T14:03:20
; FORMAT={-:-/ absolute / metric / decimal}
; #@! TF.CreationDate,2026-08-11T14:03:20+02:00
; #@! TF.GenerationSoftware,Kicad,Pcbnew,10.0.5
; #@! TF.FileFunction,Plated,1,2,PTH
FMAT,2
METRIC
; #@! TA.AperFunction,Plated,PTH,ViaDrill
T1C0.300
; #@! TA.AperFunction,Plated,PTH,ComponentDrill
T2C0.800
; #@! TA.AperFunction,Plated,PTH,ComponentDrill
T3C0.900
; #@! TA.AperFunction,Plated,PTH,ComponentDrill
T4C1.000
; #@! TA.AperFunction,Plated,PTH,ComponentDrill
T5C1.090
; #@! TA.AperFunction,Plated,PTH,ComponentDrill
T6C1.100
; #@! TA.AperFunction,Plated,PTH,ComponentDrill
T7C1.190
%
G90
G05
T1
X115.0Y-127.5
X117.0Y-125.5
X119.0Y-123.5
X121.5Y-121.0
X124.0Y-118.5
X126.5Y-116.0
X126.5Y-122.5
X128.5Y-119.5
X129.0Y-113.5
X130.5Y-116.5
X131.5Y-111.0
X132.5Y-71.5
X132.5Y-114.5
X134.0Y-108.5
X134.0Y-119.0
X134.0Y-121.5
X134.0Y-124.0
X134.5Y-112.5
X135.0Y-117.0
X136.5Y-104.0
X136.5Y-107.0
X136.5Y-110.5
X136.5Y-115.5
X141.0Y-106.0
X141.0Y-109.0
X141.0Y-111.5
X141.0Y-114.0
X141.5Y-102.5
X144.0Y-104.0
X144.0Y-108.0
X144.0Y-114.0
X144.0Y-119.5
X144.0Y-123.0
X146.5Y-110.5
X148.0Y-119.5
X148.0Y-123.0
X148.5Y-112.5
X151.0Y-115.0
X152.5Y-118.5
X152.5Y-121.5
X152.5Y-124.0
T2
X114.5Y-68.0
X114.5Y-70.0
X114.97Y-108.252
X114.97Y-110.252
X114.97Y-112.252
X114.97Y-114.252
X114.97Y-116.252
X119.0Y-68.0
X119.0Y-73.0
X143.971Y-52.676
X143.971Y-60.296
X151.0Y-52.19
X151.0Y-59.81
T3
X146.38Y-64.84
X146.38Y-75.0
X146.38Y-106.84
X146.38Y-117.0
X152.0Y-45.0
X154.0Y-64.84
X154.0Y-75.0
X154.0Y-106.84
X154.0Y-117.0
X154.54Y-45.0
T4
X108.47Y-107.172
X108.47Y-109.712
X108.47Y-112.252
X108.47Y-114.792
X108.47Y-117.332
X110.46Y-96.92
X110.46Y-99.46
X110.46Y-102.0
X113.0Y-96.92
X113.0Y-99.46
X113.0Y-102.0
X115.5Y-96.92
X115.5Y-99.46
X115.5Y-102.0
T5
X113.0Y-85.46
X113.0Y-88.0
X113.0Y-90.54
X113.0Y-122.46
X113.0Y-125.0
X113.0Y-127.54
X162.0Y-42.46
X162.0Y-45.0
X162.0Y-47.54
T6
X109.75Y-52.5
X109.75Y-57.0
X116.25Y-52.5
X116.25Y-57.0
X123.38Y-65.495
X123.38Y-68.035
X123.38Y-70.575
X123.38Y-73.115
X123.38Y-75.655
X123.38Y-78.195
X123.38Y-80.735
X123.38Y-83.275
X123.38Y-85.815
X123.38Y-88.355
X123.38Y-90.895
X123.38Y-93.435
X123.38Y-95.975
X123.38Y-98.515
X123.38Y-101.055
X123.38Y-103.595
X123.38Y-106.135
X123.38Y-108.675
X123.38Y-111.215
X123.38Y-113.755
X129.75Y-52.5
X129.75Y-57.0
X136.25Y-52.5
X136.25Y-57.0
X138.62Y-65.495
X138.62Y-68.035
X138.62Y-70.575
X138.62Y-73.115
X138.62Y-75.655
X138.62Y-78.195
X138.62Y-80.735
X138.62Y-83.275
X138.62Y-85.815
X138.62Y-88.355
X138.62Y-90.895
X138.62Y-93.435
X138.62Y-95.975
X138.62Y-98.515
X138.62Y-101.055
X138.62Y-103.595
X138.62Y-106.135
X138.62Y-108.675
X138.62Y-111.215
X138.62Y-113.755
T7
X123.46Y-127.0
X126.0Y-127.0
X131.46Y-127.0
X134.0Y-127.0
X142.46Y-126.98
X145.0Y-126.98
X149.0Y-82.0
X149.0Y-84.54
X149.0Y-87.08
X149.0Y-89.62
X149.0Y-92.16
X149.0Y-94.7
X150.46Y-127.0
X153.0Y-127.0
X157.0Y-57.0
X159.54Y-57.0
M30
